%TF.GenerationSoftware,Altium Limited,Altium Designer,25.3.3 (18)*%
G04 Layer_Physical_Order=1*
G04 Layer_Color=255*
%FSLAX45Y45*%
%MOMM*%
%TF.SameCoordinates,0761283E-10EF-41A2-BAA1-EC4CD2C5D14C*%
%TF.FilePolarity,Positive*%
%TF.FileFunction,Copper,L1,Top,Signal*%
%TF.Part,Single*%
G01*
G75*
%TA.AperFunction,SMDPad,CuDef*%
%ADD10R,0.88900X0.66040*%
%TA.AperFunction,SMDPad,SMDef*%
%ADD11R,1.42240X0.43180*%
%TA.AperFunction,Conductor*%
%ADD12C,0.25400*%
%TA.AperFunction,NonConductor*%
%ADD13C,0.25400*%
%TA.AperFunction,ComponentPad*%
%ADD14R,0.85000X0.85000*%
%ADD15C,0.85000*%
%ADD16C,1.06680*%
%ADD17O,2.50000X1.20000*%
%ADD18R,2.50000X1.20000*%
%TA.AperFunction,ViaPad*%
%ADD19C,2.54000*%
%ADD20C,1.27000*%
G36*
X9918700Y6515000D02*
Y6489700D01*
X1333500D01*
Y13068300D01*
X9918700D01*
Y6515000D01*
D02*
G37*
%LPC*%
G36*
X9730510Y12979401D02*
X9728200D01*
Y12839700D01*
X9867900D01*
Y12842010D01*
X9862043Y12871454D01*
X9850555Y12899190D01*
X9833877Y12924149D01*
X9812649Y12945377D01*
X9787689Y12962054D01*
X9759954Y12973543D01*
X9730510Y12979401D01*
D02*
G37*
G36*
X9702800D02*
X9700490D01*
X9671046Y12973543D01*
X9643311Y12962054D01*
X9618351Y12945377D01*
X9597123Y12924149D01*
X9580445Y12899190D01*
X9568957Y12871454D01*
X9563100Y12842010D01*
Y12839700D01*
X9702800D01*
Y12979401D01*
D02*
G37*
G36*
X1602510D02*
X1600200D01*
Y12839700D01*
X1739900D01*
Y12842010D01*
X1734043Y12871454D01*
X1722555Y12899190D01*
X1705877Y12924149D01*
X1684649Y12945377D01*
X1659689Y12962054D01*
X1631954Y12973543D01*
X1602510Y12979401D01*
D02*
G37*
G36*
X1574800D02*
X1572490D01*
X1543046Y12973543D01*
X1515311Y12962054D01*
X1490351Y12945377D01*
X1469123Y12924149D01*
X1452445Y12899190D01*
X1440957Y12871454D01*
X1435100Y12842010D01*
Y12839700D01*
X1574800D01*
Y12979401D01*
D02*
G37*
G36*
X9867900Y12814301D02*
X9728200D01*
Y12674600D01*
X9730510D01*
X9759954Y12680457D01*
X9787689Y12691945D01*
X9812649Y12708623D01*
X9833877Y12729851D01*
X9850555Y12754811D01*
X9862043Y12782546D01*
X9867900Y12811990D01*
Y12814301D01*
D02*
G37*
G36*
X9702800D02*
X9563100D01*
Y12811990D01*
X9568957Y12782546D01*
X9580445Y12754811D01*
X9597123Y12729851D01*
X9618351Y12708623D01*
X9643311Y12691945D01*
X9671046Y12680457D01*
X9700490Y12674600D01*
X9702800D01*
Y12814301D01*
D02*
G37*
G36*
X1739900D02*
X1600200D01*
Y12674600D01*
X1602510D01*
X1631954Y12680457D01*
X1659689Y12691945D01*
X1684649Y12708623D01*
X1705877Y12729851D01*
X1722555Y12754811D01*
X1734043Y12782546D01*
X1739900Y12811990D01*
Y12814301D01*
D02*
G37*
G36*
X1574800D02*
X1435100D01*
Y12811990D01*
X1440957Y12782546D01*
X1452445Y12754811D01*
X1469123Y12729851D01*
X1490351Y12708623D01*
X1515311Y12691945D01*
X1543046Y12680457D01*
X1572490Y12674600D01*
X1574800D01*
Y12814301D01*
D02*
G37*
G36*
X3769900Y12163100D02*
X3469100D01*
Y11992300D01*
X3769900D01*
Y12163100D01*
D02*
G37*
G36*
X5462500Y12163837D02*
X5332500D01*
X5310206Y12160902D01*
X5289432Y12152296D01*
X5271592Y12138608D01*
X5257903Y12120768D01*
X5249298Y12099994D01*
X5246363Y12077700D01*
X5249298Y12055406D01*
X5257903Y12034632D01*
X5271592Y12016792D01*
X5289432Y12003104D01*
X5310206Y11994498D01*
X5332500Y11991563D01*
X5462500D01*
X5484794Y11994498D01*
X5505568Y12003104D01*
X5523408Y12016792D01*
X5537097Y12034632D01*
X5545702Y12055406D01*
X5548637Y12077700D01*
X5545702Y12099994D01*
X5537097Y12120768D01*
X5523408Y12138608D01*
X5505568Y12152296D01*
X5484794Y12160902D01*
X5462500Y12163837D01*
D02*
G37*
G36*
Y11909837D02*
X5332500D01*
X5310206Y11906902D01*
X5289432Y11898296D01*
X5271592Y11884608D01*
X5257903Y11866768D01*
X5249298Y11845994D01*
X5246363Y11823700D01*
X5249298Y11801406D01*
X5257903Y11780632D01*
X5271592Y11762792D01*
X5289432Y11749104D01*
X5310206Y11740498D01*
X5332500Y11737563D01*
X5462500D01*
X5484794Y11740498D01*
X5505568Y11749104D01*
X5523408Y11762792D01*
X5537097Y11780632D01*
X5545702Y11801406D01*
X5548637Y11823700D01*
X5545702Y11845994D01*
X5537097Y11866768D01*
X5523408Y11884608D01*
X5505568Y11898296D01*
X5484794Y11906902D01*
X5462500Y11909837D01*
D02*
G37*
G36*
Y11655837D02*
X5410200D01*
Y11582400D01*
X5546965D01*
X5545702Y11591994D01*
X5537097Y11612768D01*
X5523408Y11630608D01*
X5505568Y11644296D01*
X5484794Y11652902D01*
X5462500Y11655837D01*
D02*
G37*
G36*
X5384800D02*
X5332500D01*
X5310206Y11652902D01*
X5289432Y11644296D01*
X5271592Y11630608D01*
X5257903Y11612768D01*
X5249298Y11591994D01*
X5248035Y11582400D01*
X5384800D01*
Y11655837D01*
D02*
G37*
G36*
X3684500D02*
X3632200D01*
Y11582400D01*
X3768965D01*
X3767702Y11591994D01*
X3759097Y11612768D01*
X3745408Y11630608D01*
X3727568Y11644296D01*
X3706794Y11652902D01*
X3684500Y11655837D01*
D02*
G37*
G36*
X3606800D02*
X3554500D01*
X3532206Y11652902D01*
X3511432Y11644296D01*
X3493592Y11630608D01*
X3479903Y11612768D01*
X3471298Y11591994D01*
X3470035Y11582400D01*
X3606800D01*
Y11655837D01*
D02*
G37*
G36*
X5546965Y11557000D02*
X5410200D01*
Y11483563D01*
X5462500D01*
X5484794Y11486498D01*
X5505568Y11495104D01*
X5523408Y11508792D01*
X5537097Y11526632D01*
X5545702Y11547406D01*
X5546965Y11557000D01*
D02*
G37*
G36*
X5384800D02*
X5248035D01*
X5249298Y11547406D01*
X5257903Y11526632D01*
X5271592Y11508792D01*
X5289432Y11495104D01*
X5310206Y11486498D01*
X5332500Y11483563D01*
X5384800D01*
Y11557000D01*
D02*
G37*
G36*
X3768965D02*
X3632200D01*
Y11483563D01*
X3684500D01*
X3706794Y11486498D01*
X3727568Y11495104D01*
X3745408Y11508792D01*
X3759097Y11526632D01*
X3767702Y11547406D01*
X3768965Y11557000D01*
D02*
G37*
G36*
X3606800D02*
X3470035D01*
X3471298Y11547406D01*
X3479903Y11526632D01*
X3493592Y11508792D01*
X3511432Y11495104D01*
X3532206Y11486498D01*
X3554500Y11483563D01*
X3606800D01*
Y11557000D01*
D02*
G37*
G36*
X5462500Y11401837D02*
X5332500D01*
X5310206Y11398902D01*
X5289432Y11390296D01*
X5271592Y11376608D01*
X5257903Y11358768D01*
X5249298Y11337994D01*
X5246363Y11315700D01*
X5249298Y11293406D01*
X5257903Y11272632D01*
X5271592Y11254792D01*
X5289432Y11241104D01*
X5310206Y11232498D01*
X5332500Y11229563D01*
X5462500D01*
X5484794Y11232498D01*
X5505568Y11241104D01*
X5523408Y11254792D01*
X5537097Y11272632D01*
X5545702Y11293406D01*
X5548637Y11315700D01*
X5545702Y11337994D01*
X5537097Y11358768D01*
X5523408Y11376608D01*
X5505568Y11390296D01*
X5484794Y11398902D01*
X5462500Y11401837D01*
D02*
G37*
G36*
X2376815Y11544300D02*
X2298700D01*
X2220585D01*
X2225326Y11526607D01*
X2235692Y11508653D01*
X2249845Y11494500D01*
X2235692Y11480347D01*
X2225326Y11462393D01*
X2219960Y11442366D01*
Y11421634D01*
X2225326Y11401607D01*
X2235692Y11383653D01*
X2249845Y11369500D01*
X2235692Y11355347D01*
X2230207Y11345846D01*
X1947100D01*
X1932234Y11342889D01*
X1919631Y11334469D01*
X1826731Y11241569D01*
X1818311Y11228966D01*
X1815353Y11214100D01*
Y10629900D01*
X1818311Y10615034D01*
X1826731Y10602431D01*
X1915632Y10513530D01*
X1928235Y10505110D01*
X1943101Y10502152D01*
X3486409Y10502153D01*
X3493592Y10492792D01*
X3511432Y10479104D01*
X3532206Y10470498D01*
X3554500Y10467563D01*
X3684500D01*
X3706794Y10470498D01*
X3727568Y10479104D01*
X3745408Y10492792D01*
X3759097Y10510632D01*
X3767702Y10531406D01*
X3770637Y10553700D01*
X3767702Y10575994D01*
X3759097Y10596768D01*
X3745408Y10614608D01*
X3727568Y10628296D01*
X3706794Y10636902D01*
X3684500Y10639837D01*
X3554500D01*
X3532206Y10636902D01*
X3511432Y10628296D01*
X3493592Y10614608D01*
X3479903Y10596768D01*
X3472894Y10579846D01*
X1959191Y10579845D01*
X1893047Y10645990D01*
Y11198009D01*
X1963191Y11268153D01*
X2230207D01*
X2235692Y11258653D01*
X2249845Y11244500D01*
X2235692Y11230347D01*
X2230207Y11220846D01*
X2076100D01*
X2061234Y11217889D01*
X2048631Y11209469D01*
X1979131Y11139969D01*
X1970711Y11127366D01*
X1967753Y11112500D01*
Y10871200D01*
X1970711Y10856334D01*
X1979131Y10843731D01*
X2055331Y10767531D01*
X2067934Y10759111D01*
X2082800Y10756153D01*
X3486409D01*
X3493592Y10746792D01*
X3511432Y10733104D01*
X3532206Y10724498D01*
X3554500Y10721563D01*
X3684500D01*
X3706794Y10724498D01*
X3727568Y10733104D01*
X3745408Y10746792D01*
X3759097Y10764632D01*
X3767702Y10785406D01*
X3770637Y10807700D01*
X3767702Y10829994D01*
X3759097Y10850768D01*
X3745408Y10868608D01*
X3727568Y10882296D01*
X3706794Y10890902D01*
X3684500Y10893837D01*
X3554500D01*
X3532206Y10890902D01*
X3511432Y10882296D01*
X3493592Y10868608D01*
X3479903Y10850768D01*
X3472894Y10833847D01*
X2098891D01*
X2045447Y10887291D01*
Y11096409D01*
X2092191Y11143153D01*
X2230207D01*
X2235692Y11133653D01*
X2249845Y11119500D01*
X2235692Y11105347D01*
X2225326Y11087393D01*
X2219960Y11067366D01*
Y11046634D01*
X2225326Y11026607D01*
X2235692Y11008653D01*
X2250353Y10993992D01*
X2268307Y10983626D01*
X2288334Y10978260D01*
X2309066D01*
X2329093Y10983626D01*
X2347047Y10993992D01*
X2361708Y11008653D01*
X2367193Y11018153D01*
X2827400D01*
X2842266Y11021111D01*
X2854869Y11029531D01*
X3102191Y11276853D01*
X3478155D01*
X3479903Y11272632D01*
X3493592Y11254792D01*
X3511432Y11241104D01*
X3532206Y11232498D01*
X3554500Y11229563D01*
X3684500D01*
X3706794Y11232498D01*
X3727568Y11241104D01*
X3745408Y11254792D01*
X3759097Y11272632D01*
X3767702Y11293406D01*
X3770637Y11315700D01*
X3767702Y11337994D01*
X3759097Y11358768D01*
X3745408Y11376608D01*
X3727568Y11390296D01*
X3706794Y11398902D01*
X3684500Y11401837D01*
X3554500D01*
X3532206Y11398902D01*
X3511432Y11390296D01*
X3493592Y11376608D01*
X3479903Y11358768D01*
X3478155Y11354547D01*
X3086100D01*
X3071234Y11351589D01*
X3058631Y11343169D01*
X2811309Y11095846D01*
X2367193D01*
X2361708Y11105347D01*
X2347555Y11119500D01*
X2361708Y11133653D01*
X2372074Y11151607D01*
X2377440Y11171634D01*
Y11192366D01*
X2372074Y11212393D01*
X2361708Y11230347D01*
X2347555Y11244500D01*
X2361708Y11258653D01*
X2372074Y11276607D01*
X2377440Y11296634D01*
Y11317366D01*
X2372074Y11337393D01*
X2361708Y11355347D01*
X2347555Y11369500D01*
X2361708Y11383653D01*
X2372074Y11401607D01*
X2377440Y11421634D01*
Y11442366D01*
X2372074Y11462393D01*
X2361708Y11480347D01*
X2347555Y11494500D01*
X2361708Y11508653D01*
X2372074Y11526607D01*
X2376815Y11544300D01*
D02*
G37*
G36*
X7550150Y11065800D02*
X7466330D01*
Y11031510D01*
X7550150D01*
Y11065800D01*
D02*
G37*
G36*
X7440930D02*
X7357110D01*
Y11031510D01*
X7440930D01*
Y11065800D01*
D02*
G37*
G36*
X3684500Y11147837D02*
X3554500D01*
X3532206Y11144902D01*
X3511432Y11136296D01*
X3493592Y11122608D01*
X3479903Y11104768D01*
X3471298Y11083994D01*
X3468363Y11061700D01*
X3471298Y11039406D01*
X3479903Y11018632D01*
X3493592Y11000792D01*
X3511432Y10987104D01*
X3532206Y10978498D01*
X3554500Y10975563D01*
X3684500D01*
X3706794Y10978498D01*
X3727568Y10987104D01*
X3745408Y11000792D01*
X3759097Y11018632D01*
X3767702Y11039406D01*
X3770637Y11061700D01*
X3767702Y11083994D01*
X3759097Y11104768D01*
X3745408Y11122608D01*
X3727568Y11136296D01*
X3706794Y11144902D01*
X3684500Y11147837D01*
D02*
G37*
G36*
X5717500Y12373846D02*
X3231890D01*
X3217024Y12370889D01*
X3204421Y12362469D01*
X2974913Y12132960D01*
X2890150D01*
Y12047946D01*
X2889084Y12046351D01*
X2887112Y12036440D01*
Y11983100D01*
X2889084Y11973189D01*
X2890150Y11971594D01*
Y11886580D01*
X2921153D01*
Y11845847D01*
X2367193D01*
X2361708Y11855347D01*
X2347047Y11870008D01*
X2329093Y11880374D01*
X2309066Y11885740D01*
X2288334D01*
X2268307Y11880374D01*
X2250353Y11870008D01*
X2235692Y11855347D01*
X2225326Y11837393D01*
X2219960Y11817366D01*
Y11796634D01*
X2225326Y11776607D01*
X2235692Y11758653D01*
X2249845Y11744500D01*
X2235692Y11730347D01*
X2225326Y11712393D01*
X2219960Y11692366D01*
Y11671634D01*
X2225326Y11651607D01*
X2235692Y11633653D01*
X2249845Y11619500D01*
X2235692Y11605347D01*
X2225326Y11587393D01*
X2220585Y11569700D01*
X2298700D01*
X2376815D01*
X2372074Y11587393D01*
X2361708Y11605347D01*
X2347555Y11619500D01*
X2361708Y11633653D01*
X2372074Y11651607D01*
X2377440Y11671634D01*
Y11692366D01*
X2372074Y11712393D01*
X2361708Y11730347D01*
X2347555Y11744500D01*
X2361708Y11758653D01*
X2367193Y11768154D01*
X3489478D01*
X3493592Y11762792D01*
X3511432Y11749104D01*
X3532206Y11740498D01*
X3554500Y11737563D01*
X3684500D01*
X3706794Y11740498D01*
X3727568Y11749104D01*
X3745408Y11762792D01*
X3759097Y11780632D01*
X3767702Y11801406D01*
X3770637Y11823700D01*
X3767702Y11845994D01*
X3759097Y11866768D01*
X3745408Y11884608D01*
X3727568Y11898296D01*
X3706794Y11906902D01*
X3684500Y11909837D01*
X3554500D01*
X3532206Y11906902D01*
X3511432Y11898296D01*
X3493592Y11884608D01*
X3479903Y11866768D01*
X3471298Y11845994D01*
X3471279Y11845847D01*
X2998846D01*
Y11886580D01*
X3029850D01*
Y11971594D01*
X3030916Y11973189D01*
X3032888Y11983100D01*
Y12036440D01*
X3030916Y12046351D01*
X3029850Y12047946D01*
Y12078023D01*
X3247981Y12296153D01*
X5701410D01*
X5793653Y12203910D01*
Y11100547D01*
X5538845D01*
X5537097Y11104768D01*
X5523408Y11122608D01*
X5505568Y11136296D01*
X5484794Y11144902D01*
X5462500Y11147837D01*
X5332500D01*
X5310206Y11144902D01*
X5289432Y11136296D01*
X5271592Y11122608D01*
X5257903Y11104768D01*
X5249298Y11083994D01*
X5246363Y11061700D01*
X5249298Y11039406D01*
X5257903Y11018632D01*
X5271592Y11000792D01*
X5289432Y10987104D01*
X5310206Y10978498D01*
X5332500Y10975563D01*
X5462500D01*
X5484794Y10978498D01*
X5505568Y10987104D01*
X5523408Y11000792D01*
X5537097Y11018632D01*
X5538845Y11022853D01*
X6200100D01*
X6214966Y11025811D01*
X6227568Y11034231D01*
X6427990Y11234653D01*
X6612629D01*
X6622349Y11211187D01*
X6563831Y11152669D01*
X6555411Y11140066D01*
X6552453Y11125200D01*
Y9913100D01*
Y8963991D01*
X6403009Y8814547D01*
X5538845D01*
X5537097Y8818768D01*
X5523408Y8836608D01*
X5505568Y8850296D01*
X5484794Y8858902D01*
X5462500Y8861837D01*
X5332500D01*
X5310206Y8858902D01*
X5289432Y8850296D01*
X5271592Y8836608D01*
X5257903Y8818768D01*
X5249298Y8797994D01*
X5246363Y8775700D01*
X5249298Y8753406D01*
X5257903Y8732632D01*
X5271592Y8714792D01*
X5289432Y8701104D01*
X5310206Y8692498D01*
X5332500Y8689563D01*
X5462500D01*
X5484794Y8692498D01*
X5505568Y8701104D01*
X5523408Y8714792D01*
X5537097Y8732632D01*
X5538845Y8736853D01*
X6419100D01*
X6433966Y8739811D01*
X6446569Y8748231D01*
X6607391Y8909054D01*
X6778909D01*
X6789430Y8883654D01*
X6786862Y8881086D01*
X6775158Y8860814D01*
X6769100Y8838204D01*
Y8814796D01*
X6773804Y8797241D01*
X6537109Y8560547D01*
X5538845D01*
X5537097Y8564768D01*
X5523408Y8582608D01*
X5505568Y8596296D01*
X5484794Y8604902D01*
X5462500Y8607837D01*
X5332500D01*
X5310206Y8604902D01*
X5289432Y8596296D01*
X5271592Y8582608D01*
X5257903Y8564768D01*
X5249298Y8543994D01*
X5246363Y8521700D01*
X5249298Y8499406D01*
X5257903Y8478632D01*
X5271592Y8460792D01*
X5289432Y8447104D01*
X5310206Y8438498D01*
X5332500Y8435563D01*
X5462500D01*
X5484794Y8438498D01*
X5505568Y8447104D01*
X5523408Y8460792D01*
X5537097Y8478632D01*
X5538845Y8482853D01*
X6553200D01*
X6568066Y8485811D01*
X6580669Y8494231D01*
X6828741Y8742304D01*
X6837296Y8740012D01*
X6843134Y8736111D01*
X6858000Y8733153D01*
X6872866Y8736111D01*
X6878704Y8740012D01*
X6892314Y8743658D01*
X6912586Y8755362D01*
X6929138Y8771914D01*
X6940842Y8792186D01*
X6946900Y8814796D01*
Y8838204D01*
X6971339Y8844053D01*
X7357110D01*
Y8830600D01*
X7550150D01*
Y8835910D01*
Y8900910D01*
Y8965910D01*
Y9059890D01*
X7412047D01*
X7209232Y9262705D01*
X7211400Y9270796D01*
Y9294204D01*
X7206696Y9311759D01*
X7504691Y9609753D01*
X7818120D01*
Y9577910D01*
X7957820D01*
Y9662924D01*
X7958886Y9664519D01*
X7960858Y9674430D01*
Y9727770D01*
X7958886Y9737681D01*
X7957820Y9739276D01*
Y9824290D01*
X7926817D01*
Y9875810D01*
X7984490D01*
Y9948953D01*
X8220609D01*
X8272404Y9897159D01*
X8267700Y9879604D01*
Y9856196D01*
X8273758Y9833586D01*
X8285462Y9813314D01*
X8302014Y9796762D01*
X8322286Y9785058D01*
X8344896Y9779000D01*
X8368304D01*
X8390914Y9785058D01*
X8411186Y9796762D01*
X8427738Y9813314D01*
X8436767Y9828953D01*
X8834024D01*
X8835666Y9826108D01*
X8840069Y9821706D01*
X8845570Y9805300D01*
X8840069Y9788894D01*
X8835666Y9784491D01*
X8826727Y9769008D01*
X8823108Y9755500D01*
X8890000D01*
X8956892D01*
X8953273Y9769008D01*
X8944334Y9784491D01*
X8939931Y9788894D01*
X8934430Y9805300D01*
X8939931Y9821706D01*
X8944334Y9826108D01*
X8953273Y9841591D01*
X8957900Y9858861D01*
Y9876739D01*
X8953273Y9894008D01*
X8944334Y9909491D01*
X8939931Y9913894D01*
X8934430Y9930300D01*
X8939931Y9946706D01*
X8944334Y9951108D01*
X8953273Y9966591D01*
X8957900Y9983861D01*
Y10001739D01*
X8953273Y10019008D01*
X8950102Y10024500D01*
X8957900Y10049900D01*
X8957900D01*
Y10185700D01*
X8822100D01*
Y10156646D01*
X7984490D01*
Y10164790D01*
X7791450D01*
Y10070810D01*
Y10005810D01*
Y9940810D01*
Y9875810D01*
X7849123D01*
Y9824290D01*
X7818120D01*
Y9794396D01*
X6812175D01*
X6803088Y9810136D01*
X6786536Y9826688D01*
X6766264Y9838392D01*
X6743654Y9844450D01*
X6720246D01*
X6697636Y9838392D01*
X6677364Y9826688D01*
X6660812Y9810136D01*
X6655547Y9801015D01*
X6630147Y9807821D01*
Y9913100D01*
Y10013954D01*
X6768211D01*
X6781012Y9988554D01*
X6775158Y9978414D01*
X6769100Y9955804D01*
Y9932396D01*
X6775158Y9909786D01*
X6786862Y9889514D01*
X6803414Y9872962D01*
X6823686Y9861258D01*
X6846296Y9855200D01*
X6869704D01*
X6892314Y9861258D01*
X6912586Y9872962D01*
X6929138Y9889514D01*
X6940842Y9909786D01*
X6946900Y9932396D01*
Y9948953D01*
X7357110D01*
Y9935500D01*
X7550150D01*
Y9940810D01*
Y10005810D01*
Y10070810D01*
Y10164790D01*
X7412047D01*
X7211400Y10365437D01*
Y10379204D01*
X7206696Y10396759D01*
X7575391Y10765453D01*
X7818120D01*
Y10733610D01*
X7957820D01*
Y10818624D01*
X7958886Y10820219D01*
X7960858Y10830130D01*
Y10883470D01*
X7958886Y10893381D01*
X7957820Y10894976D01*
Y10979990D01*
X7926817D01*
Y11031510D01*
X7984490D01*
Y11104653D01*
X8220609D01*
X8272404Y11052859D01*
X8267700Y11035304D01*
Y11011896D01*
X8273758Y10989286D01*
X8285462Y10969014D01*
X8302014Y10952462D01*
X8322286Y10940758D01*
X8344896Y10934700D01*
X8368304D01*
X8390914Y10940758D01*
X8411186Y10952462D01*
X8427738Y10969014D01*
X8436767Y10984653D01*
X8834024D01*
X8835666Y10981808D01*
X8840069Y10977406D01*
X8845570Y10961000D01*
X8840069Y10944594D01*
X8835666Y10940191D01*
X8826727Y10924708D01*
X8823108Y10911200D01*
X8890000D01*
X8956892D01*
X8953273Y10924708D01*
X8944334Y10940191D01*
X8939931Y10944594D01*
X8934430Y10961000D01*
X8939931Y10977406D01*
X8944334Y10981808D01*
X8953273Y10997291D01*
X8957900Y11014561D01*
Y11032439D01*
X8953273Y11049708D01*
X8944334Y11065191D01*
X8939931Y11069594D01*
X8934430Y11086000D01*
X8939931Y11102406D01*
X8944334Y11106808D01*
X8953273Y11122291D01*
X8957900Y11139561D01*
Y11157439D01*
X8953273Y11174708D01*
X8950102Y11180200D01*
X8957900Y11205600D01*
X8957900D01*
Y11341400D01*
X8822100D01*
Y11312346D01*
X7984490D01*
Y11320490D01*
X7791450D01*
Y11226510D01*
Y11161510D01*
Y11096510D01*
Y11031510D01*
X7849123D01*
Y10979990D01*
X7818120D01*
Y10948147D01*
X6816263D01*
X6816116Y10948692D01*
X6804413Y10968964D01*
X6787861Y10985516D01*
X6767589Y10997220D01*
X6744979Y11003278D01*
X6721571D01*
X6698961Y10997220D01*
X6678689Y10985516D01*
X6662137Y10968964D01*
X6655547Y10957549D01*
X6630147Y10964355D01*
Y11109109D01*
X6690691Y11169654D01*
X6768211D01*
X6781012Y11144254D01*
X6775158Y11134114D01*
X6769100Y11111504D01*
Y11088096D01*
X6775158Y11065486D01*
X6786862Y11045214D01*
X6803414Y11028662D01*
X6823686Y11016958D01*
X6846296Y11010900D01*
X6869704D01*
X6892314Y11016958D01*
X6912586Y11028662D01*
X6929138Y11045214D01*
X6940842Y11065486D01*
X6946900Y11088096D01*
Y11104653D01*
X7357110D01*
Y11091200D01*
X7550150D01*
Y11096510D01*
Y11161510D01*
Y11226510D01*
Y11320490D01*
X7357110D01*
Y11312346D01*
X7161347D01*
Y11383875D01*
X7177086Y11392962D01*
X7193638Y11409514D01*
X7205342Y11429786D01*
X7211400Y11452396D01*
Y11475804D01*
X7205342Y11498414D01*
X7193638Y11518686D01*
X7177086Y11535238D01*
X7156814Y11546942D01*
X7134204Y11553000D01*
X7110796D01*
X7088186Y11546942D01*
X7067914Y11535238D01*
X7051362Y11518686D01*
X7039659Y11498414D01*
X7033600Y11475804D01*
Y11452396D01*
X7039659Y11429786D01*
X7051362Y11409514D01*
X7067914Y11392962D01*
X7083654Y11383875D01*
Y11312346D01*
X6411900D01*
X6397034Y11309389D01*
X6384431Y11300969D01*
X6184009Y11100547D01*
X5871346D01*
Y12220000D01*
X5868389Y12234866D01*
X5859968Y12247469D01*
X5744969Y12362469D01*
X5732366Y12370889D01*
X5717500Y12373846D01*
D02*
G37*
G36*
X8956892Y10885800D02*
X8902700D01*
Y10831607D01*
X8916208Y10835227D01*
X8931692Y10844166D01*
X8944334Y10856808D01*
X8953273Y10872291D01*
X8956892Y10885800D01*
D02*
G37*
G36*
X8877300D02*
X8823108D01*
X8826727Y10872291D01*
X8835666Y10856808D01*
X8848308Y10844166D01*
X8863792Y10835227D01*
X8877300Y10831607D01*
Y10885800D01*
D02*
G37*
G36*
X5462500Y10893837D02*
X5332500D01*
X5310206Y10890902D01*
X5289432Y10882296D01*
X5271592Y10868608D01*
X5257903Y10850768D01*
X5249298Y10829994D01*
X5246363Y10807700D01*
X5249298Y10785406D01*
X5257903Y10764632D01*
X5271592Y10746792D01*
X5289432Y10733104D01*
X5310206Y10724498D01*
X5332500Y10721563D01*
X5462500D01*
X5484794Y10724498D01*
X5505568Y10733104D01*
X5523408Y10746792D01*
X5537097Y10764632D01*
X5545702Y10785406D01*
X5548637Y10807700D01*
X5545702Y10829994D01*
X5537097Y10850768D01*
X5523408Y10868608D01*
X5505568Y10882296D01*
X5484794Y10890902D01*
X5462500Y10893837D01*
D02*
G37*
G36*
Y10639837D02*
X5332500D01*
X5310206Y10636902D01*
X5289432Y10628296D01*
X5271592Y10614608D01*
X5257903Y10596768D01*
X5249298Y10575994D01*
X5246363Y10553700D01*
X5249298Y10531406D01*
X5257903Y10510632D01*
X5271592Y10492792D01*
X5289432Y10479104D01*
X5310206Y10470498D01*
X5332500Y10467563D01*
X5462500D01*
X5484794Y10470498D01*
X5505568Y10479104D01*
X5523408Y10492792D01*
X5537097Y10510632D01*
X5545702Y10531406D01*
X5548637Y10553700D01*
X5545702Y10575994D01*
X5537097Y10596768D01*
X5523408Y10614608D01*
X5505568Y10628296D01*
X5484794Y10636902D01*
X5462500Y10639837D01*
D02*
G37*
G36*
Y10385837D02*
X5410200D01*
Y10312400D01*
X5546965D01*
X5545702Y10321994D01*
X5537097Y10342768D01*
X5523408Y10360608D01*
X5505568Y10374296D01*
X5484794Y10382902D01*
X5462500Y10385837D01*
D02*
G37*
G36*
X5384800D02*
X5332500D01*
X5310206Y10382902D01*
X5289432Y10374296D01*
X5271592Y10360608D01*
X5257903Y10342768D01*
X5249298Y10321994D01*
X5248035Y10312400D01*
X5384800D01*
Y10385837D01*
D02*
G37*
G36*
X3684500D02*
X3632200D01*
Y10312400D01*
X3768965D01*
X3767702Y10321994D01*
X3759097Y10342768D01*
X3745408Y10360608D01*
X3727568Y10374296D01*
X3706794Y10382902D01*
X3684500Y10385837D01*
D02*
G37*
G36*
X3606800D02*
X3554500D01*
X3532206Y10382902D01*
X3511432Y10374296D01*
X3493592Y10360608D01*
X3479903Y10342768D01*
X3471298Y10321994D01*
X3470035Y10312400D01*
X3606800D01*
Y10385837D01*
D02*
G37*
G36*
X5546965Y10287000D02*
X5410200D01*
Y10213563D01*
X5462500D01*
X5484794Y10216498D01*
X5505568Y10225104D01*
X5523408Y10238792D01*
X5537097Y10256632D01*
X5545702Y10277406D01*
X5546965Y10287000D01*
D02*
G37*
G36*
X5384800D02*
X5248035D01*
X5249298Y10277406D01*
X5257903Y10256632D01*
X5271592Y10238792D01*
X5289432Y10225104D01*
X5310206Y10216498D01*
X5332500Y10213563D01*
X5384800D01*
Y10287000D01*
D02*
G37*
G36*
X3768965D02*
X3632200D01*
Y10213563D01*
X3684500D01*
X3706794Y10216498D01*
X3727568Y10225104D01*
X3745408Y10238792D01*
X3759097Y10256632D01*
X3767702Y10277406D01*
X3768965Y10287000D01*
D02*
G37*
G36*
X3606800D02*
X3470035D01*
X3471298Y10277406D01*
X3479903Y10256632D01*
X3493592Y10238792D01*
X3511432Y10225104D01*
X3532206Y10216498D01*
X3554500Y10213563D01*
X3606800D01*
Y10287000D01*
D02*
G37*
G36*
X5462500Y10131837D02*
X5332500D01*
X5310206Y10128902D01*
X5289432Y10120296D01*
X5271592Y10106608D01*
X5257903Y10088768D01*
X5249298Y10067994D01*
X5246363Y10045700D01*
X5249298Y10023406D01*
X5257903Y10002632D01*
X5271592Y9984792D01*
X5289432Y9971104D01*
X5310206Y9962498D01*
X5332500Y9959563D01*
X5462500D01*
X5484794Y9962498D01*
X5505568Y9971104D01*
X5523408Y9984792D01*
X5537097Y10002632D01*
X5545702Y10023406D01*
X5548637Y10045700D01*
X5545702Y10067994D01*
X5537097Y10088768D01*
X5523408Y10106608D01*
X5505568Y10120296D01*
X5484794Y10128902D01*
X5462500Y10131837D01*
D02*
G37*
G36*
X3684500D02*
X3554500D01*
X3532206Y10128902D01*
X3511432Y10120296D01*
X3493592Y10106608D01*
X3479903Y10088768D01*
X3471298Y10067994D01*
X3468363Y10045700D01*
X3471298Y10023406D01*
X3479903Y10002632D01*
X3493592Y9984792D01*
X3511432Y9971104D01*
X3532206Y9962498D01*
X3554500Y9959563D01*
X3684500D01*
X3706794Y9962498D01*
X3727568Y9971104D01*
X3745408Y9984792D01*
X3759097Y10002632D01*
X3767702Y10023406D01*
X3770637Y10045700D01*
X3767702Y10067994D01*
X3759097Y10088768D01*
X3745408Y10106608D01*
X3727568Y10120296D01*
X3706794Y10128902D01*
X3684500Y10131837D01*
D02*
G37*
G36*
X7550150Y9910100D02*
X7466330D01*
Y9875810D01*
X7550150D01*
Y9910100D01*
D02*
G37*
G36*
X7440930D02*
X7357110D01*
Y9875810D01*
X7440930D01*
Y9910100D01*
D02*
G37*
G36*
X5462500Y9877837D02*
X5332500D01*
X5310206Y9874902D01*
X5289432Y9866296D01*
X5271592Y9852608D01*
X5257903Y9834768D01*
X5249298Y9813994D01*
X5246363Y9791700D01*
X5249298Y9769406D01*
X5257903Y9748632D01*
X5271592Y9730792D01*
X5289432Y9717104D01*
X5310206Y9708498D01*
X5332500Y9705563D01*
X5462500D01*
X5484794Y9708498D01*
X5505568Y9717104D01*
X5523408Y9730792D01*
X5537097Y9748632D01*
X5545702Y9769406D01*
X5548637Y9791700D01*
X5545702Y9813994D01*
X5537097Y9834768D01*
X5523408Y9852608D01*
X5505568Y9866296D01*
X5484794Y9874902D01*
X5462500Y9877837D01*
D02*
G37*
G36*
X3684500D02*
X3554500D01*
X3532206Y9874902D01*
X3511432Y9866296D01*
X3493592Y9852608D01*
X3479903Y9834768D01*
X3471298Y9813994D01*
X3468363Y9791700D01*
X3471298Y9769406D01*
X3479903Y9748632D01*
X3493592Y9730792D01*
X3511432Y9717104D01*
X3532206Y9708498D01*
X3554500Y9705563D01*
X3684500D01*
X3706794Y9708498D01*
X3727568Y9717104D01*
X3745408Y9730792D01*
X3759097Y9748632D01*
X3767702Y9769406D01*
X3770637Y9791700D01*
X3767702Y9813994D01*
X3759097Y9834768D01*
X3745408Y9852608D01*
X3727568Y9866296D01*
X3706794Y9874902D01*
X3684500Y9877837D01*
D02*
G37*
G36*
X8956892Y9730100D02*
X8902700D01*
Y9675907D01*
X8916208Y9679527D01*
X8931692Y9688466D01*
X8944334Y9701108D01*
X8953273Y9716591D01*
X8956892Y9730100D01*
D02*
G37*
G36*
X8877300D02*
X8823108D01*
X8826727Y9716591D01*
X8835666Y9701108D01*
X8848308Y9688466D01*
X8863792Y9679527D01*
X8877300Y9675907D01*
Y9730100D01*
D02*
G37*
G36*
X5462500Y9623837D02*
X5332500D01*
X5310206Y9620902D01*
X5289432Y9612296D01*
X5271592Y9598608D01*
X5257903Y9580768D01*
X5249298Y9559994D01*
X5246363Y9537700D01*
X5249298Y9515406D01*
X5257903Y9494632D01*
X5271592Y9476792D01*
X5289432Y9463104D01*
X5310206Y9454498D01*
X5332500Y9451563D01*
X5462500D01*
X5484794Y9454498D01*
X5505568Y9463104D01*
X5523408Y9476792D01*
X5537097Y9494632D01*
X5545702Y9515406D01*
X5548637Y9537700D01*
X5545702Y9559994D01*
X5537097Y9580768D01*
X5523408Y9598608D01*
X5505568Y9612296D01*
X5484794Y9620902D01*
X5462500Y9623837D01*
D02*
G37*
G36*
X3684500D02*
X3554500D01*
X3532206Y9620902D01*
X3511432Y9612296D01*
X3493592Y9598608D01*
X3479903Y9580768D01*
X3471298Y9559994D01*
X3468363Y9537700D01*
X3471298Y9515406D01*
X3479903Y9494632D01*
X3493592Y9476792D01*
X3511432Y9463104D01*
X3532206Y9454498D01*
X3554500Y9451563D01*
X3684500D01*
X3706794Y9454498D01*
X3727568Y9463104D01*
X3745408Y9476792D01*
X3759097Y9494632D01*
X3767702Y9515406D01*
X3770637Y9537700D01*
X3767702Y9559994D01*
X3759097Y9580768D01*
X3745408Y9598608D01*
X3727568Y9612296D01*
X3706794Y9620902D01*
X3684500Y9623837D01*
D02*
G37*
G36*
X5462500Y9369837D02*
X5332500D01*
X5310206Y9366902D01*
X5289432Y9358296D01*
X5271592Y9344608D01*
X5257903Y9326768D01*
X5249298Y9305994D01*
X5246363Y9283700D01*
X5249298Y9261406D01*
X5257903Y9240632D01*
X5271592Y9222792D01*
X5289432Y9209104D01*
X5310206Y9200498D01*
X5332500Y9197563D01*
X5462500D01*
X5484794Y9200498D01*
X5505568Y9209104D01*
X5523408Y9222792D01*
X5537097Y9240632D01*
X5545702Y9261406D01*
X5548637Y9283700D01*
X5545702Y9305994D01*
X5537097Y9326768D01*
X5523408Y9344608D01*
X5505568Y9358296D01*
X5484794Y9366902D01*
X5462500Y9369837D01*
D02*
G37*
G36*
X3684500D02*
X3554500D01*
X3532206Y9366902D01*
X3511432Y9358296D01*
X3493592Y9344608D01*
X3479903Y9326768D01*
X3471298Y9305994D01*
X3468363Y9283700D01*
X3471298Y9261406D01*
X3479903Y9240632D01*
X3493592Y9222792D01*
X3511432Y9209104D01*
X3532206Y9200498D01*
X3554500Y9197563D01*
X3684500D01*
X3706794Y9200498D01*
X3727568Y9209104D01*
X3745408Y9222792D01*
X3759097Y9240632D01*
X3767702Y9261406D01*
X3770637Y9283700D01*
X3767702Y9305994D01*
X3759097Y9326768D01*
X3745408Y9344608D01*
X3727568Y9358296D01*
X3706794Y9366902D01*
X3684500Y9369837D01*
D02*
G37*
G36*
X8957900Y9080800D02*
X8822100D01*
Y9051746D01*
X7984490D01*
Y9059890D01*
X7791450D01*
Y8965910D01*
Y8900910D01*
Y8835910D01*
Y8770910D01*
X7849123D01*
Y8719390D01*
X7818120D01*
Y8690697D01*
X7062044D01*
X7051138Y8709586D01*
X7034586Y8726138D01*
X7014314Y8737842D01*
X6991704Y8743900D01*
X6968296D01*
X6945686Y8737842D01*
X6925414Y8726138D01*
X6908862Y8709586D01*
X6897158Y8689314D01*
X6891100Y8666704D01*
Y8643296D01*
X6897158Y8620686D01*
X6908862Y8600414D01*
X6925414Y8583862D01*
X6945686Y8572158D01*
X6968296Y8566100D01*
X6991704D01*
X7014314Y8572158D01*
X7034586Y8583862D01*
X7051138Y8600414D01*
X7055635Y8608204D01*
X7068306Y8608193D01*
X7074334Y8590011D01*
X7074229Y8582284D01*
X7067914Y8578638D01*
X7051362Y8562086D01*
X7039659Y8541814D01*
X7033600Y8519204D01*
Y8495796D01*
X7039659Y8473186D01*
X7051362Y8452914D01*
X7067914Y8436362D01*
X7088186Y8424658D01*
X7110796Y8418600D01*
X7134204D01*
X7156814Y8424658D01*
X7177086Y8436362D01*
X7193638Y8452914D01*
X7205342Y8473186D01*
X7211400Y8495796D01*
Y8504853D01*
X7678549D01*
X8272650Y7910753D01*
Y7880676D01*
X8271584Y7879081D01*
X8269612Y7869170D01*
Y7815830D01*
X8271584Y7805919D01*
X8272650Y7804323D01*
Y7719310D01*
X8303653D01*
Y7669547D01*
X8160391D01*
X7534769Y8295169D01*
X7522166Y8303589D01*
X7507300Y8306547D01*
X5538845D01*
X5537097Y8310768D01*
X5523408Y8328608D01*
X5505568Y8342296D01*
X5484794Y8350902D01*
X5462500Y8353837D01*
X5332500D01*
X5310206Y8350902D01*
X5289432Y8342296D01*
X5271592Y8328608D01*
X5257903Y8310768D01*
X5249298Y8289994D01*
X5246363Y8267700D01*
X5249298Y8245406D01*
X5257903Y8224632D01*
X5271592Y8206792D01*
X5289432Y8193104D01*
X5310206Y8184498D01*
X5332500Y8181563D01*
X5462500D01*
X5484794Y8184498D01*
X5505568Y8193104D01*
X5523408Y8206792D01*
X5537097Y8224632D01*
X5538845Y8228853D01*
X7491210D01*
X8116831Y7603231D01*
X8129434Y7594811D01*
X8144300Y7591853D01*
X8922924D01*
X8924566Y7589008D01*
X8928969Y7584606D01*
X8934470Y7568200D01*
X8928969Y7551794D01*
X8924566Y7547392D01*
X8915627Y7531908D01*
X8911000Y7514639D01*
Y7496761D01*
X8915627Y7479492D01*
X8924566Y7464008D01*
X8928969Y7459606D01*
X8934470Y7443200D01*
X8928969Y7426794D01*
X8924566Y7422392D01*
X8915627Y7406908D01*
X8911000Y7389639D01*
Y7371761D01*
X8915627Y7354492D01*
X8924566Y7339008D01*
X8928969Y7334606D01*
X8934470Y7318200D01*
X8928969Y7301794D01*
X8924566Y7297392D01*
X8922924Y7294546D01*
X8330591D01*
X7583969Y8041169D01*
X7571366Y8049589D01*
X7556500Y8052547D01*
X5538845D01*
X5537097Y8056768D01*
X5523408Y8074608D01*
X5505568Y8088296D01*
X5484794Y8096902D01*
X5462500Y8099837D01*
X5332500D01*
X5310206Y8096902D01*
X5289432Y8088296D01*
X5271592Y8074608D01*
X5257903Y8056768D01*
X5249298Y8035994D01*
X5246363Y8013700D01*
X5249298Y7991406D01*
X5257903Y7970632D01*
X5271592Y7952792D01*
X5289432Y7939104D01*
X5310206Y7930498D01*
X5332500Y7927563D01*
X5462500D01*
X5484794Y7930498D01*
X5505568Y7939104D01*
X5523408Y7952792D01*
X5537097Y7970632D01*
X5538845Y7974853D01*
X7540409D01*
X8287031Y7228231D01*
X8299634Y7219811D01*
X8314500Y7216853D01*
X8343654D01*
Y7113190D01*
X8312650D01*
Y7028176D01*
X8311584Y7026581D01*
X8309613Y7016670D01*
Y6964076D01*
X7883361D01*
X7204196Y7643241D01*
X7208900Y7660796D01*
Y7684204D01*
X7202842Y7706814D01*
X7191138Y7727086D01*
X7174586Y7743638D01*
X7154314Y7755342D01*
X7131704Y7761400D01*
X7108296D01*
X7085686Y7755342D01*
X7065414Y7743638D01*
X7048862Y7727086D01*
X7037158Y7706814D01*
X7031100Y7684204D01*
Y7660796D01*
X7037158Y7638186D01*
X7048862Y7617914D01*
X7065414Y7601362D01*
X7085686Y7589658D01*
X7108296Y7583600D01*
X7131704D01*
X7149259Y7588304D01*
X7839801Y6897761D01*
X7852404Y6889341D01*
X7867270Y6886383D01*
X8312650D01*
Y6866810D01*
X8452350D01*
Y6951824D01*
X8453416Y6953419D01*
X8455388Y6963330D01*
Y7016670D01*
X8453416Y7026581D01*
X8452350Y7028176D01*
Y7113190D01*
X8421347D01*
Y7216853D01*
X8922924D01*
X8924566Y7214008D01*
X8928969Y7209606D01*
X8934470Y7193200D01*
X8928969Y7176794D01*
X8924566Y7172392D01*
X8915627Y7156908D01*
X8911000Y7139639D01*
Y7121761D01*
X8915627Y7104492D01*
X8918798Y7099000D01*
X8911000Y7073600D01*
X8911000D01*
Y6937800D01*
X9046800D01*
Y7073600D01*
X9046800Y7073600D01*
X9039002Y7099000D01*
X9042173Y7104492D01*
X9046800Y7121761D01*
Y7139639D01*
X9042173Y7156908D01*
X9033234Y7172392D01*
X9028831Y7176794D01*
X9023330Y7193200D01*
X9028831Y7209606D01*
X9033234Y7214008D01*
X9042173Y7229492D01*
X9046800Y7246761D01*
Y7264639D01*
X9042173Y7281908D01*
X9033234Y7297392D01*
X9028831Y7301794D01*
X9023330Y7318200D01*
X9028831Y7334606D01*
X9033234Y7339008D01*
X9042173Y7354492D01*
X9046800Y7371761D01*
Y7389639D01*
X9042173Y7406908D01*
X9033234Y7422392D01*
X9028831Y7426794D01*
X9023330Y7443200D01*
X9028831Y7459606D01*
X9033234Y7464008D01*
X9042173Y7479492D01*
X9046800Y7496761D01*
Y7514639D01*
X9042173Y7531908D01*
X9033234Y7547392D01*
X9028831Y7551794D01*
X9023330Y7568200D01*
X9028831Y7584606D01*
X9033234Y7589008D01*
X9042173Y7604492D01*
X9046800Y7621761D01*
Y7639639D01*
X9042173Y7656908D01*
X9033234Y7672392D01*
X9028831Y7676794D01*
X9023330Y7693200D01*
X9028831Y7709606D01*
X9033234Y7714008D01*
X9042173Y7729492D01*
X9045792Y7743000D01*
X8978900D01*
X8912008D01*
X8915627Y7729492D01*
X8924566Y7714008D01*
X8928969Y7709606D01*
X8934470Y7693200D01*
X8928969Y7676794D01*
X8924566Y7672392D01*
X8922924Y7669547D01*
X8381346D01*
Y7719310D01*
X8412350D01*
Y7804323D01*
X8413416Y7805919D01*
X8415388Y7815830D01*
Y7869170D01*
X8413416Y7879081D01*
X8412350Y7880676D01*
Y7965690D01*
X8327587D01*
X7843734Y8449543D01*
X7853454Y8473010D01*
X7957820D01*
Y8558024D01*
X7958886Y8559619D01*
X7960858Y8569530D01*
Y8622870D01*
X7958886Y8632781D01*
X7957820Y8634376D01*
Y8719390D01*
X7926817D01*
Y8770910D01*
X7984490D01*
Y8844053D01*
X8220609D01*
X8272404Y8792259D01*
X8267700Y8774704D01*
Y8751296D01*
X8273758Y8728686D01*
X8285462Y8708414D01*
X8302014Y8691862D01*
X8322286Y8680158D01*
X8344896Y8674100D01*
X8368304D01*
X8390914Y8680158D01*
X8411186Y8691862D01*
X8427738Y8708414D01*
X8436767Y8724053D01*
X8834024D01*
X8835666Y8721208D01*
X8840069Y8716806D01*
X8845570Y8700400D01*
X8840069Y8683994D01*
X8835666Y8679591D01*
X8826727Y8664108D01*
X8823108Y8650600D01*
X8890000D01*
X8956892D01*
X8953273Y8664108D01*
X8944334Y8679591D01*
X8939931Y8683994D01*
X8934430Y8700400D01*
X8939931Y8716806D01*
X8944334Y8721208D01*
X8953273Y8736691D01*
X8957900Y8753961D01*
Y8771839D01*
X8953273Y8789108D01*
X8944334Y8804591D01*
X8939931Y8808994D01*
X8934430Y8825400D01*
X8939931Y8841806D01*
X8944334Y8846208D01*
X8953273Y8861691D01*
X8957900Y8878961D01*
Y8896839D01*
X8953273Y8914108D01*
X8950102Y8919600D01*
X8957900Y8945000D01*
X8957900D01*
Y9080800D01*
D02*
G37*
G36*
X5462500Y9115837D02*
X5410200D01*
Y9042400D01*
X5546965D01*
X5545702Y9051994D01*
X5537097Y9072768D01*
X5523408Y9090608D01*
X5505568Y9104296D01*
X5484794Y9112902D01*
X5462500Y9115837D01*
D02*
G37*
G36*
X5384800D02*
X5332500D01*
X5310206Y9112902D01*
X5289432Y9104296D01*
X5271592Y9090608D01*
X5257903Y9072768D01*
X5249298Y9051994D01*
X5248035Y9042400D01*
X5384800D01*
Y9115837D01*
D02*
G37*
G36*
X3684500D02*
X3632200D01*
Y9042400D01*
X3768965D01*
X3767702Y9051994D01*
X3759097Y9072768D01*
X3745408Y9090608D01*
X3727568Y9104296D01*
X3706794Y9112902D01*
X3684500Y9115837D01*
D02*
G37*
G36*
X3606800D02*
X3554500D01*
X3532206Y9112902D01*
X3511432Y9104296D01*
X3493592Y9090608D01*
X3479903Y9072768D01*
X3471298Y9051994D01*
X3470035Y9042400D01*
X3606800D01*
Y9115837D01*
D02*
G37*
G36*
X5546965Y9017000D02*
X5410200D01*
Y8943563D01*
X5462500D01*
X5484794Y8946498D01*
X5505568Y8955104D01*
X5523408Y8968792D01*
X5537097Y8986632D01*
X5545702Y9007406D01*
X5546965Y9017000D01*
D02*
G37*
G36*
X5384800D02*
X5248035D01*
X5249298Y9007406D01*
X5257903Y8986632D01*
X5271592Y8968792D01*
X5289432Y8955104D01*
X5310206Y8946498D01*
X5332500Y8943563D01*
X5384800D01*
Y9017000D01*
D02*
G37*
G36*
X3768965D02*
X3632200D01*
Y8943563D01*
X3684500D01*
X3706794Y8946498D01*
X3727568Y8955104D01*
X3745408Y8968792D01*
X3759097Y8986632D01*
X3767702Y9007406D01*
X3768965Y9017000D01*
D02*
G37*
G36*
X3606800D02*
X3470035D01*
X3471298Y9007406D01*
X3479903Y8986632D01*
X3493592Y8968792D01*
X3511432Y8955104D01*
X3532206Y8946498D01*
X3554500Y8943563D01*
X3606800D01*
Y9017000D01*
D02*
G37*
G36*
X7550150Y8805200D02*
X7466330D01*
Y8770910D01*
X7550150D01*
Y8805200D01*
D02*
G37*
G36*
X7440930D02*
X7357110D01*
Y8770910D01*
X7440930D01*
Y8805200D01*
D02*
G37*
G36*
X3684500Y8861837D02*
X3554500D01*
X3532206Y8858902D01*
X3511432Y8850296D01*
X3493592Y8836608D01*
X3479903Y8818768D01*
X3471298Y8797994D01*
X3468363Y8775700D01*
X3471298Y8753406D01*
X3479903Y8732632D01*
X3493592Y8714792D01*
X3511432Y8701104D01*
X3532206Y8692498D01*
X3554500Y8689563D01*
X3684500D01*
X3706794Y8692498D01*
X3727568Y8701104D01*
X3745408Y8714792D01*
X3759097Y8732632D01*
X3767702Y8753406D01*
X3770637Y8775700D01*
X3767702Y8797994D01*
X3759097Y8818768D01*
X3745408Y8836608D01*
X3727568Y8850296D01*
X3706794Y8858902D01*
X3684500Y8861837D01*
D02*
G37*
G36*
X8956892Y8625200D02*
X8902700D01*
Y8571007D01*
X8916208Y8574627D01*
X8931692Y8583566D01*
X8944334Y8596208D01*
X8953273Y8611691D01*
X8956892Y8625200D01*
D02*
G37*
G36*
X8877300D02*
X8823108D01*
X8826727Y8611691D01*
X8835666Y8596208D01*
X8848308Y8583566D01*
X8863792Y8574627D01*
X8877300Y8571007D01*
Y8625200D01*
D02*
G37*
G36*
X3684500Y8607837D02*
X3554500D01*
X3532206Y8604902D01*
X3511432Y8596296D01*
X3493592Y8582608D01*
X3479903Y8564768D01*
X3471298Y8543994D01*
X3468363Y8521700D01*
X3471298Y8499406D01*
X3479903Y8478632D01*
X3493592Y8460792D01*
X3511432Y8447104D01*
X3532206Y8438498D01*
X3554500Y8435563D01*
X3684500D01*
X3706794Y8438498D01*
X3727568Y8447104D01*
X3745408Y8460792D01*
X3759097Y8478632D01*
X3767702Y8499406D01*
X3770637Y8521700D01*
X3767702Y8543994D01*
X3759097Y8564768D01*
X3745408Y8582608D01*
X3727568Y8596296D01*
X3706794Y8604902D01*
X3684500Y8607837D01*
D02*
G37*
G36*
Y8353837D02*
X3554500D01*
X3532206Y8350902D01*
X3511432Y8342296D01*
X3493592Y8328608D01*
X3479903Y8310768D01*
X3471298Y8289994D01*
X3468363Y8267700D01*
X3471298Y8245406D01*
X3479903Y8224632D01*
X3493592Y8206792D01*
X3511432Y8193104D01*
X3532206Y8184498D01*
X3554500Y8181563D01*
X3684500D01*
X3706794Y8184498D01*
X3727568Y8193104D01*
X3745408Y8206792D01*
X3759097Y8224632D01*
X3767702Y8245406D01*
X3770637Y8267700D01*
X3767702Y8289994D01*
X3759097Y8310768D01*
X3745408Y8328608D01*
X3727568Y8342296D01*
X3706794Y8350902D01*
X3684500Y8353837D01*
D02*
G37*
G36*
Y8099837D02*
X3554500D01*
X3532206Y8096902D01*
X3511432Y8088296D01*
X3493592Y8074608D01*
X3479903Y8056768D01*
X3471298Y8035994D01*
X3468363Y8013700D01*
X3471298Y7991406D01*
X3479903Y7970632D01*
X3493592Y7952792D01*
X3511432Y7939104D01*
X3532206Y7930498D01*
X3554500Y7927563D01*
X3684500D01*
X3706794Y7930498D01*
X3727568Y7939104D01*
X3745408Y7952792D01*
X3759097Y7970632D01*
X3767702Y7991406D01*
X3770637Y8013700D01*
X3767702Y8035994D01*
X3759097Y8056768D01*
X3745408Y8074608D01*
X3727568Y8088296D01*
X3706794Y8096902D01*
X3684500Y8099837D01*
D02*
G37*
G36*
X5462500Y7845837D02*
X5410200D01*
Y7772400D01*
X5546965D01*
X5545702Y7781994D01*
X5537097Y7802768D01*
X5523408Y7820608D01*
X5505568Y7834296D01*
X5484794Y7842902D01*
X5462500Y7845837D01*
D02*
G37*
G36*
X5384800D02*
X5332500D01*
X5310206Y7842902D01*
X5289432Y7834296D01*
X5271592Y7820608D01*
X5257903Y7802768D01*
X5249298Y7781994D01*
X5248035Y7772400D01*
X5384800D01*
Y7845837D01*
D02*
G37*
G36*
X3684500D02*
X3632200D01*
Y7772400D01*
X3768965D01*
X3767702Y7781994D01*
X3759097Y7802768D01*
X3745408Y7820608D01*
X3727568Y7834296D01*
X3706794Y7842902D01*
X3684500Y7845837D01*
D02*
G37*
G36*
X3606800D02*
X3554500D01*
X3532206Y7842902D01*
X3511432Y7834296D01*
X3493592Y7820608D01*
X3479903Y7802768D01*
X3471298Y7781994D01*
X3470035Y7772400D01*
X3606800D01*
Y7845837D01*
D02*
G37*
G36*
X8987839Y7948600D02*
X8969961D01*
X8952692Y7943973D01*
X8937208Y7935034D01*
X8924566Y7922392D01*
X8915627Y7906908D01*
X8911000Y7889639D01*
Y7871761D01*
X8915627Y7854492D01*
X8924566Y7839008D01*
X8928969Y7834606D01*
X8934470Y7818200D01*
X8928969Y7801794D01*
X8924566Y7797392D01*
X8915627Y7781908D01*
X8912008Y7768400D01*
X8978900D01*
X9045792D01*
X9042173Y7781908D01*
X9033234Y7797392D01*
X9028831Y7801794D01*
X9023330Y7818200D01*
X9028831Y7834606D01*
X9033234Y7839008D01*
X9042173Y7854492D01*
X9046800Y7871761D01*
Y7889639D01*
X9042173Y7906908D01*
X9033234Y7922392D01*
X9020592Y7935034D01*
X9005108Y7943973D01*
X8987839Y7948600D01*
D02*
G37*
G36*
X5546965Y7747000D02*
X5410200D01*
Y7673563D01*
X5462500D01*
X5484794Y7676498D01*
X5505568Y7685104D01*
X5523408Y7698792D01*
X5537097Y7716632D01*
X5545702Y7737406D01*
X5546965Y7747000D01*
D02*
G37*
G36*
X5384800D02*
X5248035D01*
X5249298Y7737406D01*
X5257903Y7716632D01*
X5271592Y7698792D01*
X5289432Y7685104D01*
X5310206Y7676498D01*
X5332500Y7673563D01*
X5384800D01*
Y7747000D01*
D02*
G37*
G36*
X3768965D02*
X3632200D01*
Y7673563D01*
X3684500D01*
X3706794Y7676498D01*
X3727568Y7685104D01*
X3745408Y7698792D01*
X3759097Y7716632D01*
X3767702Y7737406D01*
X3768965Y7747000D01*
D02*
G37*
G36*
X3606800D02*
X3470035D01*
X3471298Y7737406D01*
X3479903Y7716632D01*
X3493592Y7698792D01*
X3511432Y7685104D01*
X3532206Y7676498D01*
X3554500Y7673563D01*
X3606800D01*
Y7747000D01*
D02*
G37*
G36*
X5462500Y7591837D02*
X5332500D01*
X5310206Y7588902D01*
X5289432Y7580296D01*
X5271592Y7566608D01*
X5257903Y7548768D01*
X5249298Y7527994D01*
X5246363Y7505700D01*
X5249298Y7483406D01*
X5257903Y7462632D01*
X5271592Y7444792D01*
X5289432Y7431104D01*
X5310206Y7422498D01*
X5332500Y7419563D01*
X5462500D01*
X5484794Y7422498D01*
X5505568Y7431104D01*
X5523408Y7444792D01*
X5537097Y7462632D01*
X5545702Y7483406D01*
X5548637Y7505700D01*
X5545702Y7527994D01*
X5537097Y7548768D01*
X5523408Y7566608D01*
X5505568Y7580296D01*
X5484794Y7588902D01*
X5462500Y7591837D01*
D02*
G37*
G36*
X3684500D02*
X3554500D01*
X3532206Y7588902D01*
X3511432Y7580296D01*
X3493592Y7566608D01*
X3479903Y7548768D01*
X3471298Y7527994D01*
X3468363Y7505700D01*
X3471298Y7483406D01*
X3479903Y7462632D01*
X3493592Y7444792D01*
X3511432Y7431104D01*
X3532206Y7422498D01*
X3554500Y7419563D01*
X3684500D01*
X3706794Y7422498D01*
X3727568Y7431104D01*
X3745408Y7444792D01*
X3759097Y7462632D01*
X3767702Y7483406D01*
X3770637Y7505700D01*
X3767702Y7527994D01*
X3759097Y7548768D01*
X3745408Y7566608D01*
X3727568Y7580296D01*
X3706794Y7588902D01*
X3684500Y7591837D01*
D02*
G37*
G36*
X5462500Y7337837D02*
X5332500D01*
X5310206Y7334902D01*
X5289432Y7326296D01*
X5271592Y7312608D01*
X5257903Y7294768D01*
X5249298Y7273994D01*
X5246363Y7251700D01*
X5249298Y7229406D01*
X5257903Y7208632D01*
X5271592Y7190792D01*
X5289432Y7177104D01*
X5310206Y7168498D01*
X5332500Y7165563D01*
X5462500D01*
X5484794Y7168498D01*
X5505568Y7177104D01*
X5523408Y7190792D01*
X5537097Y7208632D01*
X5545702Y7229406D01*
X5548637Y7251700D01*
X5545702Y7273994D01*
X5537097Y7294768D01*
X5523408Y7312608D01*
X5505568Y7326296D01*
X5484794Y7334902D01*
X5462500Y7337837D01*
D02*
G37*
G36*
X3684500D02*
X3554500D01*
X3532206Y7334902D01*
X3511432Y7326296D01*
X3493592Y7312608D01*
X3479903Y7294768D01*
X3471298Y7273994D01*
X3468363Y7251700D01*
X3471298Y7229406D01*
X3479903Y7208632D01*
X3493592Y7190792D01*
X3511432Y7177104D01*
X3532206Y7168498D01*
X3554500Y7165563D01*
X3684500D01*
X3706794Y7168498D01*
X3727568Y7177104D01*
X3745408Y7190792D01*
X3759097Y7208632D01*
X3767702Y7229406D01*
X3770637Y7251700D01*
X3767702Y7273994D01*
X3759097Y7294768D01*
X3745408Y7312608D01*
X3727568Y7326296D01*
X3706794Y7334902D01*
X3684500Y7337837D01*
D02*
G37*
G36*
X9730510Y6883400D02*
X9728200D01*
Y6743700D01*
X9867900D01*
Y6746010D01*
X9862043Y6775454D01*
X9850555Y6803189D01*
X9833877Y6828149D01*
X9812649Y6849377D01*
X9787689Y6866055D01*
X9759954Y6877543D01*
X9730510Y6883400D01*
D02*
G37*
G36*
X9702800D02*
X9700490D01*
X9671046Y6877543D01*
X9643311Y6866055D01*
X9618351Y6849377D01*
X9597123Y6828149D01*
X9580445Y6803189D01*
X9568957Y6775454D01*
X9563100Y6746010D01*
Y6743700D01*
X9702800D01*
Y6883400D01*
D02*
G37*
G36*
X1602510D02*
X1600200D01*
Y6743700D01*
X1739900D01*
Y6746010D01*
X1734043Y6775454D01*
X1722555Y6803189D01*
X1705877Y6828149D01*
X1684649Y6849377D01*
X1659689Y6866055D01*
X1631954Y6877543D01*
X1602510Y6883400D01*
D02*
G37*
G36*
X1574800D02*
X1572490D01*
X1543046Y6877543D01*
X1515311Y6866055D01*
X1490351Y6849377D01*
X1469123Y6828149D01*
X1452445Y6803189D01*
X1440957Y6775454D01*
X1435100Y6746010D01*
Y6743700D01*
X1574800D01*
Y6883400D01*
D02*
G37*
G36*
X9867900Y6718300D02*
X9728200D01*
Y6578600D01*
X9730510D01*
X9759954Y6584457D01*
X9787689Y6595945D01*
X9812649Y6612623D01*
X9833877Y6633851D01*
X9850555Y6658811D01*
X9862043Y6686546D01*
X9867900Y6715990D01*
Y6718300D01*
D02*
G37*
G36*
X9702800D02*
X9563100D01*
Y6715990D01*
X9568957Y6686546D01*
X9580445Y6658811D01*
X9597123Y6633851D01*
X9618351Y6612623D01*
X9643311Y6595945D01*
X9671046Y6584457D01*
X9700490Y6578600D01*
X9702800D01*
Y6718300D01*
D02*
G37*
G36*
X1739900D02*
X1600200D01*
Y6578600D01*
X1602510D01*
X1631954Y6584457D01*
X1659689Y6595945D01*
X1684649Y6612623D01*
X1705877Y6633851D01*
X1722555Y6658811D01*
X1734043Y6686546D01*
X1739900Y6715990D01*
Y6718300D01*
D02*
G37*
G36*
X1574800D02*
X1435100D01*
Y6715990D01*
X1440957Y6686546D01*
X1452445Y6658811D01*
X1469123Y6633851D01*
X1490351Y6612623D01*
X1515311Y6595945D01*
X1543046Y6584457D01*
X1572490Y6578600D01*
X1574800D01*
Y6718300D01*
D02*
G37*
%LPD*%
G36*
X8822100Y11205600D02*
X8822100D01*
X8817642Y11182046D01*
X8624265D01*
X8618238Y11192486D01*
X8601686Y11209038D01*
X8601312Y11209253D01*
X8608118Y11234653D01*
X8822100D01*
Y11205600D01*
D02*
G37*
G36*
X8458200Y11144370D02*
Y11126196D01*
X8464258Y11103586D01*
X8473403Y11087746D01*
X8468160Y11072374D01*
X8461009Y11062346D01*
X8436883D01*
X8427738Y11078186D01*
X8411186Y11094738D01*
X8390914Y11106442D01*
X8368304Y11112500D01*
X8344896D01*
X8327341Y11107796D01*
X8288950Y11146187D01*
X8298670Y11169654D01*
X8432917D01*
X8458200Y11144370D01*
D02*
G37*
G36*
X6662137Y10859792D02*
X6678689Y10843240D01*
X6698961Y10831536D01*
X6721571Y10825478D01*
X6744979D01*
X6767589Y10831536D01*
X6787861Y10843240D01*
X6804413Y10859792D01*
X6810568Y10870453D01*
X7815082D01*
Y10843146D01*
X7559300D01*
X7544434Y10840189D01*
X7531832Y10831769D01*
X7151759Y10451696D01*
X7134204Y10456400D01*
X7110796D01*
X7088186Y10450342D01*
X7067914Y10438638D01*
X7051362Y10422086D01*
X7039659Y10401814D01*
X7033600Y10379204D01*
Y10355796D01*
X7039659Y10333186D01*
X7051362Y10312914D01*
X7067914Y10296362D01*
X7088186Y10284658D01*
X7110796Y10278600D01*
X7134204D01*
X7156814Y10284658D01*
X7172974Y10293988D01*
X7349916Y10117047D01*
X7339742Y10091647D01*
X6630147D01*
Y10864401D01*
X6655547Y10871207D01*
X6662137Y10859792D01*
D02*
G37*
G36*
X8822100Y10049900D02*
X8812252Y10028579D01*
X8621089D01*
X8613772Y10041251D01*
X8601470Y10053553D01*
X8605627Y10071122D01*
X8610570Y10078953D01*
X8822100D01*
Y10049900D01*
D02*
G37*
G36*
X8453735Y9998369D02*
Y9974962D01*
X8459793Y9952351D01*
X8471497Y9932079D01*
X8471530Y9932046D01*
X8461009Y9906646D01*
X8436883D01*
X8427738Y9922486D01*
X8411186Y9939038D01*
X8390914Y9950742D01*
X8368304Y9956800D01*
X8344896D01*
X8327341Y9952096D01*
X8288950Y9990487D01*
X8298670Y10013954D01*
X8431843D01*
X8453735Y9998369D01*
D02*
G37*
G36*
X7815082Y9687446D02*
X7488600D01*
X7473734Y9684489D01*
X7461131Y9676069D01*
X7151759Y9366696D01*
X7134204Y9371400D01*
X7110796D01*
X7088186Y9365342D01*
X7067914Y9353638D01*
X7051362Y9337086D01*
X7039659Y9316814D01*
X7033600Y9294204D01*
Y9270796D01*
X7039659Y9248186D01*
X7051362Y9227914D01*
X7067914Y9211362D01*
X7088186Y9199659D01*
X7110796Y9193600D01*
X7134204D01*
X7156814Y9199659D01*
X7160358Y9201704D01*
X7349916Y9012147D01*
X7339742Y8986747D01*
X6630147D01*
Y9703279D01*
X6655547Y9710084D01*
X6660812Y9700964D01*
X6677364Y9684412D01*
X6697636Y9672708D01*
X6720246Y9666650D01*
X6743654D01*
X6766264Y9672708D01*
X6786536Y9684412D01*
X6803088Y9700964D01*
X6812175Y9716703D01*
X7815082D01*
Y9687446D01*
D02*
G37*
G36*
X8822100Y8945000D02*
X8812252Y8923679D01*
X8621089D01*
X8613772Y8936351D01*
X8601470Y8948653D01*
X8605627Y8966222D01*
X8610570Y8974053D01*
X8822100D01*
Y8945000D01*
D02*
G37*
G36*
X8453735Y8893469D02*
Y8870062D01*
X8459793Y8847451D01*
X8471497Y8827179D01*
X8471530Y8827146D01*
X8461009Y8801746D01*
X8436883D01*
X8427738Y8817586D01*
X8411186Y8834138D01*
X8390914Y8845842D01*
X8368304Y8851900D01*
X8344896D01*
X8327341Y8847196D01*
X8288950Y8885587D01*
X8298670Y8909054D01*
X8431843D01*
X8453735Y8893469D01*
D02*
G37*
G36*
X7815082Y8582546D02*
X7186193D01*
X7185513Y8582411D01*
X7179198Y8587604D01*
X7188301Y8613004D01*
X7815082D01*
Y8582546D01*
D02*
G37*
D10*
X7887970Y10792030D02*
D03*
Y10921570D02*
D03*
Y9636330D02*
D03*
Y9765870D02*
D03*
Y8531430D02*
D03*
Y8660970D02*
D03*
X2960000Y11945000D02*
D03*
Y12074540D02*
D03*
X8342500Y7777730D02*
D03*
Y7907270D02*
D03*
X8382500Y7054770D02*
D03*
Y6925230D02*
D03*
D11*
X7453630Y9012900D02*
D03*
Y8947900D02*
D03*
Y8882900D02*
D03*
Y8817900D02*
D03*
X7887970D02*
D03*
Y8882900D02*
D03*
Y8947900D02*
D03*
Y9012900D02*
D03*
X7453630Y10117800D02*
D03*
Y10052800D02*
D03*
Y9987800D02*
D03*
Y9922800D02*
D03*
X7887970D02*
D03*
Y9987800D02*
D03*
Y10052800D02*
D03*
Y10117800D02*
D03*
X7453630Y11273500D02*
D03*
Y11208500D02*
D03*
Y11143500D02*
D03*
Y11078500D02*
D03*
X7887970D02*
D03*
Y11143500D02*
D03*
Y11208500D02*
D03*
Y11273500D02*
D03*
D12*
X7122500Y9282500D02*
X7134500D01*
X7404100Y9012900D01*
X7453630D01*
X7122500Y11273500D02*
X7453630D01*
X7404100Y10117800D02*
X7466330D01*
X7173840Y10348060D02*
X7404100Y10117800D01*
X7141940Y10348060D02*
X7173840D01*
X7122500Y10367500D02*
X7141940Y10348060D01*
X7120000Y7672500D02*
X7867270Y6925230D01*
X8382500D01*
Y7054770D02*
Y7255700D01*
X8978900D01*
X7702500Y8535840D02*
Y8543700D01*
Y8535840D02*
X8331070Y7907270D01*
X8342500D01*
X7702500Y8543700D02*
X7887970D01*
X8342500Y7633200D02*
X8345000Y7630700D01*
X8342500Y7633200D02*
Y7777730D01*
X8345000Y7630700D02*
X8978900D01*
X2971430Y12074540D02*
X3231890Y12335000D01*
X5717500D02*
X5832500Y12220000D01*
X3231890Y12335000D02*
X5717500D01*
X5832500Y11066700D02*
Y12220000D01*
X5827500Y11061700D02*
X5832500Y11066700D01*
X2960000Y12074540D02*
X2971430D01*
X5827500Y11061700D02*
X6200100D01*
X2959100Y11807000D02*
X2960000Y11807900D01*
Y11945000D01*
X2959100Y11807000D02*
X3619500D01*
X6700700Y10909300D02*
X7887970D01*
X6697500Y10912500D02*
X6700700Y10909300D01*
X6591300Y9913100D02*
Y11125200D01*
X6674600Y11208500D01*
X6858000Y8772000D02*
Y8826500D01*
X6983150Y8651850D02*
X7884820D01*
X7887970Y8648700D01*
X6980000Y8655000D02*
X6983150Y8651850D01*
X7886020Y9755550D02*
X7887970Y9753600D01*
X6731950Y9755550D02*
X7886020D01*
X6591300Y8947900D02*
Y9913100D01*
X7887970Y9753600D02*
Y9922800D01*
X7488600Y9648600D02*
X7887970D01*
X7886570Y9650000D02*
X7887970Y9648600D01*
Y10909300D02*
Y11078500D01*
X7122500Y11273500D02*
Y11464100D01*
X7149993Y8507500D02*
X7186193Y8543700D01*
X7702500D01*
X7887970Y8648700D02*
Y8817900D01*
Y11078500D02*
X7896860Y11069610D01*
X7122500Y8507500D02*
X7149993D01*
X7122500Y9282500D02*
X7488600Y9648600D01*
X7122500Y10367500D02*
X7559300Y10804300D01*
X7887970D01*
X7887620Y10804650D02*
X7887970Y10804300D01*
X6591300Y10052800D02*
X7466330D01*
X6889360Y9963540D02*
X6899419D01*
X6923679Y9987800D02*
X7453630D01*
X6929279Y8882900D02*
X7453630D01*
X6879979Y11099800D02*
X6923679Y11143500D01*
X6899419Y9963540D02*
X6923679Y9987800D01*
Y11143500D02*
X7453630D01*
X6858000Y11099800D02*
X6879979D01*
X6858000Y8826500D02*
X6872879D01*
X6929279Y8882900D01*
X6674600Y11208500D02*
X7453630D01*
X6591300Y8947900D02*
X7453630D01*
X6411900Y11273500D02*
X7122500D01*
X6200100Y11061700D02*
X6411900Y11273500D01*
X8144300Y7630700D02*
X8345000D01*
X5397500Y8267700D02*
X7507300D01*
X8144300Y7630700D01*
X5397500Y11061700D02*
X5827500D01*
X7449530Y11074400D02*
X7453630Y11078500D01*
X2298700Y11807000D02*
X2959100D01*
X7556500Y8013700D02*
X8314500Y7255700D01*
X8382500D01*
X5397500Y8013700D02*
X7556500D01*
X7887970Y8882900D02*
X8236700D01*
X8356600Y8763000D01*
Y8762900D02*
X8890000D01*
X7887970Y8947900D02*
X8410516D01*
X8430655D01*
X8545702Y8884833D02*
X8884833D01*
X8430655Y8947900D02*
X8465085D01*
X8531220Y8881765D01*
X8542635D02*
X8545702Y8884833D01*
X8531220Y8881765D02*
X8542635D01*
X8531220Y9986665D02*
X8542635D01*
X8545702Y9989733D01*
X8884833D02*
X8888950Y9993850D01*
X8465085Y10052800D02*
X8531220Y9986665D01*
X8430655Y10052800D02*
X8465085D01*
X8545702Y9989733D02*
X8884833D01*
X8410516Y10052800D02*
X8430655D01*
X7887970D02*
X8410516D01*
X8356600Y9867800D02*
X8890000D01*
X8236700Y9987800D02*
X8356600Y9867900D01*
X7887970Y9987800D02*
X8236700D01*
X7887970Y11143500D02*
X8236700D01*
X8356600Y11023600D01*
Y11023500D02*
X8890000D01*
X7453630Y11078500D02*
X7454900Y11077230D01*
X7887970Y11273500D02*
X8890000D01*
X7887970Y9012900D02*
X8890000D01*
X7453630Y9922800D02*
X7454900Y9921530D01*
X7887970Y10117800D02*
X8890000D01*
X6553200Y8521700D02*
X6858000Y8826500D01*
X5397500Y8521700D02*
X6553200D01*
X6419100Y8775700D02*
X6591300Y8947900D01*
X5397500Y8775700D02*
X6419100D01*
D13*
X1854200Y10629900D02*
X1943101Y10540999D01*
X3619500Y10541000D01*
X1854200Y10629900D02*
Y11214100D01*
Y10629900D02*
Y10629900D01*
Y11214100D02*
X1947100Y11307000D01*
X2298700D01*
X3086100Y11315700D02*
X3619500D01*
X2298700Y11057000D02*
X2827400D01*
X3086100Y11315700D01*
X2006600Y10871200D02*
X2082800Y10795000D01*
X2006600Y11112500D02*
X2076100Y11182000D01*
X2006600Y10871200D02*
Y11112500D01*
X2082800Y10795000D02*
X3619500D01*
X2076100Y11182000D02*
X2298700D01*
X8547100Y11137900D02*
X8552400Y11143200D01*
X8884700D01*
X8449007Y11208500D02*
X8519607Y11137900D01*
X8547100D01*
X8884700Y11143200D02*
X8890000Y11148500D01*
X8410516Y11208500D02*
X8449007D01*
X7887970D02*
X8410516D01*
D14*
X8978900Y7005700D02*
D03*
X8890000Y9012900D02*
D03*
Y10117800D02*
D03*
Y11273500D02*
D03*
D15*
X8978900Y7130700D02*
D03*
Y7255700D02*
D03*
Y7380700D02*
D03*
Y7505700D02*
D03*
Y7630700D02*
D03*
Y7755700D02*
D03*
Y7880700D02*
D03*
X8890000Y8887900D02*
D03*
Y8762900D02*
D03*
Y8637900D02*
D03*
Y9992800D02*
D03*
Y9867800D02*
D03*
Y9742800D02*
D03*
Y11148500D02*
D03*
Y11023500D02*
D03*
Y10898500D02*
D03*
D16*
X2298700Y11182000D02*
D03*
Y11307000D02*
D03*
Y11432000D02*
D03*
Y11557000D02*
D03*
Y11682000D02*
D03*
Y11807000D02*
D03*
Y11057000D02*
D03*
D17*
X5397500Y10299700D02*
D03*
X3619500Y11823700D02*
D03*
Y11569700D02*
D03*
Y11315700D02*
D03*
Y11061700D02*
D03*
Y10807700D02*
D03*
Y10553700D02*
D03*
Y10299700D02*
D03*
Y10045700D02*
D03*
Y9791700D02*
D03*
Y9537700D02*
D03*
Y9283700D02*
D03*
Y9029700D02*
D03*
Y8775700D02*
D03*
Y8521700D02*
D03*
Y8267700D02*
D03*
Y8013700D02*
D03*
Y7759700D02*
D03*
Y7505700D02*
D03*
Y7251700D02*
D03*
X5397500Y12077700D02*
D03*
Y11823700D02*
D03*
Y11569700D02*
D03*
Y11315700D02*
D03*
Y11061700D02*
D03*
Y10553700D02*
D03*
Y10045700D02*
D03*
Y9791700D02*
D03*
Y9537700D02*
D03*
Y9283700D02*
D03*
Y9029700D02*
D03*
Y8775700D02*
D03*
Y8521700D02*
D03*
Y8267700D02*
D03*
Y8013700D02*
D03*
Y7759700D02*
D03*
Y7505700D02*
D03*
Y7251700D02*
D03*
Y10807700D02*
D03*
D18*
X3619500Y12077700D02*
D03*
D19*
X1587500Y12827000D02*
D03*
X9715500D02*
D03*
Y6731000D02*
D03*
X1587500D02*
D03*
D20*
X7120000Y7672500D02*
D03*
X6733275Y10914378D02*
D03*
X6980000Y8655000D02*
D03*
X6731950Y9755550D02*
D03*
X7122500Y11464100D02*
D03*
Y8507500D02*
D03*
Y9282500D02*
D03*
Y10367500D02*
D03*
X8356600Y8763000D02*
D03*
X8542635Y8881765D02*
D03*
X8547100Y11137900D02*
D03*
X8542635Y9986665D02*
D03*
X8356600Y9867900D02*
D03*
Y11023600D02*
D03*
X6858000Y11099800D02*
D03*
Y9944100D02*
D03*
Y8826500D02*
D03*
%TF.MD5,d6ee1e8151f430a49388ecf360e7f95f*%
M02*
