%TF.GenerationSoftware,Altium Limited,Altium Designer,25.3.3 (18)*%
G04 Layer_Color=32768*
%FSLAX45Y45*%
%MOMM*%
%TF.SameCoordinates,0761283E-10EF-41A2-BAA1-EC4CD2C5D14C*%
%TF.FilePolarity,Positive*%
%TF.FileFunction,Other,Mechanical_15*%
%TF.Part,Single*%
G01*
G75*
%TA.AperFunction,NonConductor*%
%ADD23C,0.15240*%
%ADD24C,0.12700*%
G36*
X2439111Y10882090D02*
Y11981910D01*
X2068271D01*
Y10882090D01*
X2439111D01*
D02*
G37*
G36*
X7984490Y10995660D02*
X7357110D01*
Y11356340D01*
X7984490D01*
Y10995660D01*
D02*
G37*
G36*
Y8735060D02*
X7357110D01*
Y9095740D01*
X7984490D01*
Y8735060D01*
D02*
G37*
G36*
Y9839960D02*
X7357110D01*
Y10200640D01*
X7984490D01*
Y9839960D01*
D02*
G37*
G36*
X9220900Y6728700D02*
Y8157698D01*
X8646900D01*
Y6728700D01*
X9220900D01*
D02*
G37*
G36*
X8648000Y9289900D02*
Y8360901D01*
X9222000D01*
Y9289900D01*
X8648000D01*
D02*
G37*
G36*
Y10394800D02*
Y9465801D01*
X9222000D01*
Y10394800D01*
X8648000D01*
D02*
G37*
G36*
Y11550500D02*
Y10621501D01*
X9222000D01*
Y11550500D01*
X8648000D01*
D02*
G37*
D23*
X2068271Y11981910D02*
X2439111D01*
X2068271Y10882090D02*
Y11981910D01*
Y10882090D02*
X2439111D01*
Y11981910D01*
X7357110Y8735060D02*
Y9095740D01*
X7984490D01*
Y8735060D02*
Y9095740D01*
X7357110Y8735060D02*
X7984490D01*
X7357110Y9839960D02*
Y10200640D01*
X7984490D01*
Y9839960D02*
Y10200640D01*
X7357110Y9839960D02*
X7984490D01*
X7357110Y10995660D02*
Y11356340D01*
X7984490D01*
Y10995660D02*
Y11356340D01*
X7357110Y10995660D02*
X7984490D01*
D24*
X8646900Y8157698D02*
X9220900D01*
X8646900Y6728700D02*
Y8157698D01*
Y6728700D02*
X9220900D01*
Y8157698D01*
X8648000Y8360901D02*
X9222000D01*
Y9289900D01*
X8648000D02*
X9222000D01*
X8648000Y8360901D02*
Y9289900D01*
Y9465801D02*
X9222000D01*
Y10394800D01*
X8648000D02*
X9222000D01*
X8648000Y9465801D02*
Y10394800D01*
Y10621501D02*
X9222000D01*
Y11550500D01*
X8648000D02*
X9222000D01*
X8648000Y10621501D02*
Y11550500D01*
%TF.MD5,516e9995856d49836b52ed3105529253*%
M02*
