%TF.GenerationSoftware,Altium Limited,Altium Designer,25.3.3 (18)*%
G04 Layer_Color=65535*
%FSLAX45Y45*%
%MOMM*%
%TF.SameCoordinates,0761283E-10EF-41A2-BAA1-EC4CD2C5D14C*%
%TF.FilePolarity,Positive*%
%TF.FileFunction,Legend,Top*%
%TF.Part,Single*%
G01*
G75*
%TA.AperFunction,NonConductor*%
%ADD13C,0.25400*%
%ADD22C,1.30000*%
%ADD23C,0.15240*%
%ADD24C,0.12700*%
%ADD25C,0.03810*%
%ADD26C,0.17800*%
%ADD27C,0.17780*%
%ADD28C,0.07620*%
%ADD29C,0.06350*%
D13*
X7812970Y10731800D02*
X7960470D01*
X7812970D02*
Y10979300D01*
X7960470D01*
Y10731800D02*
Y10979300D01*
X7812970Y9576100D02*
X7960470D01*
X7812970D02*
Y9823600D01*
X7960470D01*
Y9576100D02*
Y9823600D01*
X7812970Y8471200D02*
X7960470D01*
X7812970D02*
Y8718700D01*
X7960470D01*
Y8471200D02*
Y8718700D01*
X2885000Y11884770D02*
X3032500D01*
X2885000D02*
Y12132270D01*
X3032500D01*
Y11884770D02*
Y12132270D01*
X8267500Y7717500D02*
X8415000D01*
X8267500D02*
Y7965000D01*
X8415000D01*
Y7717500D02*
Y7965000D01*
X8310000Y7115000D02*
X8457500D01*
Y6867500D02*
Y7115000D01*
X8310000Y6867500D02*
X8457500D01*
X8310000D02*
Y7115000D01*
X1866900Y6794434D02*
Y6642083D01*
X1943075D01*
X1968467Y6667475D01*
Y6769042D01*
X1943075Y6794434D01*
X1866900D01*
X2095426Y6642083D02*
X2044643D01*
X2019251Y6667475D01*
Y6718259D01*
X2044643Y6743651D01*
X2095426D01*
X2120818Y6718259D01*
Y6692867D01*
X2019251D01*
X2171601Y6642083D02*
X2247777D01*
X2273169Y6667475D01*
X2247777Y6692867D01*
X2196993D01*
X2171601Y6718259D01*
X2196993Y6743651D01*
X2273169D01*
X2323952Y6642083D02*
X2374736D01*
X2349344D01*
Y6743651D01*
X2323952D01*
X2501695Y6591300D02*
X2527086D01*
X2552478Y6616692D01*
Y6743651D01*
X2476303D01*
X2450911Y6718259D01*
Y6667475D01*
X2476303Y6642083D01*
X2552478D01*
X2603262D02*
Y6743651D01*
X2679437D01*
X2704829Y6718259D01*
Y6642083D01*
X2831788D02*
X2781004D01*
X2755612Y6667475D01*
Y6718259D01*
X2781004Y6743651D01*
X2831788D01*
X2857180Y6718259D01*
Y6692867D01*
X2755612D01*
X3009530Y6794434D02*
Y6642083D01*
X2933355D01*
X2907963Y6667475D01*
Y6718259D01*
X2933355Y6743651D01*
X3009530D01*
X3212665Y6794434D02*
Y6642083D01*
X3288840D01*
X3314232Y6667475D01*
Y6692867D01*
Y6718259D01*
X3288840Y6743651D01*
X3212665D01*
X3365015D02*
Y6667475D01*
X3390407Y6642083D01*
X3466583D01*
Y6616692D01*
X3441191Y6591300D01*
X3415799D01*
X3466583Y6642083D02*
Y6743651D01*
X3517366D02*
X3542758D01*
Y6718259D01*
X3517366D01*
Y6743651D01*
Y6667475D02*
X3542758D01*
Y6642083D01*
X3517366D01*
Y6667475D01*
X3796676Y6642083D02*
Y6794434D01*
X3847459Y6743651D01*
X3898243Y6794434D01*
Y6642083D01*
X3949026D02*
X3999810D01*
X3974418D01*
Y6743651D01*
X3949026D01*
X4177552D02*
X4101377D01*
X4075985Y6718259D01*
Y6667475D01*
X4101377Y6642083D01*
X4177552D01*
X4228336Y6794434D02*
Y6642083D01*
Y6718259D01*
X4253728Y6743651D01*
X4304511D01*
X4329903Y6718259D01*
Y6642083D01*
X4406079Y6743651D02*
X4456862D01*
X4482254Y6718259D01*
Y6642083D01*
X4406079D01*
X4380687Y6667475D01*
X4406079Y6692867D01*
X4482254D01*
X4609213Y6642083D02*
X4558429D01*
X4533037Y6667475D01*
Y6718259D01*
X4558429Y6743651D01*
X4609213D01*
X4634605Y6718259D01*
Y6692867D01*
X4533037D01*
X4685388Y6642083D02*
X4736172D01*
X4710780D01*
Y6794434D01*
X4685388D01*
X5066265Y6769042D02*
X5040873Y6794434D01*
X4990090D01*
X4964698Y6769042D01*
Y6667475D01*
X4990090Y6642083D01*
X5040873D01*
X5066265Y6667475D01*
X5117048Y6794434D02*
Y6642083D01*
Y6718259D01*
X5142440Y6743651D01*
X5193224D01*
X5218616Y6718259D01*
Y6642083D01*
X5345575D02*
X5294791D01*
X5269399Y6667475D01*
Y6718259D01*
X5294791Y6743651D01*
X5345575D01*
X5370966Y6718259D01*
Y6692867D01*
X5269399D01*
X5421750Y6642083D02*
Y6743651D01*
X5497925D01*
X5523317Y6718259D01*
Y6642083D01*
X1523967Y10223097D02*
X1498575Y10248489D01*
X1447792D01*
X1422400Y10223097D01*
Y10197705D01*
X1447792Y10172313D01*
X1498575D01*
X1523967Y10146922D01*
Y10121530D01*
X1498575Y10096138D01*
X1447792D01*
X1422400Y10121530D01*
X1676318Y10248489D02*
X1574751D01*
Y10096138D01*
X1676318D01*
X1574751Y10172313D02*
X1625534D01*
X1828669Y10248489D02*
X1727101D01*
Y10096138D01*
X1828669D01*
X1727101Y10172313D02*
X1777885D01*
X2133370Y10223097D02*
X2107978Y10248489D01*
X2057195D01*
X2031803Y10223097D01*
Y10121530D01*
X2057195Y10096138D01*
X2107978D01*
X2133370Y10121530D01*
X2209545Y10197705D02*
X2260329D01*
X2285721Y10172313D01*
Y10096138D01*
X2209545D01*
X2184154Y10121530D01*
X2209545Y10146922D01*
X2285721D01*
X2336504Y10045355D02*
Y10197705D01*
X2412680D01*
X2438072Y10172313D01*
Y10121530D01*
X2412680Y10096138D01*
X2336504D01*
X2488855D02*
X2565030D01*
X2590422Y10121530D01*
X2565030Y10146922D01*
X2514247D01*
X2488855Y10172313D01*
X2514247Y10197705D01*
X2590422D01*
X2666598Y10223097D02*
Y10197705D01*
X2641206D01*
X2691989D01*
X2666598D01*
Y10121530D01*
X2691989Y10096138D01*
X2793557D02*
X2844340D01*
X2869732Y10121530D01*
Y10172313D01*
X2844340Y10197705D01*
X2793557D01*
X2768165Y10172313D01*
Y10121530D01*
X2793557Y10096138D01*
X2920515D02*
Y10197705D01*
X2996691D01*
X3022083Y10172313D01*
Y10096138D01*
X3149041D02*
X3098258D01*
X3072866Y10121530D01*
Y10172313D01*
X3098258Y10197705D01*
X3149041D01*
X3174433Y10172313D01*
Y10146922D01*
X3072866D01*
X1523967Y9928533D02*
X1498575Y9953924D01*
X1447792D01*
X1422400Y9928533D01*
Y9903141D01*
X1447792Y9877749D01*
X1498575D01*
X1523967Y9852357D01*
Y9826966D01*
X1498575Y9801574D01*
X1447792D01*
X1422400Y9826966D01*
X1676318Y9953924D02*
X1574751D01*
Y9877749D01*
X1625534D01*
X1574751D01*
Y9801574D01*
X1727101Y9953924D02*
Y9826966D01*
X1752493Y9801574D01*
X1803277D01*
X1828669Y9826966D01*
Y9953924D01*
X2031803Y9801574D02*
Y9953924D01*
X2107978D01*
X2133370Y9928533D01*
Y9877749D01*
X2107978Y9852357D01*
X2031803D01*
X2184154Y9801574D02*
X2234937D01*
X2209545D01*
Y9903141D01*
X2184154D01*
X2311112Y9877749D02*
X2412680D01*
X2488855Y9801574D02*
X2539639D01*
X2565030Y9826966D01*
Y9877749D01*
X2539639Y9903141D01*
X2488855D01*
X2463463Y9877749D01*
Y9826966D01*
X2488855Y9801574D01*
X2615814D02*
Y9903141D01*
X2691989D01*
X2717381Y9877749D01*
Y9801574D01*
X2844340D02*
X2793557D01*
X2768165Y9826966D01*
Y9877749D01*
X2793557Y9903141D01*
X2844340D01*
X2869732Y9877749D01*
Y9852357D01*
X2768165D01*
X2996691Y9801574D02*
X2945907D01*
X2920515Y9826966D01*
Y9877749D01*
X2945907Y9903141D01*
X2996691D01*
X3022083Y9877749D01*
Y9852357D01*
X2920515D01*
X3072866Y9903141D02*
Y9801574D01*
Y9852357D01*
X3098258Y9877749D01*
X3123650Y9903141D01*
X3149041D01*
X3225217Y9801574D02*
X3301392D01*
X3326784Y9826966D01*
X3301392Y9852357D01*
X3250609D01*
X3225217Y9877749D01*
X3250609Y9903141D01*
X3326784D01*
X1523967Y9440971D02*
X1498575Y9466363D01*
X1447792D01*
X1422400Y9440971D01*
Y9339404D01*
X1447792Y9314012D01*
X1498575D01*
X1523967Y9339404D01*
X1600143Y9314012D02*
X1650926D01*
X1676318Y9339404D01*
Y9390187D01*
X1650926Y9415579D01*
X1600143D01*
X1574751Y9390187D01*
Y9339404D01*
X1600143Y9314012D01*
X1727101D02*
Y9415579D01*
X1752493D01*
X1777885Y9390187D01*
Y9314012D01*
Y9390187D01*
X1803277Y9415579D01*
X1828669Y9390187D01*
Y9314012D01*
X1879452Y9263229D02*
Y9415579D01*
X1955628D01*
X1981019Y9390187D01*
Y9339404D01*
X1955628Y9314012D01*
X1879452D01*
X2031803Y9415579D02*
Y9339404D01*
X2057195Y9314012D01*
X2133370D01*
Y9415579D01*
X2209545Y9440971D02*
Y9415579D01*
X2184154D01*
X2234937D01*
X2209545D01*
Y9339404D01*
X2234937Y9314012D01*
X2336504Y9415579D02*
X2387288D01*
X2412680Y9390187D01*
Y9314012D01*
X2336504D01*
X2311112Y9339404D01*
X2336504Y9364796D01*
X2412680D01*
X2488855Y9440971D02*
Y9415579D01*
X2463463D01*
X2514247D01*
X2488855D01*
Y9339404D01*
X2514247Y9314012D01*
X2590422D02*
X2641206D01*
X2615814D01*
Y9415579D01*
X2590422D01*
X2742773Y9314012D02*
X2793556D01*
X2818948Y9339404D01*
Y9390187D01*
X2793556Y9415579D01*
X2742773D01*
X2717381Y9390187D01*
Y9339404D01*
X2742773Y9314012D01*
X2869732D02*
Y9415579D01*
X2945907D01*
X2971299Y9390187D01*
Y9314012D01*
X3047474Y9415579D02*
X3098258D01*
X3123650Y9390187D01*
Y9314012D01*
X3047474D01*
X3022082Y9339404D01*
X3047474Y9364796D01*
X3123650D01*
X3174433Y9314012D02*
X3225217D01*
X3199825D01*
Y9466363D01*
X3174433D01*
X1523967Y9146407D02*
X1498575Y9171799D01*
X1447792D01*
X1422400Y9146407D01*
Y9121015D01*
X1447792Y9095623D01*
X1498575D01*
X1523967Y9070231D01*
Y9044840D01*
X1498575Y9019448D01*
X1447792D01*
X1422400Y9044840D01*
X1574751Y9121015D02*
Y9044840D01*
X1600143Y9019448D01*
X1676318D01*
Y9121015D01*
X1727101Y9019448D02*
X1803277D01*
X1828669Y9044840D01*
X1803277Y9070231D01*
X1752493D01*
X1727101Y9095623D01*
X1752493Y9121015D01*
X1828669D01*
X1904844Y9146407D02*
Y9121015D01*
X1879452D01*
X1930236D01*
X1904844D01*
Y9044840D01*
X1930236Y9019448D01*
X2031803Y9121015D02*
X2082586D01*
X2107978Y9095623D01*
Y9019448D01*
X2031803D01*
X2006411Y9044840D01*
X2031803Y9070231D01*
X2107978D01*
X2158762Y9019448D02*
X2209545D01*
X2184154D01*
Y9121015D01*
X2158762D01*
X2285721Y9019448D02*
Y9121015D01*
X2361896D01*
X2387288Y9095623D01*
Y9019448D01*
X2463463Y9121015D02*
X2514247D01*
X2539639Y9095623D01*
Y9019448D01*
X2463463D01*
X2438071Y9044840D01*
X2463463Y9070231D01*
X2539639D01*
X2590422Y9171799D02*
Y9019448D01*
X2666597D01*
X2691989Y9044840D01*
Y9070231D01*
Y9095623D01*
X2666597Y9121015D01*
X2590422D01*
X2742773Y9019448D02*
X2793556D01*
X2768165D01*
Y9121015D01*
X2742773D01*
X2869732Y9019448D02*
X2920515D01*
X2895123D01*
Y9171799D01*
X2869732D01*
X2996690Y9019448D02*
X3047474D01*
X3022082D01*
Y9121015D01*
X2996690D01*
X3149041Y9146407D02*
Y9121015D01*
X3123649D01*
X3174433D01*
X3149041D01*
Y9044840D01*
X3174433Y9019448D01*
X3250608Y9121015D02*
Y9044840D01*
X3276000Y9019448D01*
X3352175D01*
Y8994056D01*
X3326784Y8968664D01*
X3301392D01*
X3352175Y9019448D02*
Y9121015D01*
X1422400Y8877234D02*
Y8724883D01*
X1523967D01*
X1600143Y8826451D02*
X1650926D01*
X1676318Y8801059D01*
Y8724883D01*
X1600143D01*
X1574751Y8750275D01*
X1600143Y8775667D01*
X1676318D01*
X1727101Y8877234D02*
Y8724883D01*
X1803277D01*
X1828669Y8750275D01*
Y8775667D01*
Y8801059D01*
X1803277Y8826451D01*
X1727101D01*
X1879452D02*
Y8724883D01*
Y8775667D01*
X1904844Y8801059D01*
X1930236Y8826451D01*
X1955628D01*
X2057195D02*
X2107978D01*
X2133370Y8801059D01*
Y8724883D01*
X2057195D01*
X2031803Y8750275D01*
X2057195Y8775667D01*
X2133370D01*
X2209545Y8851842D02*
Y8826451D01*
X2184154D01*
X2234937D01*
X2209545D01*
Y8750275D01*
X2234937Y8724883D01*
X2336504D02*
X2387288D01*
X2412680Y8750275D01*
Y8801059D01*
X2387288Y8826451D01*
X2336504D01*
X2311112Y8801059D01*
Y8750275D01*
X2336504Y8724883D01*
X2463463Y8826451D02*
Y8724883D01*
Y8775667D01*
X2488855Y8801059D01*
X2514247Y8826451D01*
X2539639D01*
X2615814D02*
Y8750275D01*
X2641206Y8724883D01*
X2717381D01*
Y8699492D01*
X2691989Y8674100D01*
X2666597D01*
X2717381Y8724883D02*
Y8826451D01*
X3479800Y12425680D02*
Y12578031D01*
X3555975D01*
X3581367Y12552639D01*
Y12501855D01*
X3555975Y12476463D01*
X3479800D01*
X3632151Y12425680D02*
X3682934D01*
X3657543D01*
Y12527247D01*
X3632151D01*
X3911460Y12425680D02*
Y12578031D01*
X3987636D01*
X4013028Y12552639D01*
Y12501855D01*
X3987636Y12476463D01*
X3911460D01*
X4063811Y12425680D02*
X4114595D01*
X4089203D01*
Y12527247D01*
X4063811D01*
X4292337D02*
X4216162D01*
X4190770Y12501855D01*
Y12451072D01*
X4216162Y12425680D01*
X4292337D01*
X4368512D02*
X4419296D01*
X4444688Y12451072D01*
Y12501855D01*
X4419296Y12527247D01*
X4368512D01*
X4343121Y12501855D01*
Y12451072D01*
X4368512Y12425680D01*
X1777975Y10922160D02*
X1625624D01*
X1676408Y10972944D01*
X1625624Y11023727D01*
X1777975D01*
X1625624Y11074511D02*
X1777975D01*
X1701800D01*
Y11176078D01*
X1625624D01*
X1777975D01*
X1701800Y11226861D02*
Y11328429D01*
X1625624Y11379212D02*
Y11480779D01*
X1651016D01*
X1752583Y11379212D01*
X1777975D01*
Y11480779D01*
Y11531563D02*
Y11582346D01*
Y11556955D01*
X1625624D01*
X1651016Y11531563D01*
X1752583Y11658522D02*
X1777975Y11683914D01*
Y11734697D01*
X1752583Y11760089D01*
X1651016D01*
X1625624Y11734697D01*
Y11683914D01*
X1651016Y11658522D01*
X1676408D01*
X1701800Y11683914D01*
Y11760089D01*
X1651016Y11912440D02*
X1625624Y11887048D01*
Y11836264D01*
X1651016Y11810872D01*
X1752583D01*
X1777975Y11836264D01*
Y11887048D01*
X1752583Y11912440D01*
X9524976Y11467989D02*
Y11417205D01*
Y11442597D01*
X9372625D01*
Y11467989D01*
Y11417205D01*
Y11239463D02*
Y11341030D01*
X9474192Y11239463D01*
X9499584D01*
X9524976Y11264855D01*
Y11315638D01*
X9499584Y11341030D01*
Y11087112D02*
X9524976Y11112504D01*
Y11163287D01*
X9499584Y11188679D01*
X9398017D01*
X9372625Y11163287D01*
Y11112504D01*
X9398017Y11087112D01*
X9372625Y10883978D02*
X9474192D01*
X9524976Y10833194D01*
X9474192Y10782410D01*
X9372625D01*
X9448800D01*
Y10883978D01*
X9524975Y10451944D02*
Y10350377D01*
Y10401160D01*
X9372625D01*
X9499583Y10198026D02*
X9524975Y10223418D01*
Y10274201D01*
X9499583Y10299593D01*
X9474192D01*
X9448800Y10274201D01*
Y10223418D01*
X9423408Y10198026D01*
X9398017D01*
X9372625Y10223418D01*
Y10274201D01*
X9398017Y10299593D01*
X9524975Y10147242D02*
X9372625D01*
Y10045675D01*
Y9893324D02*
Y9994892D01*
X9474192Y9893324D01*
X9499583D01*
X9524975Y9918716D01*
Y9969500D01*
X9499583Y9994892D01*
X9524975Y9740974D02*
Y9842541D01*
X9448800D01*
X9474192Y9791757D01*
Y9766366D01*
X9448800Y9740974D01*
X9398017D01*
X9372625Y9766366D01*
Y9817149D01*
X9398017Y9842541D01*
X9524975Y9588623D02*
X9499583Y9639407D01*
X9448800Y9690190D01*
X9398017D01*
X9372625Y9664798D01*
Y9614015D01*
X9398017Y9588623D01*
X9423408D01*
X9448800Y9614015D01*
Y9690190D01*
X9372625Y9537839D02*
Y9487056D01*
Y9512448D01*
X9524975D01*
X9499583Y9537839D01*
X9524975Y9169285D02*
X9372625D01*
Y9093110D01*
X9398017Y9067718D01*
X9499583D01*
X9524975Y9093110D01*
Y9169285D01*
Y9016934D02*
X9372625D01*
X9448800D01*
Y8915367D01*
X9524975D01*
X9372625D01*
X9524975Y8864583D02*
Y8763016D01*
Y8813800D01*
X9372625D01*
Y8610666D02*
Y8712233D01*
X9474192Y8610666D01*
X9499583D01*
X9524975Y8636057D01*
Y8686841D01*
X9499583Y8712233D01*
Y8559882D02*
X9524975Y8534490D01*
Y8483707D01*
X9499583Y8458315D01*
X9398017D01*
X9372625Y8483707D01*
Y8534490D01*
X9398017Y8559882D01*
X9499583D01*
X9347225Y7944036D02*
X9499575D01*
Y7867860D01*
X9474183Y7842468D01*
X9423400D01*
X9398008Y7867860D01*
Y7944036D01*
X9347225Y7791685D02*
X9499575D01*
X9448792Y7740901D01*
X9499575Y7690118D01*
X9347225D01*
X9474183Y7537767D02*
X9499575Y7563159D01*
Y7613942D01*
X9474183Y7639334D01*
X9448792D01*
X9423400Y7613942D01*
Y7563159D01*
X9398008Y7537767D01*
X9372617D01*
X9347225Y7563159D01*
Y7613942D01*
X9372617Y7639334D01*
X9499575Y7385416D02*
Y7486984D01*
X9423400D01*
X9448792Y7436200D01*
Y7410808D01*
X9423400Y7385416D01*
X9372617D01*
X9347225Y7410808D01*
Y7461592D01*
X9372617Y7486984D01*
X9474183Y7334633D02*
X9499575Y7309241D01*
Y7258457D01*
X9474183Y7233066D01*
X9372617D01*
X9347225Y7258457D01*
Y7309241D01*
X9372617Y7334633D01*
X9474183D01*
Y7182282D02*
X9499575Y7156890D01*
Y7106107D01*
X9474183Y7080715D01*
X9372617D01*
X9347225Y7106107D01*
Y7156890D01*
X9372617Y7182282D01*
X9474183D01*
Y7029931D02*
X9499575Y7004539D01*
Y6953756D01*
X9474183Y6928364D01*
X9448792D01*
X9423400Y6953756D01*
Y6979148D01*
Y6953756D01*
X9398008Y6928364D01*
X9372617D01*
X9347225Y6953756D01*
Y7004539D01*
X9372617Y7029931D01*
D22*
X4445000Y12204700D02*
G03*
X4572000Y12204700I63500J0D01*
G01*
X3938000D02*
X4445000D01*
X4572000D02*
X5079000D01*
Y7124700D02*
Y12204700D01*
X3938000Y7124700D02*
X5079000D01*
X3938000D02*
Y12204700D01*
D23*
X7640320Y9070340D02*
G03*
X7701280Y9070340I30480J0D01*
G01*
X7640320Y10175240D02*
G03*
X7701280Y10175240I30480J0D01*
G01*
X7640320Y11330940D02*
G03*
X7701280Y11330940I30480J0D01*
G01*
X2080971Y10894790D02*
Y11969210D01*
Y10894790D02*
X2426411D01*
Y11969210D01*
X2080971D02*
X2426411D01*
X7515860Y8760460D02*
X7825740D01*
X7515860Y9070340D02*
X7825740D01*
X7515860Y9865360D02*
X7825740D01*
X7515860Y10175240D02*
X7825740D01*
X7515860Y11021060D02*
X7825740D01*
X7515860Y11330940D02*
X7825740D01*
D24*
X9119300Y7005700D02*
X9195500Y6942200D01*
Y7069200D01*
X9119300Y7005700D02*
X9195500Y7069200D01*
X8773900Y8030698D02*
X9093900D01*
X8773900Y6855700D02*
Y8030698D01*
Y6855700D02*
X9093900D01*
Y8030698D01*
X8673400Y9076400D02*
X8749600Y9012900D01*
X8673400Y8949400D02*
Y9076400D01*
Y8949400D02*
X8749600Y9012900D01*
X8775000Y8487901D02*
X9095000D01*
Y9162900D01*
X8775000D02*
X9095000D01*
X8775000Y8487901D02*
Y9162900D01*
X8673400Y10181300D02*
X8749600Y10117800D01*
X8673400Y10054300D02*
Y10181300D01*
Y10054300D02*
X8749600Y10117800D01*
X8775000Y9592801D02*
X9095000D01*
Y10267800D01*
X8775000D02*
X9095000D01*
X8775000Y9592801D02*
Y10267800D01*
X8673400Y11337000D02*
X8749600Y11273500D01*
X8673400Y11210000D02*
Y11337000D01*
Y11210000D02*
X8749600Y11273500D01*
X8775000Y10748501D02*
X9095000D01*
Y11423500D01*
X8775000D02*
X9095000D01*
X8775000Y10748501D02*
Y11423500D01*
D25*
X8030206Y11188270D02*
X8025974Y11192502D01*
X8017510D01*
X8013278Y11188270D01*
Y11184038D01*
X8017510Y11179806D01*
X8025974D01*
X8030206Y11175574D01*
Y11171342D01*
X8025974Y11167110D01*
X8017510D01*
X8013278Y11171342D01*
X8038670Y11192502D02*
Y11167110D01*
X8051366D01*
X8055598Y11171342D01*
Y11188270D01*
X8051366Y11192502D01*
X8038670D01*
X8064062Y11167110D02*
Y11184038D01*
X8072526Y11192502D01*
X8080989Y11184038D01*
Y11167110D01*
Y11179806D01*
X8064062D01*
X8089453Y11192502D02*
Y11167110D01*
X8102149D01*
X8106381Y11171342D01*
Y11175574D01*
X8102149Y11179806D01*
X8089453D01*
X8102149D01*
X8106381Y11184038D01*
Y11188270D01*
X8102149Y11192502D01*
X8089453D01*
X9177438Y9880170D02*
X9173206Y9884402D01*
X9164742D01*
X9160510Y9880170D01*
Y9875938D01*
X9164742Y9871706D01*
X9173206D01*
X9177438Y9867474D01*
Y9863242D01*
X9173206Y9859010D01*
X9164742D01*
X9160510Y9863242D01*
X9185902Y9884402D02*
Y9859010D01*
X9198598D01*
X9202830Y9863242D01*
Y9880170D01*
X9198598Y9884402D01*
X9185902D01*
X9211294Y9859010D02*
Y9875938D01*
X9219758Y9884402D01*
X9228222Y9875938D01*
Y9859010D01*
Y9871706D01*
X9211294D01*
X9177438Y8775270D02*
X9173206Y8779502D01*
X9164742D01*
X9160510Y8775270D01*
Y8771038D01*
X9164742Y8766806D01*
X9173206D01*
X9177438Y8762574D01*
Y8758342D01*
X9173206Y8754110D01*
X9164742D01*
X9160510Y8758342D01*
X9185902Y8779502D02*
Y8754110D01*
X9198598D01*
X9202830Y8758342D01*
Y8775270D01*
X9198598Y8779502D01*
X9185902D01*
X9211294Y8754110D02*
Y8771038D01*
X9219758Y8779502D01*
X9228222Y8771038D01*
Y8754110D01*
Y8766806D01*
X9211294D01*
X8030206Y10032570D02*
X8025974Y10036802D01*
X8017510D01*
X8013278Y10032570D01*
Y10028338D01*
X8017510Y10024106D01*
X8025974D01*
X8030206Y10019874D01*
Y10015642D01*
X8025974Y10011410D01*
X8017510D01*
X8013278Y10015642D01*
X8038670Y10036802D02*
Y10011410D01*
X8051366D01*
X8055598Y10015642D01*
Y10032570D01*
X8051366Y10036802D01*
X8038670D01*
X8064062Y10011410D02*
Y10028338D01*
X8072526Y10036802D01*
X8080989Y10028338D01*
Y10011410D01*
Y10024106D01*
X8064062D01*
X8089453Y10036802D02*
Y10011410D01*
X8102149D01*
X8106381Y10015642D01*
Y10019874D01*
X8102149Y10024106D01*
X8089453D01*
X8102149D01*
X8106381Y10028338D01*
Y10032570D01*
X8102149Y10036802D01*
X8089453D01*
X8030206Y8927670D02*
X8025974Y8931902D01*
X8017510D01*
X8013278Y8927670D01*
Y8923438D01*
X8017510Y8919206D01*
X8025974D01*
X8030206Y8914974D01*
Y8910742D01*
X8025974Y8906510D01*
X8017510D01*
X8013278Y8910742D01*
X8038670Y8931902D02*
Y8906510D01*
X8051366D01*
X8055598Y8910742D01*
Y8927670D01*
X8051366Y8931902D01*
X8038670D01*
X8064062Y8906510D02*
Y8923438D01*
X8072526Y8931902D01*
X8080989Y8923438D01*
Y8906510D01*
Y8919206D01*
X8064062D01*
X8089453Y8931902D02*
Y8906510D01*
X8102149D01*
X8106381Y8910742D01*
Y8914974D01*
X8102149Y8919206D01*
X8089453D01*
X8102149D01*
X8106381Y8923438D01*
Y8927670D01*
X8102149Y8931902D01*
X8089453D01*
X9177438Y11048570D02*
X9173206Y11052802D01*
X9164742D01*
X9160510Y11048570D01*
Y11044338D01*
X9164742Y11040106D01*
X9173206D01*
X9177438Y11035874D01*
Y11031642D01*
X9173206Y11027410D01*
X9164742D01*
X9160510Y11031642D01*
X9185902Y11052802D02*
Y11027410D01*
X9198598D01*
X9202830Y11031642D01*
Y11048570D01*
X9198598Y11052802D01*
X9185902D01*
X9211294Y11027410D02*
Y11044338D01*
X9219758Y11052802D01*
X9228222Y11044338D01*
Y11027410D01*
Y11040106D01*
X9211294D01*
X9177438Y8902270D02*
X9173206Y8906502D01*
X9164742D01*
X9160510Y8902270D01*
Y8898038D01*
X9164742Y8893806D01*
X9173206D01*
X9177438Y8889574D01*
Y8885342D01*
X9173206Y8881110D01*
X9164742D01*
X9160510Y8885342D01*
X9202830Y8902270D02*
X9198598Y8906502D01*
X9190134D01*
X9185902Y8902270D01*
Y8885342D01*
X9190134Y8881110D01*
X9198598D01*
X9202830Y8885342D01*
X9211294Y8906502D02*
Y8881110D01*
X9228222D01*
X9160510Y9029270D02*
X9164742Y9033502D01*
X9173206D01*
X9177438Y9029270D01*
Y9025038D01*
X9173206Y9020806D01*
X9168974D01*
X9173206D01*
X9177438Y9016574D01*
Y9012342D01*
X9173206Y9008110D01*
X9164742D01*
X9160510Y9012342D01*
X9185902Y9008110D02*
Y9012342D01*
X9190134D01*
Y9008110D01*
X9185902D01*
X9207062Y9029270D02*
X9211293Y9033502D01*
X9219758D01*
X9223989Y9029270D01*
Y9025038D01*
X9219758Y9020806D01*
X9215526D01*
X9219758D01*
X9223989Y9016574D01*
Y9012342D01*
X9219758Y9008110D01*
X9211293D01*
X9207062Y9012342D01*
X9232453Y9033502D02*
Y9016574D01*
X9240918Y9008110D01*
X9249381Y9016574D01*
Y9033502D01*
X9177438Y8686370D02*
X9173206Y8690602D01*
X9164742D01*
X9160510Y8686370D01*
Y8669442D01*
X9164742Y8665210D01*
X9173206D01*
X9177438Y8669442D01*
Y8677906D01*
X9168974D01*
X9185902Y8665210D02*
Y8690602D01*
X9202830Y8665210D01*
Y8690602D01*
X9211294D02*
Y8665210D01*
X9223990D01*
X9228222Y8669442D01*
Y8686370D01*
X9223990Y8690602D01*
X9211294D01*
X9177438Y10007170D02*
X9173206Y10011402D01*
X9164742D01*
X9160510Y10007170D01*
Y10002938D01*
X9164742Y9998706D01*
X9173206D01*
X9177438Y9994474D01*
Y9990242D01*
X9173206Y9986010D01*
X9164742D01*
X9160510Y9990242D01*
X9202830Y10007170D02*
X9198598Y10011402D01*
X9190134D01*
X9185902Y10007170D01*
Y9990242D01*
X9190134Y9986010D01*
X9198598D01*
X9202830Y9990242D01*
X9211294Y10011402D02*
Y9986010D01*
X9228222D01*
X9160510Y10146870D02*
X9164742Y10151102D01*
X9173206D01*
X9177438Y10146870D01*
Y10142638D01*
X9173206Y10138406D01*
X9168974D01*
X9173206D01*
X9177438Y10134174D01*
Y10129942D01*
X9173206Y10125710D01*
X9164742D01*
X9160510Y10129942D01*
X9185902Y10125710D02*
Y10129942D01*
X9190134D01*
Y10125710D01*
X9185902D01*
X9207062Y10146870D02*
X9211293Y10151102D01*
X9219758D01*
X9223989Y10146870D01*
Y10142638D01*
X9219758Y10138406D01*
X9215526D01*
X9219758D01*
X9223989Y10134174D01*
Y10129942D01*
X9219758Y10125710D01*
X9211293D01*
X9207062Y10129942D01*
X9232453Y10151102D02*
Y10134174D01*
X9240918Y10125710D01*
X9249381Y10134174D01*
Y10151102D01*
X9177438Y9778570D02*
X9173206Y9782802D01*
X9164742D01*
X9160510Y9778570D01*
Y9761642D01*
X9164742Y9757410D01*
X9173206D01*
X9177438Y9761642D01*
Y9770106D01*
X9168974D01*
X9185902Y9757410D02*
Y9782802D01*
X9202830Y9757410D01*
Y9782802D01*
X9211294D02*
Y9757410D01*
X9223990D01*
X9228222Y9761642D01*
Y9778570D01*
X9223990Y9782802D01*
X9211294D01*
X9177438Y10946970D02*
X9173206Y10951202D01*
X9164742D01*
X9160510Y10946970D01*
Y10930042D01*
X9164742Y10925810D01*
X9173206D01*
X9177438Y10930042D01*
Y10938506D01*
X9168974D01*
X9185902Y10925810D02*
Y10951202D01*
X9202830Y10925810D01*
Y10951202D01*
X9211294D02*
Y10925810D01*
X9223990D01*
X9228222Y10930042D01*
Y10946970D01*
X9223990Y10951202D01*
X9211294D01*
X9160510Y11289870D02*
X9164742Y11294102D01*
X9173206D01*
X9177438Y11289870D01*
Y11285638D01*
X9173206Y11281406D01*
X9168974D01*
X9173206D01*
X9177438Y11277174D01*
Y11272942D01*
X9173206Y11268710D01*
X9164742D01*
X9160510Y11272942D01*
X9185902Y11268710D02*
Y11272942D01*
X9190134D01*
Y11268710D01*
X9185902D01*
X9207062Y11289870D02*
X9211293Y11294102D01*
X9219758D01*
X9223989Y11289870D01*
Y11285638D01*
X9219758Y11281406D01*
X9215526D01*
X9219758D01*
X9223989Y11277174D01*
Y11272942D01*
X9219758Y11268710D01*
X9211293D01*
X9207062Y11272942D01*
X9232453Y11294102D02*
Y11277174D01*
X9240918Y11268710D01*
X9249381Y11277174D01*
Y11294102D01*
X9177438Y11162870D02*
X9173206Y11167102D01*
X9164742D01*
X9160510Y11162870D01*
Y11158638D01*
X9164742Y11154406D01*
X9173206D01*
X9177438Y11150174D01*
Y11145942D01*
X9173206Y11141710D01*
X9164742D01*
X9160510Y11145942D01*
X9202830Y11162870D02*
X9198598Y11167102D01*
X9190134D01*
X9185902Y11162870D01*
Y11145942D01*
X9190134Y11141710D01*
X9198598D01*
X9202830Y11145942D01*
X9211294Y11167102D02*
Y11141710D01*
X9228222D01*
X7259738Y11251770D02*
X7255506Y11256002D01*
X7247042D01*
X7242810Y11251770D01*
Y11247538D01*
X7247042Y11243306D01*
X7255506D01*
X7259738Y11239074D01*
Y11234842D01*
X7255506Y11230610D01*
X7247042D01*
X7242810Y11234842D01*
X7285130Y11251770D02*
X7280898Y11256002D01*
X7272434D01*
X7268202Y11251770D01*
Y11234842D01*
X7272434Y11230610D01*
X7280898D01*
X7285130Y11234842D01*
X7293594Y11256002D02*
Y11230610D01*
X7310522D01*
X7318986D02*
Y11247538D01*
X7327450Y11256002D01*
X7335913Y11247538D01*
Y11230610D01*
Y11243306D01*
X7318986D01*
X7242810Y11319502D02*
Y11302574D01*
X7251274Y11294110D01*
X7259738Y11302574D01*
Y11319502D01*
X7285130Y11315270D02*
X7280898Y11319502D01*
X7272434D01*
X7268202Y11315270D01*
Y11298342D01*
X7272434Y11294110D01*
X7280898D01*
X7285130Y11298342D01*
X7310522Y11315270D02*
X7306290Y11319502D01*
X7297826D01*
X7293594Y11315270D01*
Y11298342D01*
X7297826Y11294110D01*
X7306290D01*
X7310522Y11298342D01*
X7318986Y11294110D02*
Y11311038D01*
X7327450Y11319502D01*
X7335913Y11311038D01*
Y11294110D01*
Y11306806D01*
X7318986D01*
X7280898Y11124770D02*
X7276666Y11129002D01*
X7268202D01*
X7263970Y11124770D01*
Y11107842D01*
X7268202Y11103610D01*
X7276666D01*
X7280898Y11107842D01*
Y11116306D01*
X7272434D01*
X7289362Y11103610D02*
Y11129002D01*
X7306289Y11103610D01*
Y11129002D01*
X7314753D02*
Y11103610D01*
X7327449D01*
X7331681Y11107842D01*
Y11124770D01*
X7327449Y11129002D01*
X7314753D01*
X7255506Y11188270D02*
X7251274Y11192502D01*
X7242810D01*
X7238578Y11188270D01*
Y11184038D01*
X7242810Y11179806D01*
X7251274D01*
X7255506Y11175574D01*
Y11171342D01*
X7251274Y11167110D01*
X7242810D01*
X7238578Y11171342D01*
X7263970Y11192502D02*
Y11167110D01*
X7276666D01*
X7280898Y11171342D01*
Y11188270D01*
X7276666Y11192502D01*
X7263970D01*
X7289362Y11167110D02*
Y11184038D01*
X7297826Y11192502D01*
X7306289Y11184038D01*
Y11167110D01*
Y11179806D01*
X7289362D01*
X7314753Y11167110D02*
Y11184038D01*
X7323218Y11192502D01*
X7331681Y11184038D01*
Y11167110D01*
Y11179806D01*
X7314753D01*
X8034438Y11251770D02*
X8030206Y11256002D01*
X8021742D01*
X8017510Y11251770D01*
Y11247538D01*
X8021742Y11243306D01*
X8030206D01*
X8034438Y11239074D01*
Y11234842D01*
X8030206Y11230610D01*
X8021742D01*
X8017510Y11234842D01*
X8059830Y11251770D02*
X8055598Y11256002D01*
X8047134D01*
X8042902Y11251770D01*
Y11234842D01*
X8047134Y11230610D01*
X8055598D01*
X8059830Y11234842D01*
X8068294Y11256002D02*
Y11230610D01*
X8085222D01*
X8093686Y11256002D02*
Y11230610D01*
X8106382D01*
X8110613Y11234842D01*
Y11239074D01*
X8106382Y11243306D01*
X8093686D01*
X8106382D01*
X8110613Y11247538D01*
Y11251770D01*
X8106382Y11256002D01*
X8093686D01*
X8034438Y11129002D02*
X8017510D01*
Y11103610D01*
X8034438D01*
X8017510Y11116306D02*
X8025974D01*
X8042902Y11103610D02*
Y11129002D01*
X8059830Y11103610D01*
Y11129002D01*
X8017510Y11319502D02*
Y11302574D01*
X8025974Y11294110D01*
X8034438Y11302574D01*
Y11319502D01*
X8059830Y11315270D02*
X8055598Y11319502D01*
X8047134D01*
X8042902Y11315270D01*
Y11298342D01*
X8047134Y11294110D01*
X8055598D01*
X8059830Y11298342D01*
X8085222Y11315270D02*
X8080990Y11319502D01*
X8072526D01*
X8068294Y11315270D01*
Y11298342D01*
X8072526Y11294110D01*
X8080990D01*
X8085222Y11298342D01*
X8093686Y11319502D02*
Y11294110D01*
X8106382D01*
X8110613Y11298342D01*
Y11302574D01*
X8106382Y11306806D01*
X8093686D01*
X8106382D01*
X8110613Y11311038D01*
Y11315270D01*
X8106382Y11319502D01*
X8093686D01*
X8034438Y9973302D02*
X8017510D01*
Y9947910D01*
X8034438D01*
X8017510Y9960606D02*
X8025974D01*
X8042902Y9947910D02*
Y9973302D01*
X8059830Y9947910D01*
Y9973302D01*
X7280898Y9969070D02*
X7276666Y9973302D01*
X7268202D01*
X7263970Y9969070D01*
Y9952142D01*
X7268202Y9947910D01*
X7276666D01*
X7280898Y9952142D01*
Y9960606D01*
X7272434D01*
X7289362Y9947910D02*
Y9973302D01*
X7306289Y9947910D01*
Y9973302D01*
X7314753D02*
Y9947910D01*
X7327449D01*
X7331681Y9952142D01*
Y9969070D01*
X7327449Y9973302D01*
X7314753D01*
X7255506Y10032570D02*
X7251274Y10036802D01*
X7242810D01*
X7238578Y10032570D01*
Y10028338D01*
X7242810Y10024106D01*
X7251274D01*
X7255506Y10019874D01*
Y10015642D01*
X7251274Y10011410D01*
X7242810D01*
X7238578Y10015642D01*
X7263970Y10036802D02*
Y10011410D01*
X7276666D01*
X7280898Y10015642D01*
Y10032570D01*
X7276666Y10036802D01*
X7263970D01*
X7289362Y10011410D02*
Y10028338D01*
X7297826Y10036802D01*
X7306289Y10028338D01*
Y10011410D01*
Y10024106D01*
X7289362D01*
X7314753Y10011410D02*
Y10028338D01*
X7323218Y10036802D01*
X7331681Y10028338D01*
Y10011410D01*
Y10024106D01*
X7314753D01*
X7242810Y10163802D02*
Y10146874D01*
X7251274Y10138410D01*
X7259738Y10146874D01*
Y10163802D01*
X7285130Y10159570D02*
X7280898Y10163802D01*
X7272434D01*
X7268202Y10159570D01*
Y10142642D01*
X7272434Y10138410D01*
X7280898D01*
X7285130Y10142642D01*
X7310522Y10159570D02*
X7306290Y10163802D01*
X7297826D01*
X7293594Y10159570D01*
Y10142642D01*
X7297826Y10138410D01*
X7306290D01*
X7310522Y10142642D01*
X7318986Y10138410D02*
Y10155338D01*
X7327450Y10163802D01*
X7335913Y10155338D01*
Y10138410D01*
Y10151106D01*
X7318986D01*
X7259738Y10096070D02*
X7255506Y10100302D01*
X7247042D01*
X7242810Y10096070D01*
Y10091838D01*
X7247042Y10087606D01*
X7255506D01*
X7259738Y10083374D01*
Y10079142D01*
X7255506Y10074910D01*
X7247042D01*
X7242810Y10079142D01*
X7285130Y10096070D02*
X7280898Y10100302D01*
X7272434D01*
X7268202Y10096070D01*
Y10079142D01*
X7272434Y10074910D01*
X7280898D01*
X7285130Y10079142D01*
X7293594Y10100302D02*
Y10074910D01*
X7310522D01*
X7318986D02*
Y10091838D01*
X7327450Y10100302D01*
X7335913Y10091838D01*
Y10074910D01*
Y10087606D01*
X7318986D01*
X7242810Y9058902D02*
Y9041974D01*
X7251274Y9033510D01*
X7259738Y9041974D01*
Y9058902D01*
X7285130Y9054670D02*
X7280898Y9058902D01*
X7272434D01*
X7268202Y9054670D01*
Y9037742D01*
X7272434Y9033510D01*
X7280898D01*
X7285130Y9037742D01*
X7310522Y9054670D02*
X7306290Y9058902D01*
X7297826D01*
X7293594Y9054670D01*
Y9037742D01*
X7297826Y9033510D01*
X7306290D01*
X7310522Y9037742D01*
X7318986Y9033510D02*
Y9050438D01*
X7327450Y9058902D01*
X7335913Y9050438D01*
Y9033510D01*
Y9046206D01*
X7318986D01*
X8034438Y10096070D02*
X8030206Y10100302D01*
X8021742D01*
X8017510Y10096070D01*
Y10091838D01*
X8021742Y10087606D01*
X8030206D01*
X8034438Y10083374D01*
Y10079142D01*
X8030206Y10074910D01*
X8021742D01*
X8017510Y10079142D01*
X8059830Y10096070D02*
X8055598Y10100302D01*
X8047134D01*
X8042902Y10096070D01*
Y10079142D01*
X8047134Y10074910D01*
X8055598D01*
X8059830Y10079142D01*
X8068294Y10100302D02*
Y10074910D01*
X8085222D01*
X8093686Y10100302D02*
Y10074910D01*
X8106382D01*
X8110613Y10079142D01*
Y10083374D01*
X8106382Y10087606D01*
X8093686D01*
X8106382D01*
X8110613Y10091838D01*
Y10096070D01*
X8106382Y10100302D01*
X8093686D01*
X8017510Y10163802D02*
Y10146874D01*
X8025974Y10138410D01*
X8034438Y10146874D01*
Y10163802D01*
X8059830Y10159570D02*
X8055598Y10163802D01*
X8047134D01*
X8042902Y10159570D01*
Y10142642D01*
X8047134Y10138410D01*
X8055598D01*
X8059830Y10142642D01*
X8085222Y10159570D02*
X8080990Y10163802D01*
X8072526D01*
X8068294Y10159570D01*
Y10142642D01*
X8072526Y10138410D01*
X8080990D01*
X8085222Y10142642D01*
X8093686Y10163802D02*
Y10138410D01*
X8106382D01*
X8110613Y10142642D01*
Y10146874D01*
X8106382Y10151106D01*
X8093686D01*
X8106382D01*
X8110613Y10155338D01*
Y10159570D01*
X8106382Y10163802D01*
X8093686D01*
X8017510Y9058902D02*
Y9041974D01*
X8025974Y9033510D01*
X8034438Y9041974D01*
Y9058902D01*
X8059830Y9054670D02*
X8055598Y9058902D01*
X8047134D01*
X8042902Y9054670D01*
Y9037742D01*
X8047134Y9033510D01*
X8055598D01*
X8059830Y9037742D01*
X8085222Y9054670D02*
X8080990Y9058902D01*
X8072526D01*
X8068294Y9054670D01*
Y9037742D01*
X8072526Y9033510D01*
X8080990D01*
X8085222Y9037742D01*
X8093686Y9058902D02*
Y9033510D01*
X8106382D01*
X8110613Y9037742D01*
Y9041974D01*
X8106382Y9046206D01*
X8093686D01*
X8106382D01*
X8110613Y9050438D01*
Y9054670D01*
X8106382Y9058902D01*
X8093686D01*
X7259738Y8991170D02*
X7255506Y8995402D01*
X7247042D01*
X7242810Y8991170D01*
Y8986938D01*
X7247042Y8982706D01*
X7255506D01*
X7259738Y8978474D01*
Y8974242D01*
X7255506Y8970010D01*
X7247042D01*
X7242810Y8974242D01*
X7285130Y8991170D02*
X7280898Y8995402D01*
X7272434D01*
X7268202Y8991170D01*
Y8974242D01*
X7272434Y8970010D01*
X7280898D01*
X7285130Y8974242D01*
X7293594Y8995402D02*
Y8970010D01*
X7310522D01*
X7318986D02*
Y8986938D01*
X7327450Y8995402D01*
X7335913Y8986938D01*
Y8970010D01*
Y8982706D01*
X7318986D01*
X7255506Y8927670D02*
X7251274Y8931902D01*
X7242810D01*
X7238578Y8927670D01*
Y8923438D01*
X7242810Y8919206D01*
X7251274D01*
X7255506Y8914974D01*
Y8910742D01*
X7251274Y8906510D01*
X7242810D01*
X7238578Y8910742D01*
X7263970Y8931902D02*
Y8906510D01*
X7276666D01*
X7280898Y8910742D01*
Y8927670D01*
X7276666Y8931902D01*
X7263970D01*
X7289362Y8906510D02*
Y8923438D01*
X7297826Y8931902D01*
X7306289Y8923438D01*
Y8906510D01*
Y8919206D01*
X7289362D01*
X7314753Y8906510D02*
Y8923438D01*
X7323218Y8931902D01*
X7331681Y8923438D01*
Y8906510D01*
Y8919206D01*
X7314753D01*
X7280898Y8864170D02*
X7276666Y8868402D01*
X7268202D01*
X7263970Y8864170D01*
Y8847242D01*
X7268202Y8843010D01*
X7276666D01*
X7280898Y8847242D01*
Y8855706D01*
X7272434D01*
X7289362Y8843010D02*
Y8868402D01*
X7306289Y8843010D01*
Y8868402D01*
X7314753D02*
Y8843010D01*
X7327449D01*
X7331681Y8847242D01*
Y8864170D01*
X7327449Y8868402D01*
X7314753D01*
X8034438D02*
X8017510D01*
Y8843010D01*
X8034438D01*
X8017510Y8855706D02*
X8025974D01*
X8042902Y8843010D02*
Y8868402D01*
X8059830Y8843010D01*
Y8868402D01*
X8034438Y8991170D02*
X8030206Y8995402D01*
X8021742D01*
X8017510Y8991170D01*
Y8986938D01*
X8021742Y8982706D01*
X8030206D01*
X8034438Y8978474D01*
Y8974242D01*
X8030206Y8970010D01*
X8021742D01*
X8017510Y8974242D01*
X8059830Y8991170D02*
X8055598Y8995402D01*
X8047134D01*
X8042902Y8991170D01*
Y8974242D01*
X8047134Y8970010D01*
X8055598D01*
X8059830Y8974242D01*
X8068294Y8995402D02*
Y8970010D01*
X8085222D01*
X8093686Y8995402D02*
Y8970010D01*
X8106382D01*
X8110613Y8974242D01*
Y8978474D01*
X8106382Y8982706D01*
X8093686D01*
X8106382D01*
X8110613Y8986938D01*
Y8991170D01*
X8106382Y8995402D01*
X8093686D01*
D26*
X7945541Y6949216D02*
Y7050784D01*
X7996325D01*
X8013253Y7033856D01*
Y7000000D01*
X7996325Y6983072D01*
X7945541D01*
X7979397D02*
X8013253Y6949216D01*
X8047109D02*
X8080964D01*
X8064036D01*
Y7050784D01*
X8047109Y7033856D01*
X8199459Y6949216D02*
X8131748D01*
X8199459Y7016928D01*
Y7033856D01*
X8182532Y7050784D01*
X8148676D01*
X8131748Y7033856D01*
X7922469Y7971717D02*
Y8073284D01*
X7973253D01*
X7990180Y8056356D01*
Y8022500D01*
X7973253Y8005572D01*
X7922469D01*
X7956325D02*
X7990180Y7971717D01*
X8024036D02*
X8057892D01*
X8040964D01*
Y8073284D01*
X8024036Y8056356D01*
X8108676Y7971717D02*
X8142531D01*
X8125604D01*
Y8073284D01*
X8108676Y8056356D01*
X3110541Y12011716D02*
Y12113284D01*
X3161325D01*
X3178252Y12096356D01*
Y12062500D01*
X3161325Y12045572D01*
X3110541D01*
X3144397D02*
X3178252Y12011716D01*
X3212108D02*
X3245964D01*
X3229036D01*
Y12113284D01*
X3212108Y12096356D01*
X3296748D02*
X3313676Y12113284D01*
X3347531D01*
X3364459Y12096356D01*
Y12028644D01*
X3347531Y12011716D01*
X3313676D01*
X3296748Y12028644D01*
Y12096356D01*
D27*
X7992861Y9666717D02*
Y9768284D01*
X8043644D01*
X8060572Y9751356D01*
Y9717500D01*
X8043644Y9700572D01*
X7992861D01*
X8026716D02*
X8060572Y9666717D01*
X8162139D02*
X8094428D01*
X8162139Y9734428D01*
Y9751356D01*
X8145212Y9768284D01*
X8111356D01*
X8094428Y9751356D01*
X7998059Y10818716D02*
Y10920284D01*
X8048842D01*
X8065770Y10903356D01*
Y10869500D01*
X8048842Y10852572D01*
X7998059D01*
X8031914D02*
X8065770Y10818716D01*
X8099626D02*
X8133482D01*
X8116554D01*
Y10920284D01*
X8099626Y10903356D01*
X7995361Y8564217D02*
Y8665784D01*
X8046144D01*
X8063072Y8648856D01*
Y8615000D01*
X8046144Y8598072D01*
X7995361D01*
X8029217D02*
X8063072Y8564217D01*
X8096928Y8648856D02*
X8113856Y8665784D01*
X8147712D01*
X8164639Y8648856D01*
Y8631928D01*
X8147712Y8615000D01*
X8130784D01*
X8147712D01*
X8164639Y8598072D01*
Y8581144D01*
X8147712Y8564217D01*
X8113856D01*
X8096928Y8581144D01*
X7366000Y11587447D02*
X7399856D01*
X7382928D01*
Y11485880D01*
X7366000D01*
X7399856D01*
X7518351D02*
X7450639D01*
X7518351Y11553591D01*
Y11570519D01*
X7501423Y11587447D01*
X7467567D01*
X7450639Y11570519D01*
X7619918D02*
X7602990Y11587447D01*
X7569134D01*
X7552207Y11570519D01*
Y11502808D01*
X7569134Y11485880D01*
X7602990D01*
X7619918Y11502808D01*
X7755341Y11587447D02*
Y11485880D01*
X7806125D01*
X7823052Y11502808D01*
Y11519736D01*
X7806125Y11536663D01*
X7755341D01*
X7806125D01*
X7823052Y11553591D01*
Y11570519D01*
X7806125Y11587447D01*
X7755341D01*
X7856908Y11553591D02*
Y11502808D01*
X7873836Y11485880D01*
X7924620D01*
Y11553591D01*
X7975403Y11485880D02*
Y11570519D01*
Y11536663D01*
X7958476D01*
X7992331D01*
X7975403D01*
Y11570519D01*
X7992331Y11587447D01*
X8060043Y11485880D02*
Y11570519D01*
Y11536663D01*
X8043115D01*
X8076971D01*
X8060043D01*
Y11570519D01*
X8076971Y11587447D01*
X8229322Y11485880D02*
X8263177D01*
X8246249D01*
Y11587447D01*
X8229322Y11570519D01*
X7366000Y10431747D02*
X7399856D01*
X7382928D01*
Y10330180D01*
X7366000D01*
X7399856D01*
X7518351D02*
X7450639D01*
X7518351Y10397891D01*
Y10414819D01*
X7501423Y10431747D01*
X7467567D01*
X7450639Y10414819D01*
X7619918D02*
X7602990Y10431747D01*
X7569134D01*
X7552207Y10414819D01*
Y10347108D01*
X7569134Y10330180D01*
X7602990D01*
X7619918Y10347108D01*
X7755341Y10431747D02*
Y10330180D01*
X7806125D01*
X7823052Y10347108D01*
Y10364036D01*
X7806125Y10380963D01*
X7755341D01*
X7806125D01*
X7823052Y10397891D01*
Y10414819D01*
X7806125Y10431747D01*
X7755341D01*
X7856908Y10397891D02*
Y10347108D01*
X7873836Y10330180D01*
X7924620D01*
Y10397891D01*
X7975403Y10330180D02*
Y10414819D01*
Y10380963D01*
X7958476D01*
X7992331D01*
X7975403D01*
Y10414819D01*
X7992331Y10431747D01*
X8060043Y10330180D02*
Y10414819D01*
Y10380963D01*
X8043115D01*
X8076971D01*
X8060043D01*
Y10414819D01*
X8076971Y10431747D01*
X8297033Y10330180D02*
X8229322D01*
X8297033Y10397891D01*
Y10414819D01*
X8280105Y10431747D01*
X8246249D01*
X8229322Y10414819D01*
X7366000Y9326847D02*
X7399856D01*
X7382928D01*
Y9225280D01*
X7366000D01*
X7399856D01*
X7518351D02*
X7450639D01*
X7518351Y9292991D01*
Y9309919D01*
X7501423Y9326847D01*
X7467567D01*
X7450639Y9309919D01*
X7619918D02*
X7602990Y9326847D01*
X7569134D01*
X7552207Y9309919D01*
Y9242208D01*
X7569134Y9225280D01*
X7602990D01*
X7619918Y9242208D01*
X7755341Y9326847D02*
Y9225280D01*
X7806125D01*
X7823052Y9242208D01*
Y9259136D01*
X7806125Y9276063D01*
X7755341D01*
X7806125D01*
X7823052Y9292991D01*
Y9309919D01*
X7806125Y9326847D01*
X7755341D01*
X7856908Y9292991D02*
Y9242208D01*
X7873836Y9225280D01*
X7924620D01*
Y9292991D01*
X7975403Y9225280D02*
Y9309919D01*
Y9276063D01*
X7958476D01*
X7992331D01*
X7975403D01*
Y9309919D01*
X7992331Y9326847D01*
X8060043Y9225280D02*
Y9309919D01*
Y9276063D01*
X8043115D01*
X8076971D01*
X8060043D01*
Y9309919D01*
X8076971Y9326847D01*
X8229322Y9309919D02*
X8246249Y9326847D01*
X8280105D01*
X8297033Y9309919D01*
Y9292991D01*
X8280105Y9276063D01*
X8263177D01*
X8280105D01*
X8297033Y9259136D01*
Y9242208D01*
X8280105Y9225280D01*
X8246249D01*
X8229322Y9242208D01*
D28*
X7396480Y11409779D02*
X7481119Y11325140D01*
X7396480D02*
X7481119Y11409779D01*
X7396480Y11367459D02*
X7481119D01*
X7438800Y11325140D02*
Y11409779D01*
X7396480Y9149179D02*
X7481119Y9064540D01*
X7396480D02*
X7481119Y9149179D01*
X7396480Y9106859D02*
X7481119D01*
X7438800Y9064540D02*
Y9149179D01*
X7396480Y10254079D02*
X7481119Y10169440D01*
X7396480D02*
X7481119Y10254079D01*
X7396480Y10211759D02*
X7481119D01*
X7438800Y10169440D02*
Y10254079D01*
D29*
X8566170Y6965950D02*
Y7004038D01*
X8591562Y6965950D01*
Y7004038D01*
X8629650Y6997690D02*
X8623302Y7004038D01*
X8610606D01*
X8604258Y6997690D01*
Y6972298D01*
X8610606Y6965950D01*
X8623302D01*
X8629650Y6972298D01*
X8566170Y7118350D02*
Y7156438D01*
X8591562Y7118350D01*
Y7156438D01*
X8629650Y7150090D02*
X8623302Y7156438D01*
X8610606D01*
X8604258Y7150090D01*
Y7124698D01*
X8610606Y7118350D01*
X8623302D01*
X8629650Y7124698D01*
X3302035Y11874490D02*
X3295687Y11880838D01*
X3282991D01*
X3276643Y11874490D01*
Y11849098D01*
X3282991Y11842750D01*
X3295687D01*
X3302035Y11849098D01*
Y11861794D01*
X3289339D01*
X3314730Y11842750D02*
Y11880838D01*
X3333774D01*
X3340122Y11874490D01*
Y11861794D01*
X3333774Y11855446D01*
X3314730D01*
X3352818Y11880838D02*
X3365514D01*
X3359166D01*
Y11842750D01*
X3352818D01*
X3365514D01*
X3403602Y11880838D02*
X3390906D01*
X3384558Y11874490D01*
Y11849098D01*
X3390906Y11842750D01*
X3403602D01*
X3409950Y11849098D01*
Y11874490D01*
X3403602Y11880838D01*
X3295683Y11347450D02*
Y11385538D01*
X3314726D01*
X3321074Y11379190D01*
Y11366494D01*
X3314726Y11360146D01*
X3295683D01*
X3333770Y11385538D02*
Y11347450D01*
X3346466Y11360146D01*
X3359162Y11347450D01*
Y11385538D01*
X3371858Y11347450D02*
Y11385538D01*
X3384554Y11372842D01*
X3397250Y11385538D01*
Y11347450D01*
X2470150Y11080750D02*
Y11118838D01*
X2489194D01*
X2495542Y11112490D01*
Y11099794D01*
X2489194Y11093446D01*
X2470150D01*
X2508238Y11118838D02*
Y11080750D01*
X2520934Y11093446D01*
X2533630Y11080750D01*
Y11118838D01*
X2546326Y11080750D02*
Y11118838D01*
X2559022Y11106142D01*
X2571717Y11118838D01*
Y11080750D01*
X2470150Y11334750D02*
Y11372838D01*
X2489194D01*
X2495542Y11366490D01*
Y11353794D01*
X2489194Y11347446D01*
X2470150D01*
X2482846D02*
X2495542Y11334750D01*
X2508238Y11372838D02*
X2533630Y11334750D01*
Y11372838D02*
X2508238Y11334750D01*
X2470150Y11499838D02*
Y11474446D01*
X2482846Y11461750D01*
X2495542Y11474446D01*
Y11499838D01*
X2508238D02*
X2520934D01*
X2514586D01*
Y11461750D01*
X2508238D01*
X2520934D01*
X2539978D02*
Y11499838D01*
X2565370Y11461750D01*
Y11499838D01*
X2470150Y11245838D02*
X2495542D01*
X2482846D01*
Y11207750D01*
X2508238Y11245838D02*
X2533630Y11207750D01*
Y11245838D02*
X2508238Y11207750D01*
X2470150Y11715750D02*
Y11753838D01*
X2489194D01*
X2495542Y11747490D01*
Y11734794D01*
X2489194Y11728446D01*
X2470150D01*
X2482846D02*
X2495542Y11715750D01*
X2533630Y11753838D02*
X2508238D01*
Y11715750D01*
X2533630D01*
X2508238Y11734794D02*
X2520934D01*
X2470150Y11868138D02*
Y11830050D01*
Y11849094D01*
X2495542D01*
Y11868138D01*
Y11830050D01*
X2508238Y11868138D02*
Y11830050D01*
X2527282D01*
X2533630Y11836398D01*
Y11861790D01*
X2527282Y11868138D01*
X2508238D01*
X2495542Y11620490D02*
X2489194Y11626838D01*
X2476498D01*
X2470150Y11620490D01*
Y11595098D01*
X2476498Y11588750D01*
X2489194D01*
X2495542Y11595098D01*
Y11607794D01*
X2482846D01*
X2508238Y11588750D02*
Y11626838D01*
X2533630Y11588750D01*
Y11626838D01*
X2546326D02*
Y11588750D01*
X2565370D01*
X2571717Y11595098D01*
Y11620490D01*
X2565370Y11626838D01*
X2546326D01*
X8553474Y7696190D02*
X8547126Y7702538D01*
X8534430D01*
X8528083Y7696190D01*
Y7689842D01*
X8534430Y7683494D01*
X8547126D01*
X8553474Y7677146D01*
Y7670798D01*
X8547126Y7664450D01*
X8534430D01*
X8528083Y7670798D01*
X8591562Y7702538D02*
X8566170D01*
Y7664450D01*
X8591562D01*
X8566170Y7683494D02*
X8578866D01*
X8604258Y7702538D02*
X8629650D01*
X8616954D01*
Y7664450D01*
X8528083Y7956538D02*
Y7931146D01*
X8540778Y7918450D01*
X8553474Y7931146D01*
Y7956538D01*
X8591562Y7950190D02*
X8585214Y7956538D01*
X8572518D01*
X8566170Y7950190D01*
Y7924798D01*
X8572518Y7918450D01*
X8585214D01*
X8591562Y7924798D01*
X8629650Y7950190D02*
X8623302Y7956538D01*
X8610606D01*
X8604258Y7950190D01*
Y7924798D01*
X8610606Y7918450D01*
X8623302D01*
X8629650Y7924798D01*
X8553474Y7823190D02*
X8547126Y7829538D01*
X8534430D01*
X8528083Y7823190D01*
Y7797798D01*
X8534430Y7791450D01*
X8547126D01*
X8553474Y7797798D01*
Y7810494D01*
X8540778D01*
X8566170Y7791450D02*
Y7829538D01*
X8591562Y7791450D01*
Y7829538D01*
X8604258D02*
Y7791450D01*
X8623302D01*
X8629650Y7797798D01*
Y7823190D01*
X8623302Y7829538D01*
X8604258D01*
X8451907Y7283450D02*
Y7321538D01*
X8470951D01*
X8477299Y7315190D01*
Y7302494D01*
X8470951Y7296146D01*
X8451907D01*
X8464603D02*
X8477299Y7283450D01*
X8515387Y7321538D02*
X8489995D01*
Y7283450D01*
X8515387D01*
X8489995Y7302494D02*
X8502691D01*
X8553474Y7315190D02*
X8547126Y7321538D01*
X8534430D01*
X8528083Y7315190D01*
Y7308842D01*
X8534430Y7302494D01*
X8547126D01*
X8553474Y7296146D01*
Y7289798D01*
X8547126Y7283450D01*
X8534430D01*
X8528083Y7289798D01*
X8591562Y7321538D02*
X8566170D01*
Y7283450D01*
X8591562D01*
X8566170Y7302494D02*
X8578866D01*
X8604258Y7321538D02*
X8629650D01*
X8616954D01*
Y7283450D01*
X8566170Y7537450D02*
Y7575538D01*
X8585214D01*
X8591562Y7569190D01*
Y7556494D01*
X8585214Y7550146D01*
X8566170D01*
X8578866D02*
X8591562Y7537450D01*
X8604258Y7575538D02*
X8629650Y7537450D01*
Y7575538D02*
X8604258Y7537450D01*
X8566170Y7448538D02*
X8591562D01*
X8578866D01*
Y7410450D01*
X8604258Y7448538D02*
X8629650Y7410450D01*
Y7448538D02*
X8604258Y7410450D01*
X3124259Y10623538D02*
Y10591798D01*
X3130607Y10585450D01*
X3143303D01*
X3149651Y10591798D01*
Y10623538D01*
X3162347Y10585450D02*
Y10610842D01*
X3175043Y10623538D01*
X3187739Y10610842D01*
Y10585450D01*
Y10604494D01*
X3162347D01*
X3200435Y10585450D02*
Y10623538D01*
X3219478D01*
X3225826Y10617190D01*
Y10604494D01*
X3219478Y10598146D01*
X3200435D01*
X3213130D02*
X3225826Y10585450D01*
X3238522Y10623538D02*
X3263914D01*
X3251218D01*
Y10585450D01*
X3276610D02*
X3289306D01*
X3282958D01*
Y10623538D01*
X3276610Y10617190D01*
X3346438Y10585450D02*
Y10623538D01*
X3365482D01*
X3371830Y10617190D01*
Y10604494D01*
X3365482Y10598146D01*
X3346438D01*
X3359134D02*
X3371830Y10585450D01*
X3384526Y10623538D02*
X3409917Y10585450D01*
Y10623538D02*
X3384526Y10585450D01*
X3124259Y10877538D02*
Y10845798D01*
X3130607Y10839450D01*
X3143303D01*
X3149651Y10845798D01*
Y10877538D01*
X3162347Y10839450D02*
Y10864842D01*
X3175043Y10877538D01*
X3187739Y10864842D01*
Y10839450D01*
Y10858494D01*
X3162347D01*
X3200435Y10839450D02*
Y10877538D01*
X3219478D01*
X3225826Y10871190D01*
Y10858494D01*
X3219478Y10852146D01*
X3200435D01*
X3213130D02*
X3225826Y10839450D01*
X3238522Y10877538D02*
X3263914D01*
X3251218D01*
Y10839450D01*
X3276610D02*
X3289306D01*
X3282958D01*
Y10877538D01*
X3276610Y10871190D01*
X3346438Y10877538D02*
X3371830D01*
X3359134D01*
Y10839450D01*
X3384526Y10877538D02*
X3409917Y10839450D01*
Y10877538D02*
X3384526Y10839450D01*
X3333742Y11633190D02*
X3327394Y11639538D01*
X3314698D01*
X3308350Y11633190D01*
Y11607798D01*
X3314698Y11601450D01*
X3327394D01*
X3333742Y11607798D01*
Y11620494D01*
X3321046D01*
X3346438Y11601450D02*
Y11639538D01*
X3371830Y11601450D01*
Y11639538D01*
X3384526D02*
Y11601450D01*
X3403570D01*
X3409917Y11607798D01*
Y11633190D01*
X3403570Y11639538D01*
X3384526D01*
X5594350Y11125190D02*
X5600698Y11131538D01*
X5613394D01*
X5619742Y11125190D01*
Y11118842D01*
X5613394Y11112494D01*
X5607046D01*
X5613394D01*
X5619742Y11106146D01*
Y11099798D01*
X5613394Y11093450D01*
X5600698D01*
X5594350Y11099798D01*
X5632438Y11093450D02*
Y11099798D01*
X5638786D01*
Y11093450D01*
X5632438D01*
X5664178Y11125190D02*
X5670526Y11131538D01*
X5683222D01*
X5689570Y11125190D01*
Y11118842D01*
X5683222Y11112494D01*
X5676874D01*
X5683222D01*
X5689570Y11106146D01*
Y11099798D01*
X5683222Y11093450D01*
X5670526D01*
X5664178Y11099798D01*
X5702265Y11131538D02*
Y11106146D01*
X5714961Y11093450D01*
X5727657Y11106146D01*
Y11131538D01*
X5607042Y8572490D02*
X5600694Y8578838D01*
X5587998D01*
X5581650Y8572490D01*
Y8566142D01*
X5587998Y8559794D01*
X5600694D01*
X5607042Y8553446D01*
Y8547098D01*
X5600694Y8540750D01*
X5587998D01*
X5581650Y8547098D01*
X5619738Y8578838D02*
Y8540750D01*
X5638782D01*
X5645130Y8547098D01*
Y8572490D01*
X5638782Y8578838D01*
X5619738D01*
X5657826Y8540750D02*
Y8566142D01*
X5670522Y8578838D01*
X5683217Y8566142D01*
Y8540750D01*
Y8559794D01*
X5657826D01*
X5619742Y8318490D02*
X5613394Y8324838D01*
X5600698D01*
X5594350Y8318490D01*
Y8312142D01*
X5600698Y8305794D01*
X5613394D01*
X5619742Y8299446D01*
Y8293098D01*
X5613394Y8286750D01*
X5600698D01*
X5594350Y8293098D01*
X5657830Y8324838D02*
X5632438D01*
Y8286750D01*
X5657830D01*
X5632438Y8305794D02*
X5645134D01*
X5670526Y8324838D02*
X5695917D01*
X5683222D01*
Y8286750D01*
X5594350Y8032750D02*
Y8070838D01*
X5613394D01*
X5619742Y8064490D01*
Y8051794D01*
X5613394Y8045446D01*
X5594350D01*
X5607046D02*
X5619742Y8032750D01*
X5657830Y8070838D02*
X5632438D01*
Y8032750D01*
X5657830D01*
X5632438Y8051794D02*
X5645134D01*
X5695917Y8064490D02*
X5689570Y8070838D01*
X5676874D01*
X5670526Y8064490D01*
Y8058142D01*
X5676874Y8051794D01*
X5689570D01*
X5695917Y8045446D01*
Y8039098D01*
X5689570Y8032750D01*
X5676874D01*
X5670526Y8039098D01*
X5734005Y8070838D02*
X5708613D01*
Y8032750D01*
X5734005D01*
X5708613Y8051794D02*
X5721309D01*
X5746701Y8070838D02*
X5772093D01*
X5759397D01*
Y8032750D01*
X5607042Y8826490D02*
X5600694Y8832838D01*
X5587998D01*
X5581650Y8826490D01*
Y8820142D01*
X5587998Y8813794D01*
X5600694D01*
X5607042Y8807446D01*
Y8801098D01*
X5600694Y8794750D01*
X5587998D01*
X5581650Y8801098D01*
X5645130Y8826490D02*
X5638782Y8832838D01*
X5626086D01*
X5619738Y8826490D01*
Y8801098D01*
X5626086Y8794750D01*
X5638782D01*
X5645130Y8801098D01*
X5657826Y8832838D02*
Y8794750D01*
X5683217D01*
%TF.MD5,c38de2148f0df4c3c2a3dc387bcc629e*%
M02*
