%TF.GenerationSoftware,Altium Limited,Altium Designer,25.3.3 (18)*%
G04 Layer_Color=8421504*
%FSLAX45Y45*%
%MOMM*%
%TF.SameCoordinates,0761283E-10EF-41A2-BAA1-EC4CD2C5D14C*%
%TF.FilePolarity,Positive*%
%TF.FileFunction,Paste,Top*%
%TF.Part,Single*%
G01*
G75*
G36*
X3004450Y12041520D02*
X2915550D01*
Y12107560D01*
X3004450D01*
Y12041520D01*
D02*
G37*
G36*
Y11911980D02*
X2915550D01*
Y11978020D01*
X3004450D01*
Y11911980D01*
D02*
G37*
G36*
X7959090Y11251910D02*
X7816850D01*
Y11295090D01*
X7959090D01*
Y11251910D01*
D02*
G37*
G36*
X7524750D02*
X7382510D01*
Y11295090D01*
X7524750D01*
Y11251910D01*
D02*
G37*
G36*
X7959090Y11186910D02*
X7816850D01*
Y11230090D01*
X7959090D01*
Y11186910D01*
D02*
G37*
G36*
X7524750D02*
X7382510D01*
Y11230090D01*
X7524750D01*
Y11186910D01*
D02*
G37*
G36*
X7959090Y11121910D02*
X7816850D01*
Y11165090D01*
X7959090D01*
Y11121910D01*
D02*
G37*
G36*
X7524750D02*
X7382510D01*
Y11165090D01*
X7524750D01*
Y11121910D01*
D02*
G37*
G36*
X7959090Y11056910D02*
X7816850D01*
Y11100090D01*
X7959090D01*
Y11056910D01*
D02*
G37*
G36*
X7524750D02*
X7382510D01*
Y11100090D01*
X7524750D01*
Y11056910D01*
D02*
G37*
G36*
X7932420Y10888550D02*
X7843520D01*
Y10954590D01*
X7932420D01*
Y10888550D01*
D02*
G37*
G36*
Y10759010D02*
X7843520D01*
Y10825050D01*
X7932420D01*
Y10759010D01*
D02*
G37*
G36*
X7959090Y10096210D02*
X7816850D01*
Y10139390D01*
X7959090D01*
Y10096210D01*
D02*
G37*
G36*
X7524750D02*
X7382510D01*
Y10139390D01*
X7524750D01*
Y10096210D01*
D02*
G37*
G36*
X7959090Y10031210D02*
X7816850D01*
Y10074390D01*
X7959090D01*
Y10031210D01*
D02*
G37*
G36*
X7524750D02*
X7382510D01*
Y10074390D01*
X7524750D01*
Y10031210D01*
D02*
G37*
G36*
X7959090Y9966210D02*
X7816850D01*
Y10009390D01*
X7959090D01*
Y9966210D01*
D02*
G37*
G36*
X7524750D02*
X7382510D01*
Y10009390D01*
X7524750D01*
Y9966210D01*
D02*
G37*
G36*
X7959090Y9901210D02*
X7816850D01*
Y9944390D01*
X7959090D01*
Y9901210D01*
D02*
G37*
G36*
X7524750D02*
X7382510D01*
Y9944390D01*
X7524750D01*
Y9901210D01*
D02*
G37*
G36*
X7932420Y9732850D02*
X7843520D01*
Y9798890D01*
X7932420D01*
Y9732850D01*
D02*
G37*
G36*
Y9603310D02*
X7843520D01*
Y9669350D01*
X7932420D01*
Y9603310D01*
D02*
G37*
G36*
X7959090Y8991310D02*
X7816850D01*
Y9034490D01*
X7959090D01*
Y8991310D01*
D02*
G37*
G36*
X7524750D02*
X7382510D01*
Y9034490D01*
X7524750D01*
Y8991310D01*
D02*
G37*
G36*
X7959090Y8926310D02*
X7816850D01*
Y8969490D01*
X7959090D01*
Y8926310D01*
D02*
G37*
G36*
X7524750D02*
X7382510D01*
Y8969490D01*
X7524750D01*
Y8926310D01*
D02*
G37*
G36*
X7959090Y8861310D02*
X7816850D01*
Y8904490D01*
X7959090D01*
Y8861310D01*
D02*
G37*
G36*
X7524750D02*
X7382510D01*
Y8904490D01*
X7524750D01*
Y8861310D01*
D02*
G37*
G36*
X7959090Y8796310D02*
X7816850D01*
Y8839490D01*
X7959090D01*
Y8796310D01*
D02*
G37*
G36*
X7524750D02*
X7382510D01*
Y8839490D01*
X7524750D01*
Y8796310D01*
D02*
G37*
G36*
X7932420Y8627950D02*
X7843520D01*
Y8693990D01*
X7932420D01*
Y8627950D01*
D02*
G37*
G36*
Y8498410D02*
X7843520D01*
Y8564450D01*
X7932420D01*
Y8498410D01*
D02*
G37*
G36*
X8386950Y7874250D02*
X8298050D01*
Y7940290D01*
X8386950D01*
Y7874250D01*
D02*
G37*
G36*
Y7744710D02*
X8298050D01*
Y7810750D01*
X8386950D01*
Y7744710D01*
D02*
G37*
G36*
X8426950Y7021750D02*
X8338050D01*
Y7087790D01*
X8426950D01*
Y7021750D01*
D02*
G37*
G36*
Y6892210D02*
X8338050D01*
Y6958250D01*
X8426950D01*
Y6892210D01*
D02*
G37*
%TF.MD5,8834ec6f3b96db70fd961e2e3c98f51c*%
M02*
