%TF.GenerationSoftware,Altium Limited,Altium Designer,25.3.3 (18)*%
G04 Layer_Color=32896*
%FSLAX45Y45*%
%MOMM*%
%TF.SameCoordinates,0761283E-10EF-41A2-BAA1-EC4CD2C5D14C*%
%TF.FilePolarity,Positive*%
%TF.FileFunction,Legend,Bot*%
%TF.Part,Single*%
G01*
G75*
%TA.AperFunction,NonConductor*%
%ADD27C,0.17780*%
%ADD29C,0.06350*%
%ADD30C,0.20000*%
D27*
X8250739Y8405716D02*
Y8507284D01*
X8199956D01*
X8183028Y8490356D01*
Y8456500D01*
X8199956Y8439572D01*
X8250739D01*
X8216883D02*
X8183028Y8405716D01*
X8149172Y8490356D02*
X8132244Y8507284D01*
X8098388D01*
X8081461Y8490356D01*
Y8473428D01*
X8098388Y8456500D01*
X8081461Y8439572D01*
Y8422644D01*
X8098388Y8405716D01*
X8132244D01*
X8149172Y8422644D01*
Y8439572D01*
X8132244Y8456500D01*
X8149172Y8473428D01*
Y8490356D01*
X8132244Y8456500D02*
X8098388D01*
X8834939Y8405716D02*
Y8507284D01*
X8784156D01*
X8767228Y8490356D01*
Y8456500D01*
X8784156Y8439572D01*
X8834939D01*
X8801083D02*
X8767228Y8405716D01*
X8733372Y8422644D02*
X8716444Y8405716D01*
X8682588D01*
X8665661Y8422644D01*
Y8490356D01*
X8682588Y8507284D01*
X8716444D01*
X8733372Y8490356D01*
Y8473428D01*
X8716444Y8456500D01*
X8665661D01*
X8250739Y9510616D02*
Y9612184D01*
X8199956D01*
X8183028Y9595256D01*
Y9561400D01*
X8199956Y9544472D01*
X8250739D01*
X8216883D02*
X8183028Y9510616D01*
X8081461Y9612184D02*
X8115316Y9595256D01*
X8149172Y9561400D01*
Y9527544D01*
X8132244Y9510616D01*
X8098388D01*
X8081461Y9527544D01*
Y9544472D01*
X8098388Y9561400D01*
X8149172D01*
X8834939Y9510616D02*
Y9612184D01*
X8784156D01*
X8767228Y9595256D01*
Y9561400D01*
X8784156Y9544472D01*
X8834939D01*
X8801083D02*
X8767228Y9510616D01*
X8733372Y9612184D02*
X8665661D01*
Y9595256D01*
X8733372Y9527544D01*
Y9510616D01*
X8834939Y10668017D02*
Y10769584D01*
X8784156D01*
X8767228Y10752656D01*
Y10718800D01*
X8784156Y10701872D01*
X8834939D01*
X8801083D02*
X8767228Y10668017D01*
X8665661Y10769584D02*
X8733372D01*
Y10718800D01*
X8699516Y10735728D01*
X8682588D01*
X8665661Y10718800D01*
Y10684944D01*
X8682588Y10668017D01*
X8716444D01*
X8733372Y10684944D01*
X8250739Y10668017D02*
Y10769584D01*
X8199956D01*
X8183028Y10752656D01*
Y10718800D01*
X8199956Y10701872D01*
X8250739D01*
X8216883D02*
X8183028Y10668017D01*
X8098388D02*
Y10769584D01*
X8149172Y10718800D01*
X8081461D01*
D29*
X5619742Y11620490D02*
X5613394Y11626838D01*
X5600698D01*
X5594350Y11620490D01*
Y11595098D01*
X5600698Y11588750D01*
X5613394D01*
X5619742Y11595098D01*
Y11607794D01*
X5607046D01*
X5632438Y11588750D02*
Y11626838D01*
X5657830Y11588750D01*
Y11626838D01*
X5670526D02*
Y11588750D01*
X5689570D01*
X5695917Y11595098D01*
Y11620490D01*
X5689570Y11626838D01*
X5670526D01*
X8566170Y7448538D02*
X8591562D01*
X8578866D01*
Y7410450D01*
X8604258Y7448538D02*
X8629650Y7410450D01*
Y7448538D02*
X8604258Y7410450D01*
X8566170Y7537450D02*
Y7575538D01*
X8585214D01*
X8591562Y7569190D01*
Y7556494D01*
X8585214Y7550146D01*
X8566170D01*
X8578866D02*
X8591562Y7537450D01*
X8604258Y7575538D02*
X8629650Y7537450D01*
Y7575538D02*
X8604258Y7537450D01*
X5594350Y7562838D02*
Y7531098D01*
X5600698Y7524750D01*
X5613394D01*
X5619742Y7531098D01*
Y7562838D01*
X5632438Y7524750D02*
Y7550142D01*
X5645134Y7562838D01*
X5657830Y7550142D01*
Y7524750D01*
Y7543794D01*
X5632438D01*
X5670526Y7524750D02*
Y7562838D01*
X5689570D01*
X5695917Y7556490D01*
Y7543794D01*
X5689570Y7537446D01*
X5670526D01*
X5683222D02*
X5695917Y7524750D01*
X5708613Y7562838D02*
X5734005D01*
X5721309D01*
Y7524750D01*
X5746701Y7556490D02*
X5753049Y7562838D01*
X5765745D01*
X5772093Y7556490D01*
Y7531098D01*
X5765745Y7524750D01*
X5753049D01*
X5746701Y7531098D01*
Y7556490D01*
X5822877Y7524750D02*
Y7562838D01*
X5841921D01*
X5848269Y7556490D01*
Y7543794D01*
X5841921Y7537446D01*
X5822877D01*
X5835573D02*
X5848269Y7524750D01*
X5860965Y7562838D02*
X5886357Y7524750D01*
Y7562838D02*
X5860965Y7524750D01*
X5594350Y7308838D02*
Y7277098D01*
X5600698Y7270750D01*
X5613394D01*
X5619742Y7277098D01*
Y7308838D01*
X5632438Y7270750D02*
Y7296142D01*
X5645134Y7308838D01*
X5657830Y7296142D01*
Y7270750D01*
Y7289794D01*
X5632438D01*
X5670526Y7270750D02*
Y7308838D01*
X5689570D01*
X5695917Y7302490D01*
Y7289794D01*
X5689570Y7283446D01*
X5670526D01*
X5683222D02*
X5695917Y7270750D01*
X5708613Y7308838D02*
X5734005D01*
X5721309D01*
Y7270750D01*
X5746701Y7302490D02*
X5753049Y7308838D01*
X5765745D01*
X5772093Y7302490D01*
Y7277098D01*
X5765745Y7270750D01*
X5753049D01*
X5746701Y7277098D01*
Y7302490D01*
X5822877Y7308838D02*
X5848269D01*
X5835573D01*
Y7270750D01*
X5860965Y7308838D02*
X5886357Y7270750D01*
Y7308838D02*
X5860965Y7270750D01*
X5594350Y12134838D02*
Y12109446D01*
X5607046Y12096750D01*
X5619742Y12109446D01*
Y12134838D01*
X5632438D02*
Y12096750D01*
X5651482D01*
X5657830Y12103098D01*
Y12109446D01*
X5651482Y12115794D01*
X5632438D01*
X5651482D01*
X5657830Y12122142D01*
Y12128490D01*
X5651482Y12134838D01*
X5632438D01*
X5670526D02*
Y12103098D01*
X5676874Y12096750D01*
X5689570D01*
X5695917Y12103098D01*
Y12134838D01*
X5734005Y12128490D02*
X5727657Y12134838D01*
X5714961D01*
X5708613Y12128490D01*
Y12122142D01*
X5714961Y12115794D01*
X5727657D01*
X5734005Y12109446D01*
Y12103098D01*
X5727657Y12096750D01*
X5714961D01*
X5708613Y12103098D01*
D30*
X8301600Y10657100D02*
X8409100D01*
X8301600D02*
Y10884600D01*
X8409100D01*
Y10657100D02*
Y10884600D01*
X8603369Y10655400D02*
Y10882900D01*
X8495869D02*
X8603369D01*
X8495869Y10655400D02*
Y10882900D01*
Y10655400D02*
X8603369D01*
X8495869Y9498000D02*
X8603369D01*
X8495869D02*
Y9725500D01*
X8603369D01*
Y9498000D02*
Y9725500D01*
X8409100Y9499700D02*
Y9727200D01*
X8301600D02*
X8409100D01*
X8301600Y9499700D02*
Y9727200D01*
Y9499700D02*
X8409100D01*
X8495869Y8393100D02*
X8603369D01*
X8495869D02*
Y8620600D01*
X8603369D01*
Y8393100D02*
Y8620600D01*
X8409100Y8394800D02*
Y8622300D01*
X8301600D02*
X8409100D01*
X8301600Y8394800D02*
Y8622300D01*
Y8394800D02*
X8409100D01*
%TF.MD5,5677f6084618688aee9b19264194b1e9*%
M02*
