%TF.GenerationSoftware,Altium Limited,Altium Designer,25.3.3 (18)*%
G04 Layer_Color=16711935*
%FSLAX45Y45*%
%MOMM*%
%TF.SameCoordinates,0761283E-10EF-41A2-BAA1-EC4CD2C5D14C*%
%TF.FilePolarity,Positive*%
%TF.FileFunction,Other,Mechanical_13*%
%TF.Part,Single*%
G01*
G75*
%TA.AperFunction,NonConductor*%
%ADD24C,0.12700*%
%ADD28C,0.07620*%
%ADD36C,0.00000*%
%ADD37C,0.02540*%
D24*
X9119300Y7005700D02*
X9195500Y6942200D01*
Y7069200D01*
X9119300Y7005700D02*
X9195500Y7069200D01*
X8773900Y6855700D02*
Y8030698D01*
Y6855700D02*
X9093900D01*
Y8030698D01*
X8773900D02*
X9093900D01*
X8673400Y9076400D02*
X8749600Y9012900D01*
X8673400Y8949400D02*
Y9076400D01*
Y8949400D02*
X8749600Y9012900D01*
X9095000Y8487901D02*
Y9162900D01*
X8775000D02*
X9095000D01*
X8775000Y8487901D02*
Y9162900D01*
Y8487901D02*
X9095000D01*
X8673400Y10181300D02*
X8749600Y10117800D01*
X8673400Y10054300D02*
Y10181300D01*
Y10054300D02*
X8749600Y10117800D01*
X9095000Y9592801D02*
Y10267800D01*
X8775000D02*
X9095000D01*
X8775000Y9592801D02*
Y10267800D01*
Y9592801D02*
X9095000D01*
X8673400Y11337000D02*
X8749600Y11273500D01*
X8673400Y11210000D02*
Y11337000D01*
Y11210000D02*
X8749600Y11273500D01*
X9095000Y10748501D02*
Y11423500D01*
X8775000D02*
X9095000D01*
X8775000Y10748501D02*
Y11423500D01*
Y10748501D02*
X9095000D01*
D28*
X7396480Y11409779D02*
X7481119Y11325140D01*
X7396480D02*
X7481119Y11409779D01*
X7396480Y11367459D02*
X7481119D01*
X7438800Y11325140D02*
Y11409779D01*
X7396480Y9149179D02*
X7481119Y9064540D01*
X7396480D02*
X7481119Y9149179D01*
X7396480Y9106859D02*
X7481119D01*
X7438800Y9064540D02*
Y9149179D01*
X7396480Y10254079D02*
X7481119Y10169440D01*
X7396480D02*
X7481119Y10254079D01*
X7396480Y10211759D02*
X7481119D01*
X7438800Y10169440D02*
Y10254079D01*
D36*
X7640320Y9070340D02*
G03*
X7701280Y9070340I30480J0D01*
G01*
X7640320Y10175240D02*
G03*
X7701280Y10175240I30480J0D01*
G01*
X7640320Y11330940D02*
G03*
X7701280Y11330940I30480J0D01*
G01*
D37*
X7840980Y10825050D02*
X7934960D01*
X7840980Y10774250D02*
Y10825050D01*
Y10774250D02*
X7934960D01*
Y10825050D01*
X7840980Y10888550D02*
X7934960D01*
Y10939350D01*
X7840980D02*
X7934960D01*
X7840980Y10888550D02*
Y10939350D01*
X7934960Y10774250D02*
Y10939350D01*
X7840980D02*
X7934960D01*
X7840980Y10774250D02*
Y10939350D01*
Y10774250D02*
X7934960D01*
X7840980Y9669350D02*
X7934960D01*
X7840980Y9618550D02*
Y9669350D01*
Y9618550D02*
X7934960D01*
Y9669350D01*
X7840980Y9732850D02*
X7934960D01*
Y9783650D01*
X7840980D02*
X7934960D01*
X7840980Y9732850D02*
Y9783650D01*
X7934960Y9618550D02*
Y9783650D01*
X7840980D02*
X7934960D01*
X7840980Y9618550D02*
Y9783650D01*
Y9618550D02*
X7934960D01*
X7840980Y8564450D02*
X7934960D01*
X7840980Y8513650D02*
Y8564450D01*
Y8513650D02*
X7934960D01*
Y8564450D01*
X7840980Y8627950D02*
X7934960D01*
Y8678750D01*
X7840980D02*
X7934960D01*
X7840980Y8627950D02*
Y8678750D01*
X7934960Y8513650D02*
Y8678750D01*
X7840980D02*
X7934960D01*
X7840980Y8513650D02*
Y8678750D01*
Y8513650D02*
X7934960D01*
X2913010Y11978020D02*
X3006990D01*
X2913010Y11927220D02*
Y11978020D01*
Y11927220D02*
X3006990D01*
Y11978020D01*
X2913010Y12041520D02*
X3006990D01*
Y12092320D01*
X2913010D02*
X3006990D01*
X2913010Y12041520D02*
Y12092320D01*
X3006990Y11927220D02*
Y12092320D01*
X2913010D02*
X3006990D01*
X2913010Y11927220D02*
Y12092320D01*
Y11927220D02*
X3006990D01*
X8295510Y7810750D02*
X8389490D01*
X8295510Y7759950D02*
Y7810750D01*
Y7759950D02*
X8389490D01*
Y7810750D01*
X8295510Y7874250D02*
X8389490D01*
Y7925050D01*
X8295510D02*
X8389490D01*
X8295510Y7874250D02*
Y7925050D01*
X8389490Y7759950D02*
Y7925050D01*
X8295510D02*
X8389490D01*
X8295510Y7759950D02*
Y7925050D01*
Y7759950D02*
X8389490D01*
X8335510Y7021750D02*
X8429490D01*
Y7072550D01*
X8335510D02*
X8429490D01*
X8335510Y7021750D02*
Y7072550D01*
Y6958250D02*
X8429490D01*
X8335510Y6907450D02*
Y6958250D01*
Y6907450D02*
X8429490D01*
Y6958250D01*
X8335510Y6907450D02*
Y7072550D01*
Y6907450D02*
X8429490D01*
Y7072550D01*
X8335510D02*
X8429490D01*
X2093671Y10907490D02*
Y11956510D01*
Y10907490D02*
X2413711D01*
Y11956510D01*
X2093671D02*
X2413711D01*
X7515860Y8993850D02*
Y9031950D01*
X7418070D02*
X7515860D01*
X7418070Y8993850D02*
Y9031950D01*
Y8993850D02*
X7515860D01*
Y8928850D02*
Y8966950D01*
X7418070D02*
X7515860D01*
X7418070Y8928850D02*
Y8966950D01*
Y8928850D02*
X7515860D01*
Y8863850D02*
Y8901950D01*
X7418070D02*
X7515860D01*
X7418070Y8863850D02*
Y8901950D01*
Y8863850D02*
X7515860D01*
Y8798850D02*
Y8836950D01*
X7418070D02*
X7515860D01*
X7418070Y8798850D02*
Y8836950D01*
Y8798850D02*
X7515860D01*
X7825740D02*
Y8836950D01*
Y8798850D02*
X7923530D01*
Y8836950D01*
X7825740D02*
X7923530D01*
X7825740Y8863850D02*
Y8901950D01*
Y8863850D02*
X7923530D01*
Y8901950D01*
X7825740D02*
X7923530D01*
X7825740Y8928850D02*
Y8966950D01*
Y8928850D02*
X7923530D01*
Y8966950D01*
X7825740D02*
X7923530D01*
X7825740Y8993850D02*
Y9031950D01*
Y8993850D02*
X7923530D01*
Y9031950D01*
X7825740D02*
X7923530D01*
X7515860Y8760460D02*
X7825740D01*
Y9070340D01*
X7515860D02*
X7825740D01*
X7515860Y8760460D02*
Y9070340D01*
Y10098750D02*
Y10136850D01*
X7418070D02*
X7515860D01*
X7418070Y10098750D02*
Y10136850D01*
Y10098750D02*
X7515860D01*
Y10033750D02*
Y10071850D01*
X7418070D02*
X7515860D01*
X7418070Y10033750D02*
Y10071850D01*
Y10033750D02*
X7515860D01*
Y9968750D02*
Y10006850D01*
X7418070D02*
X7515860D01*
X7418070Y9968750D02*
Y10006850D01*
Y9968750D02*
X7515860D01*
Y9903750D02*
Y9941850D01*
X7418070D02*
X7515860D01*
X7418070Y9903750D02*
Y9941850D01*
Y9903750D02*
X7515860D01*
X7825740D02*
Y9941850D01*
Y9903750D02*
X7923530D01*
Y9941850D01*
X7825740D02*
X7923530D01*
X7825740Y9968750D02*
Y10006850D01*
Y9968750D02*
X7923530D01*
Y10006850D01*
X7825740D02*
X7923530D01*
X7825740Y10033750D02*
Y10071850D01*
Y10033750D02*
X7923530D01*
Y10071850D01*
X7825740D02*
X7923530D01*
X7825740Y10098750D02*
Y10136850D01*
Y10098750D02*
X7923530D01*
Y10136850D01*
X7825740D02*
X7923530D01*
X7515860Y9865360D02*
X7825740D01*
Y10175240D01*
X7515860D02*
X7825740D01*
X7515860Y9865360D02*
Y10175240D01*
Y11254450D02*
Y11292550D01*
X7418070D02*
X7515860D01*
X7418070Y11254450D02*
Y11292550D01*
Y11254450D02*
X7515860D01*
Y11189450D02*
Y11227550D01*
X7418070D02*
X7515860D01*
X7418070Y11189450D02*
Y11227550D01*
Y11189450D02*
X7515860D01*
Y11124450D02*
Y11162550D01*
X7418070D02*
X7515860D01*
X7418070Y11124450D02*
Y11162550D01*
Y11124450D02*
X7515860D01*
Y11059450D02*
Y11097550D01*
X7418070D02*
X7515860D01*
X7418070Y11059450D02*
Y11097550D01*
Y11059450D02*
X7515860D01*
X7825740D02*
Y11097550D01*
Y11059450D02*
X7923530D01*
Y11097550D01*
X7825740D02*
X7923530D01*
X7825740Y11124450D02*
Y11162550D01*
Y11124450D02*
X7923530D01*
Y11162550D01*
X7825740D02*
X7923530D01*
X7825740Y11189450D02*
Y11227550D01*
Y11189450D02*
X7923530D01*
Y11227550D01*
X7825740D02*
X7923530D01*
X7825740Y11254450D02*
Y11292550D01*
Y11254450D02*
X7923530D01*
Y11292550D01*
X7825740D02*
X7923530D01*
X7515860Y11021060D02*
X7825740D01*
Y11330940D01*
X7515860D02*
X7825740D01*
X7515860Y11021060D02*
Y11330940D01*
%TF.MD5,178843bed87551d16a257b85d810fce4*%
M02*
