%TF.GenerationSoftware,Altium Limited,Altium Designer,25.3.3 (18)*%
G04 Layer_Color=16711935*
%FSLAX45Y45*%
%MOMM*%
%TF.SameCoordinates,0761283E-10EF-41A2-BAA1-EC4CD2C5D14C*%
%TF.FilePolarity,Negative*%
%TF.FileFunction,Soldermask,Bot*%
%TF.Part,Single*%
G01*
G75*
%TA.AperFunction,NonConductor*%
%ADD31C,0.42500*%
%ADD32C,0.53340*%
%ADD33C,1.27000*%
%ADD34C,1.20000*%
%TA.AperFunction,ViaPad*%
%ADD35C,1.47320*%
G36*
X3744500Y12017700D02*
X3494500D01*
Y12137700D01*
X3744500D01*
Y12017700D01*
D02*
G37*
G36*
X8932500Y11231000D02*
X8847500D01*
Y11316000D01*
X8932500D01*
Y11231000D01*
D02*
G37*
G36*
X8386600Y10792100D02*
X8326600D01*
Y10852100D01*
X8386600D01*
Y10792100D01*
D02*
G37*
G36*
X8580869Y10790400D02*
X8520869D01*
Y10850400D01*
X8580869D01*
Y10790400D01*
D02*
G37*
G36*
X8386600Y10687100D02*
X8326600D01*
Y10747100D01*
X8386600D01*
Y10687100D01*
D02*
G37*
G36*
X8580869Y10685400D02*
X8520869D01*
Y10745400D01*
X8580869D01*
Y10685400D01*
D02*
G37*
G36*
X8932500Y10075300D02*
X8847500D01*
Y10160300D01*
X8932500D01*
Y10075300D01*
D02*
G37*
G36*
X8386600Y9634700D02*
X8326600D01*
Y9694700D01*
X8386600D01*
Y9634700D01*
D02*
G37*
G36*
X8580869Y9633000D02*
X8520869D01*
Y9693000D01*
X8580869D01*
Y9633000D01*
D02*
G37*
G36*
X8386600Y9529700D02*
X8326600D01*
Y9589700D01*
X8386600D01*
Y9529700D01*
D02*
G37*
G36*
X8580869Y9528000D02*
X8520869D01*
Y9588000D01*
X8580869D01*
Y9528000D01*
D02*
G37*
G36*
X8932500Y8970400D02*
X8847500D01*
Y9055400D01*
X8932500D01*
Y8970400D01*
D02*
G37*
G36*
X8386600Y8529800D02*
X8326600D01*
Y8589800D01*
X8386600D01*
Y8529800D01*
D02*
G37*
G36*
X8580869Y8528100D02*
X8520869D01*
Y8588100D01*
X8580869D01*
Y8528100D01*
D02*
G37*
G36*
X8386600Y8424800D02*
X8326600D01*
Y8484800D01*
X8386600D01*
Y8424800D01*
D02*
G37*
G36*
X8580869Y8423100D02*
X8520869D01*
Y8483100D01*
X8580869D01*
Y8423100D01*
D02*
G37*
G36*
X9021400Y6963200D02*
X8936400D01*
Y7048200D01*
X9021400D01*
Y6963200D01*
D02*
G37*
D31*
X9000150Y7130700D02*
G03*
X9000150Y7130700I-21250J0D01*
G01*
Y7255700D02*
G03*
X9000150Y7255700I-21250J0D01*
G01*
Y7380700D02*
G03*
X9000150Y7380700I-21250J0D01*
G01*
Y7505700D02*
G03*
X9000150Y7505700I-21250J0D01*
G01*
Y7630700D02*
G03*
X9000150Y7630700I-21250J0D01*
G01*
Y7755700D02*
G03*
X9000150Y7755700I-21250J0D01*
G01*
Y7880700D02*
G03*
X9000150Y7880700I-21250J0D01*
G01*
X8911250Y8887900D02*
G03*
X8911250Y8887900I-21250J0D01*
G01*
Y8762900D02*
G03*
X8911250Y8762900I-21250J0D01*
G01*
Y8637900D02*
G03*
X8911250Y8637900I-21250J0D01*
G01*
Y9992800D02*
G03*
X8911250Y9992800I-21250J0D01*
G01*
Y9867800D02*
G03*
X8911250Y9867800I-21250J0D01*
G01*
Y9742800D02*
G03*
X8911250Y9742800I-21250J0D01*
G01*
Y11148500D02*
G03*
X8911250Y11148500I-21250J0D01*
G01*
Y11023500D02*
G03*
X8911250Y11023500I-21250J0D01*
G01*
Y10898500D02*
G03*
X8911250Y10898500I-21250J0D01*
G01*
D32*
X2325370Y11182000D02*
G03*
X2325370Y11182000I-26670J0D01*
G01*
Y11307000D02*
G03*
X2325370Y11307000I-26670J0D01*
G01*
Y11432000D02*
G03*
X2325370Y11432000I-26670J0D01*
G01*
Y11557000D02*
G03*
X2325370Y11557000I-26670J0D01*
G01*
Y11682000D02*
G03*
X2325370Y11682000I-26670J0D01*
G01*
Y11807000D02*
G03*
X2325370Y11807000I-26670J0D01*
G01*
Y11057000D02*
G03*
X2325370Y11057000I-26670J0D01*
G01*
D33*
X1651000Y12827000D02*
G03*
X1651000Y12827000I-63500J0D01*
G01*
X9779000D02*
G03*
X9779000Y12827000I-63500J0D01*
G01*
Y6731000D02*
G03*
X9779000Y6731000I-63500J0D01*
G01*
X1651000D02*
G03*
X1651000Y6731000I-63500J0D01*
G01*
D34*
X5332500Y10299700D02*
X5462500D01*
X3554500Y11823700D02*
X3684500D01*
X3554500Y11569700D02*
X3684500D01*
X3554500Y11315700D02*
X3684500D01*
X3554500Y11061700D02*
X3684500D01*
X3554500Y10807700D02*
X3684500D01*
X3554500Y10553700D02*
X3684500D01*
X3554500Y10299700D02*
X3684500D01*
X3554500Y10045700D02*
X3684500D01*
X3554500Y9791700D02*
X3684500D01*
X3554500Y9537700D02*
X3684500D01*
X3554500Y9283700D02*
X3684500D01*
X3554500Y9029700D02*
X3684500D01*
X3554500Y8775700D02*
X3684500D01*
X3554500Y8521700D02*
X3684500D01*
X3554500Y8267700D02*
X3684500D01*
X3554500Y8013700D02*
X3684500D01*
X3554500Y7759700D02*
X3684500D01*
X3554500Y7505700D02*
X3684500D01*
X3554500Y7251700D02*
X3684500D01*
X5332500Y12077700D02*
X5462500D01*
X5332500Y11823700D02*
X5462500D01*
X5332500Y11569700D02*
X5462500D01*
X5332500Y11315700D02*
X5462500D01*
X5332500Y11061700D02*
X5462500D01*
X5332500Y10553700D02*
X5462500D01*
X5332500Y10045700D02*
X5462500D01*
X5332500Y9791700D02*
X5462500D01*
X5332500Y9537700D02*
X5462500D01*
X5332500Y9283700D02*
X5462500D01*
X5332500Y9029700D02*
X5462500D01*
X5332500Y8775700D02*
X5462500D01*
X5332500Y8521700D02*
X5462500D01*
X5332500Y8267700D02*
X5462500D01*
X5332500Y8013700D02*
X5462500D01*
X5332500Y7759700D02*
X5462500D01*
X5332500Y7505700D02*
X5462500D01*
X5332500Y7251700D02*
X5462500D01*
X5332500Y10807700D02*
X5462500D01*
D35*
X7120000Y7672500D02*
D03*
X6733275Y10914378D02*
D03*
X6980000Y8655000D02*
D03*
X6731950Y9755550D02*
D03*
X7122500Y11464100D02*
D03*
Y8507500D02*
D03*
Y9282500D02*
D03*
Y10367500D02*
D03*
X8356600Y8763000D02*
D03*
X8542635Y8881765D02*
D03*
X8547100Y11137900D02*
D03*
X8542635Y9986665D02*
D03*
X8356600Y9867900D02*
D03*
Y11023600D02*
D03*
X6858000Y11099800D02*
D03*
Y9944100D02*
D03*
Y8826500D02*
D03*
%TF.MD5,3b82d32c64b033e54043d82573c4df97*%
M02*
