%TF.GenerationSoftware,Altium Limited,Altium Designer,25.3.3 (18)*%
G04 Layer_Color=255*
%FSLAX45Y45*%
%MOMM*%
%TF.SameCoordinates,0761283E-10EF-41A2-BAA1-EC4CD2C5D14C*%
%TF.FilePolarity,Positive*%
%TF.FileFunction,Pads,Bot*%
%TF.Part,Single*%
G01*
G75*
%TA.AperFunction,ComponentPad*%
%ADD14R,0.85000X0.85000*%
%ADD15C,0.85000*%
%ADD16C,1.06680*%
%ADD17O,2.50000X1.20000*%
%ADD18R,2.50000X1.20000*%
%TA.AperFunction,ViaPad*%
%ADD19C,2.54000*%
%TA.AperFunction,SMDPad,CuDef*%
%ADD21R,0.60000X0.60000*%
D14*
X8978900Y7005700D02*
D03*
X8890000Y9012900D02*
D03*
Y10117800D02*
D03*
Y11273500D02*
D03*
D15*
X8978900Y7130700D02*
D03*
Y7255700D02*
D03*
Y7380700D02*
D03*
Y7505700D02*
D03*
Y7630700D02*
D03*
Y7755700D02*
D03*
Y7880700D02*
D03*
X8890000Y8887900D02*
D03*
Y8762900D02*
D03*
Y8637900D02*
D03*
Y9992800D02*
D03*
Y9867800D02*
D03*
Y9742800D02*
D03*
Y11148500D02*
D03*
Y11023500D02*
D03*
Y10898500D02*
D03*
D16*
X2298700Y11182000D02*
D03*
Y11307000D02*
D03*
Y11432000D02*
D03*
Y11557000D02*
D03*
Y11682000D02*
D03*
Y11807000D02*
D03*
Y11057000D02*
D03*
D17*
X5397500Y10299700D02*
D03*
X3619500Y11823700D02*
D03*
Y11569700D02*
D03*
Y11315700D02*
D03*
Y11061700D02*
D03*
Y10807700D02*
D03*
Y10553700D02*
D03*
Y10299700D02*
D03*
Y10045700D02*
D03*
Y9791700D02*
D03*
Y9537700D02*
D03*
Y9283700D02*
D03*
Y9029700D02*
D03*
Y8775700D02*
D03*
Y8521700D02*
D03*
Y8267700D02*
D03*
Y8013700D02*
D03*
Y7759700D02*
D03*
Y7505700D02*
D03*
Y7251700D02*
D03*
X5397500Y12077700D02*
D03*
Y11823700D02*
D03*
Y11569700D02*
D03*
Y11315700D02*
D03*
Y11061700D02*
D03*
Y10553700D02*
D03*
Y10045700D02*
D03*
Y9791700D02*
D03*
Y9537700D02*
D03*
Y9283700D02*
D03*
Y9029700D02*
D03*
Y8775700D02*
D03*
Y8521700D02*
D03*
Y8267700D02*
D03*
Y8013700D02*
D03*
Y7759700D02*
D03*
Y7505700D02*
D03*
Y7251700D02*
D03*
Y10807700D02*
D03*
D18*
X3619500Y12077700D02*
D03*
D19*
X1587500Y12827000D02*
D03*
X9715500D02*
D03*
Y6731000D02*
D03*
X1587500D02*
D03*
D21*
X8356600Y10717100D02*
D03*
Y10822100D02*
D03*
X8550869Y10820400D02*
D03*
Y10715400D02*
D03*
Y9558000D02*
D03*
Y9663000D02*
D03*
X8356600Y9664700D02*
D03*
Y9559700D02*
D03*
X8550869Y8453100D02*
D03*
Y8558100D02*
D03*
X8356600Y8559800D02*
D03*
Y8454800D02*
D03*
%TF.MD5,357c7192b79dd82207473ddcee687252*%
M02*
