%TF.GenerationSoftware,Altium Limited,Altium Designer,25.3.3 (18)*%
G04 Layer_Color=255*
%FSLAX45Y45*%
%MOMM*%
%TF.SameCoordinates,0761283E-10EF-41A2-BAA1-EC4CD2C5D14C*%
%TF.FilePolarity,Positive*%
%TF.FileFunction,Pads,Top*%
%TF.Part,Single*%
G01*
G75*
%TA.AperFunction,SMDPad,CuDef*%
%ADD10R,0.88900X0.66040*%
%TA.AperFunction,SMDPad,SMDef*%
%ADD11R,1.42240X0.43180*%
%TA.AperFunction,ComponentPad*%
%ADD14R,0.85000X0.85000*%
%ADD15C,0.85000*%
%ADD16C,1.06680*%
%ADD17O,2.50000X1.20000*%
%ADD18R,2.50000X1.20000*%
%TA.AperFunction,ViaPad*%
%ADD19C,2.54000*%
D10*
X7887970Y10792030D02*
D03*
Y10921570D02*
D03*
Y9636330D02*
D03*
Y9765870D02*
D03*
Y8531430D02*
D03*
Y8660970D02*
D03*
X2960000Y11945000D02*
D03*
Y12074540D02*
D03*
X8342500Y7777730D02*
D03*
Y7907270D02*
D03*
X8382500Y7054770D02*
D03*
Y6925230D02*
D03*
D11*
X7453630Y9012900D02*
D03*
Y8947900D02*
D03*
Y8882900D02*
D03*
Y8817900D02*
D03*
X7887970D02*
D03*
Y8882900D02*
D03*
Y8947900D02*
D03*
Y9012900D02*
D03*
X7453630Y10117800D02*
D03*
Y10052800D02*
D03*
Y9987800D02*
D03*
Y9922800D02*
D03*
X7887970D02*
D03*
Y9987800D02*
D03*
Y10052800D02*
D03*
Y10117800D02*
D03*
X7453630Y11273500D02*
D03*
Y11208500D02*
D03*
Y11143500D02*
D03*
Y11078500D02*
D03*
X7887970D02*
D03*
Y11143500D02*
D03*
Y11208500D02*
D03*
Y11273500D02*
D03*
D14*
X8978900Y7005700D02*
D03*
X8890000Y9012900D02*
D03*
Y10117800D02*
D03*
Y11273500D02*
D03*
D15*
X8978900Y7130700D02*
D03*
Y7255700D02*
D03*
Y7380700D02*
D03*
Y7505700D02*
D03*
Y7630700D02*
D03*
Y7755700D02*
D03*
Y7880700D02*
D03*
X8890000Y8887900D02*
D03*
Y8762900D02*
D03*
Y8637900D02*
D03*
Y9992800D02*
D03*
Y9867800D02*
D03*
Y9742800D02*
D03*
Y11148500D02*
D03*
Y11023500D02*
D03*
Y10898500D02*
D03*
D16*
X2298700Y11182000D02*
D03*
Y11307000D02*
D03*
Y11432000D02*
D03*
Y11557000D02*
D03*
Y11682000D02*
D03*
Y11807000D02*
D03*
Y11057000D02*
D03*
D17*
X5397500Y10299700D02*
D03*
X3619500Y11823700D02*
D03*
Y11569700D02*
D03*
Y11315700D02*
D03*
Y11061700D02*
D03*
Y10807700D02*
D03*
Y10553700D02*
D03*
Y10299700D02*
D03*
Y10045700D02*
D03*
Y9791700D02*
D03*
Y9537700D02*
D03*
Y9283700D02*
D03*
Y9029700D02*
D03*
Y8775700D02*
D03*
Y8521700D02*
D03*
Y8267700D02*
D03*
Y8013700D02*
D03*
Y7759700D02*
D03*
Y7505700D02*
D03*
Y7251700D02*
D03*
X5397500Y12077700D02*
D03*
Y11823700D02*
D03*
Y11569700D02*
D03*
Y11315700D02*
D03*
Y11061700D02*
D03*
Y10553700D02*
D03*
Y10045700D02*
D03*
Y9791700D02*
D03*
Y9537700D02*
D03*
Y9283700D02*
D03*
Y9029700D02*
D03*
Y8775700D02*
D03*
Y8521700D02*
D03*
Y8267700D02*
D03*
Y8013700D02*
D03*
Y7759700D02*
D03*
Y7505700D02*
D03*
Y7251700D02*
D03*
Y10807700D02*
D03*
D18*
X3619500Y12077700D02*
D03*
D19*
X1587500Y12827000D02*
D03*
X9715500D02*
D03*
Y6731000D02*
D03*
X1587500D02*
D03*
%TF.MD5,8b47c1a0b54b09e3fccabb22c63e80b6*%
M02*
