%TF.GenerationSoftware,Altium Limited,Altium Designer,25.3.3 (18)*%
G04 Layer_Color=2752767*
%FSLAX45Y45*%
%MOMM*%
%TF.SameCoordinates,0761283E-10EF-41A2-BAA1-EC4CD2C5D14C*%
%TF.FilePolarity,Positive*%
%TF.FileFunction,Drawing*%
%TF.Part,Single*%
G01*
G75*
%TA.AperFunction,NonConductor*%
%ADD24C,0.12700*%
%ADD48C,0.16933*%
D24*
X8928100Y6954900D02*
Y7056500D01*
X9029700D01*
Y6954900D01*
X8928100D01*
Y7079900D02*
Y7181500D01*
X9029700D01*
Y7079900D01*
X8928100D01*
Y7204900D02*
Y7306500D01*
X9029700D01*
Y7204900D01*
X8928100D01*
Y7329900D02*
Y7431500D01*
X9029700D01*
Y7329900D01*
X8928100D01*
Y7454900D02*
Y7556500D01*
X9029700D01*
Y7454900D01*
X8928100D01*
Y7579900D02*
Y7681500D01*
X9029700D01*
Y7579900D01*
X8928100D01*
Y7704900D02*
Y7806500D01*
X9029700D01*
Y7704900D01*
X8928100D01*
Y7829900D02*
Y7931500D01*
X9029700D01*
Y7829900D01*
X8928100D01*
X2298700Y11131200D02*
X2324100Y11156600D01*
X2349500D01*
X2324100Y11182000D01*
X2349500Y11207400D01*
X2324100D01*
X2298700Y11232800D01*
X2273300Y11207400D01*
X2247900D01*
X2273300Y11182000D01*
X2247900Y11156600D01*
X2273300D01*
X2298700Y11131200D01*
Y11256200D02*
X2324100Y11281600D01*
X2349500D01*
X2324100Y11307000D01*
X2349500Y11332400D01*
X2324100D01*
X2298700Y11357800D01*
X2273300Y11332400D01*
X2247900D01*
X2273300Y11307000D01*
X2247900Y11281600D01*
X2273300D01*
X2298700Y11256200D01*
Y11381200D02*
X2324100Y11406600D01*
X2349500D01*
X2324100Y11432000D01*
X2349500Y11457400D01*
X2324100D01*
X2298700Y11482800D01*
X2273300Y11457400D01*
X2247900D01*
X2273300Y11432000D01*
X2247900Y11406600D01*
X2273300D01*
X2298700Y11381200D01*
Y11506200D02*
X2324100Y11531600D01*
X2349500D01*
X2324100Y11557000D01*
X2349500Y11582400D01*
X2324100D01*
X2298700Y11607800D01*
X2273300Y11582400D01*
X2247900D01*
X2273300Y11557000D01*
X2247900Y11531600D01*
X2273300D01*
X2298700Y11506200D01*
Y11631200D02*
X2324100Y11656600D01*
X2349500D01*
X2324100Y11682000D01*
X2349500Y11707400D01*
X2324100D01*
X2298700Y11732800D01*
X2273300Y11707400D01*
X2247900D01*
X2273300Y11682000D01*
X2247900Y11656600D01*
X2273300D01*
X2298700Y11631200D01*
Y11756200D02*
X2324100Y11781600D01*
X2349500D01*
X2324100Y11807000D01*
X2349500Y11832400D01*
X2324100D01*
X2298700Y11857800D01*
X2273300Y11832400D01*
X2247900D01*
X2273300Y11807000D01*
X2247900Y11781600D01*
X2273300D01*
X2298700Y11756200D01*
Y11006200D02*
X2324100Y11031600D01*
X2349500D01*
X2324100Y11057000D01*
X2349500Y11082400D01*
X2324100D01*
X2298700Y11107800D01*
X2273300Y11082400D01*
X2247900D01*
X2273300Y11057000D01*
X2247900Y11031600D01*
X2273300D01*
X2298700Y11006200D01*
X8839200Y8837100D02*
Y8938700D01*
X8940800D01*
Y8837100D01*
X8839200D01*
Y8712100D02*
Y8813700D01*
X8940800D01*
Y8712100D01*
X8839200D01*
Y8587100D02*
Y8688700D01*
X8940800D01*
Y8587100D01*
X8839200D01*
Y8962100D02*
Y9063700D01*
X8940800D01*
Y8962100D01*
X8839200D01*
Y9942000D02*
Y10043600D01*
X8940800D01*
Y9942000D01*
X8839200D01*
Y9817000D02*
Y9918600D01*
X8940800D01*
Y9817000D01*
X8839200D01*
Y9692000D02*
Y9793600D01*
X8940800D01*
Y9692000D01*
X8839200D01*
Y10067000D02*
Y10168600D01*
X8940800D01*
Y10067000D01*
X8839200D01*
Y11097700D02*
Y11199300D01*
X8940800D01*
Y11097700D01*
X8839200D01*
Y10972700D02*
Y11074300D01*
X8940800D01*
Y10972700D01*
X8839200D01*
Y10847700D02*
Y10949300D01*
X8940800D01*
Y10847700D01*
X8839200D01*
Y11222700D02*
Y11324300D01*
X8940800D01*
Y11222700D01*
X8839200D01*
X1536700Y12776200D02*
X1562100Y12827000D01*
X1536700Y12877800D01*
X1587500Y12852400D01*
X1638300Y12877800D01*
X1612900Y12827000D01*
X1638300Y12776200D01*
X1587500Y12801601D01*
X1536700Y12776200D01*
X9664700D02*
X9690100Y12827000D01*
X9664700Y12877800D01*
X9715500Y12852400D01*
X9766300Y12877800D01*
X9740900Y12827000D01*
X9766300Y12776200D01*
X9715500Y12801601D01*
X9664700Y12776200D01*
Y6680200D02*
X9690100Y6731000D01*
X9664700Y6781800D01*
X9715500Y6756400D01*
X9766300Y6781800D01*
X9740900Y6731000D01*
X9766300Y6680200D01*
X9715500Y6705600D01*
X9664700Y6680200D01*
X1536700D02*
X1562100Y6731000D01*
X1536700Y6781800D01*
X1587500Y6756400D01*
X1638300Y6781800D01*
X1612900Y6731000D01*
X1638300Y6680200D01*
X1587500Y6705600D01*
X1536700Y6680200D01*
X7120000Y7621700D02*
X7069200Y7723300D01*
X7170800D01*
X7120000Y7621700D01*
X6733275Y10863578D02*
X6682475Y10965178D01*
X6784075D01*
X6733275Y10863578D01*
X6980000Y8604200D02*
X6929200Y8705800D01*
X7030800D01*
X6980000Y8604200D01*
X6731950Y9704750D02*
X6681150Y9806350D01*
X6782750D01*
X6731950Y9704750D01*
X7122500Y11413300D02*
X7071700Y11514900D01*
X7173300D01*
X7122500Y11413300D01*
Y8456700D02*
X7071700Y8558300D01*
X7173300D01*
X7122500Y8456700D01*
Y9231700D02*
X7071700Y9333300D01*
X7173300D01*
X7122500Y9231700D01*
Y10316700D02*
X7071700Y10418300D01*
X7173300D01*
X7122500Y10316700D01*
X8356600Y8712200D02*
X8305800Y8813800D01*
X8407400D01*
X8356600Y8712200D01*
X8542635Y8830965D02*
X8491835Y8932565D01*
X8593435D01*
X8542635Y8830965D01*
X8547100Y11087100D02*
X8496300Y11188700D01*
X8597900D01*
X8547100Y11087100D01*
X8542635Y9935865D02*
X8491835Y10037465D01*
X8593435D01*
X8542635Y9935865D01*
X8356600Y9817100D02*
X8305800Y9918700D01*
X8407400D01*
X8356600Y9817100D01*
Y10972800D02*
X8305800Y11074400D01*
X8407400D01*
X8356600Y10972800D01*
X6858000Y11049000D02*
X6807200Y11150600D01*
X6908800D01*
X6858000Y11049000D01*
Y9893300D02*
X6807200Y9994900D01*
X6908800D01*
X6858000Y9893300D01*
Y8775700D02*
X6807200Y8877300D01*
X6908800D01*
X6858000Y8775700D01*
D48*
X5448300Y10299700D02*
G03*
X5448300Y10299700I-50800J0D01*
G01*
X3670300Y11823700D02*
G03*
X3670300Y11823700I-50800J0D01*
G01*
Y11569700D02*
G03*
X3670300Y11569700I-50800J0D01*
G01*
Y11315700D02*
G03*
X3670300Y11315700I-50800J0D01*
G01*
Y11061700D02*
G03*
X3670300Y11061700I-50800J0D01*
G01*
Y10807700D02*
G03*
X3670300Y10807700I-50800J0D01*
G01*
Y10553700D02*
G03*
X3670300Y10553700I-50800J0D01*
G01*
Y10299700D02*
G03*
X3670300Y10299700I-50800J0D01*
G01*
Y10045700D02*
G03*
X3670300Y10045700I-50800J0D01*
G01*
Y9791700D02*
G03*
X3670300Y9791700I-50800J0D01*
G01*
Y9537700D02*
G03*
X3670300Y9537700I-50800J0D01*
G01*
Y9283700D02*
G03*
X3670300Y9283700I-50800J0D01*
G01*
Y9029700D02*
G03*
X3670300Y9029700I-50800J0D01*
G01*
Y8775700D02*
G03*
X3670300Y8775700I-50800J0D01*
G01*
Y8521700D02*
G03*
X3670300Y8521700I-50800J0D01*
G01*
Y8267700D02*
G03*
X3670300Y8267700I-50800J0D01*
G01*
Y8013700D02*
G03*
X3670300Y8013700I-50800J0D01*
G01*
Y7759700D02*
G03*
X3670300Y7759700I-50800J0D01*
G01*
Y7505700D02*
G03*
X3670300Y7505700I-50800J0D01*
G01*
Y7251700D02*
G03*
X3670300Y7251700I-50800J0D01*
G01*
X5448300Y12077700D02*
G03*
X5448300Y12077700I-50800J0D01*
G01*
Y11823700D02*
G03*
X5448300Y11823700I-50800J0D01*
G01*
Y11569700D02*
G03*
X5448300Y11569700I-50800J0D01*
G01*
Y11315700D02*
G03*
X5448300Y11315700I-50800J0D01*
G01*
Y11061700D02*
G03*
X5448300Y11061700I-50800J0D01*
G01*
Y10553700D02*
G03*
X5448300Y10553700I-50800J0D01*
G01*
Y10045700D02*
G03*
X5448300Y10045700I-50800J0D01*
G01*
Y9791700D02*
G03*
X5448300Y9791700I-50800J0D01*
G01*
Y9537700D02*
G03*
X5448300Y9537700I-50800J0D01*
G01*
Y9283700D02*
G03*
X5448300Y9283700I-50800J0D01*
G01*
Y9029700D02*
G03*
X5448300Y9029700I-50800J0D01*
G01*
Y8775700D02*
G03*
X5448300Y8775700I-50800J0D01*
G01*
Y8521700D02*
G03*
X5448300Y8521700I-50800J0D01*
G01*
Y8267700D02*
G03*
X5448300Y8267700I-50800J0D01*
G01*
Y8013700D02*
G03*
X5448300Y8013700I-50800J0D01*
G01*
Y7759700D02*
G03*
X5448300Y7759700I-50800J0D01*
G01*
Y7505700D02*
G03*
X5448300Y7505700I-50800J0D01*
G01*
Y7251700D02*
G03*
X5448300Y7251700I-50800J0D01*
G01*
X3670300Y12077700D02*
G03*
X3670300Y12077700I-50800J0D01*
G01*
X5448300Y10807700D02*
G03*
X5448300Y10807700I-50800J0D01*
G01*
%TF.MD5,73c2c8be8a92fed0dec30a5e96aecd57*%
M02*
