%TF.GenerationSoftware,Altium Limited,Altium Designer,25.3.3 (18)*%
G04 Layer_Color=128*
%FSLAX45Y45*%
%MOMM*%
%TF.SameCoordinates,0761283E-10EF-41A2-BAA1-EC4CD2C5D14C*%
%TF.FilePolarity,Positive*%
%TF.FileFunction,Paste,Bot*%
%TF.Part,Single*%
G01*
G75*
G36*
X8386600Y9529700D02*
X8326600D01*
Y9589700D01*
X8386600D01*
Y9529700D01*
D02*
G37*
G36*
X8580869Y9528000D02*
X8520869D01*
Y9588000D01*
X8580869D01*
Y9528000D01*
D02*
G37*
G36*
X8386600Y8529800D02*
X8326600D01*
Y8589800D01*
X8386600D01*
Y8529800D01*
D02*
G37*
G36*
X8580869Y8528100D02*
X8520869D01*
Y8588100D01*
X8580869D01*
Y8528100D01*
D02*
G37*
G36*
X8386600Y8424800D02*
X8326600D01*
Y8484800D01*
X8386600D01*
Y8424800D01*
D02*
G37*
G36*
X8580869Y8423100D02*
X8520869D01*
Y8483100D01*
X8580869D01*
Y8423100D01*
D02*
G37*
G36*
X8386600Y10792100D02*
X8326600D01*
Y10852100D01*
X8386600D01*
Y10792100D01*
D02*
G37*
G36*
X8580869Y10790400D02*
X8520869D01*
Y10850400D01*
X8580869D01*
Y10790400D01*
D02*
G37*
G36*
X8386600Y10687100D02*
X8326600D01*
Y10747100D01*
X8386600D01*
Y10687100D01*
D02*
G37*
G36*
X8580869Y10685400D02*
X8520869D01*
Y10745400D01*
X8580869D01*
Y10685400D01*
D02*
G37*
G36*
X8386600Y9634700D02*
X8326600D01*
Y9694700D01*
X8386600D01*
Y9634700D01*
D02*
G37*
G36*
X8580869Y9633000D02*
X8520869D01*
Y9693000D01*
X8580869D01*
Y9633000D01*
D02*
G37*
%TF.MD5,1f625b5934c740d284646022f8ba623f*%
M02*
