G04*
G04 #@! TF.GenerationSoftware,Altium Limited,Altium Designer,25.3.3 (18)*
G04*
G04 Layer_Physical_Order=1*
G04 Layer_Color=255*
%FSLAX44Y44*%
%MOMM*%
G71*
G04*
G04 #@! TF.SameCoordinates,10FA7EA3-3D76-47B6-B262-5EA2F94E63AD*
G04*
G04*
G04 #@! TF.FilePolarity,Positive*
G04*
G01*
G75*
%ADD15C,0.2540*%
%ADD19R,0.6000X0.6000*%
%ADD24C,1.0668*%
%ADD28R,1.4224X0.4318*%
%ADD29C,2.5400*%
%ADD30C,0.8500*%
%ADD31R,0.8500X0.8500*%
%ADD32O,2.5000X1.2000*%
%ADD33R,2.5000X1.2000*%
%ADD34C,1.2700*%
G36*
X991870Y648970D02*
X133350D01*
Y1306830D01*
X991870D01*
Y648970D01*
D02*
G37*
%LPC*%
G36*
X972820Y1297889D02*
Y1283970D01*
X986739D01*
X986570Y1285688D01*
X985698Y1288560D01*
X984283Y1291208D01*
X982378Y1293528D01*
X980058Y1295433D01*
X977410Y1296848D01*
X974538Y1297720D01*
X972820Y1297889D01*
D02*
G37*
G36*
X970280D02*
X968562Y1297720D01*
X965690Y1296848D01*
X963042Y1295433D01*
X960722Y1293528D01*
X958817Y1291208D01*
X957402Y1288560D01*
X956531Y1285688D01*
X956361Y1283970D01*
X970280D01*
Y1297889D01*
D02*
G37*
G36*
X986739Y1281430D02*
X972820D01*
Y1267511D01*
X974538Y1267681D01*
X977410Y1268552D01*
X980058Y1269967D01*
X982378Y1271871D01*
X984283Y1274192D01*
X985698Y1276840D01*
X986570Y1279712D01*
X986739Y1281430D01*
D02*
G37*
G36*
X970280D02*
X956361D01*
X956531Y1279712D01*
X957402Y1276840D01*
X958817Y1274192D01*
X960722Y1271871D01*
X963042Y1269967D01*
X965690Y1268552D01*
X968562Y1267681D01*
X970280Y1267511D01*
Y1281430D01*
D02*
G37*
G36*
X158750Y1298014D02*
X155762Y1297720D01*
X152890Y1296848D01*
X150242Y1295433D01*
X147921Y1293528D01*
X146017Y1291208D01*
X144602Y1288560D01*
X143730Y1285688D01*
X143436Y1282700D01*
X143730Y1279712D01*
X144602Y1276840D01*
X146017Y1274192D01*
X147921Y1271871D01*
X150242Y1269967D01*
X152890Y1268552D01*
X155762Y1267681D01*
X158750Y1267386D01*
X161738Y1267681D01*
X164610Y1268552D01*
X167258Y1269967D01*
X169578Y1271871D01*
X171483Y1274192D01*
X172898Y1276840D01*
X173769Y1279712D01*
X174064Y1282700D01*
X173769Y1285688D01*
X172898Y1288560D01*
X171483Y1291208D01*
X169578Y1293528D01*
X167258Y1295433D01*
X164610Y1296848D01*
X161738Y1297720D01*
X158750Y1298014D01*
D02*
G37*
G36*
X376990Y1216310D02*
X346910D01*
Y1199230D01*
X376990D01*
Y1216310D01*
D02*
G37*
G36*
X546250Y1216384D02*
X533250D01*
X531021Y1216090D01*
X528943Y1215230D01*
X527159Y1213861D01*
X525790Y1212077D01*
X524930Y1209999D01*
X524636Y1207770D01*
X524930Y1205541D01*
X525790Y1203463D01*
X527159Y1201679D01*
X528943Y1200310D01*
X531021Y1199450D01*
X533250Y1199156D01*
X546250D01*
X548479Y1199450D01*
X550557Y1200310D01*
X552341Y1201679D01*
X553710Y1203463D01*
X554570Y1205541D01*
X554864Y1207770D01*
X554570Y1209999D01*
X553710Y1212077D01*
X552341Y1213861D01*
X550557Y1215230D01*
X548479Y1216090D01*
X546250Y1216384D01*
D02*
G37*
G36*
X368450Y1190984D02*
X355450D01*
X353221Y1190690D01*
X351143Y1189830D01*
X349359Y1188461D01*
X347990Y1186677D01*
X347130Y1184599D01*
X347128Y1184585D01*
X236784D01*
X236748Y1184671D01*
X235486Y1186316D01*
X233841Y1187578D01*
X231926Y1188371D01*
X229870Y1188642D01*
X227815Y1188371D01*
X225899Y1187578D01*
X224254Y1186316D01*
X222992Y1184671D01*
X222199Y1182756D01*
X221928Y1180700D01*
X222199Y1178644D01*
X222992Y1176729D01*
X224254Y1175084D01*
Y1173816D01*
X222992Y1172171D01*
X222199Y1170256D01*
X221928Y1168200D01*
X222199Y1166144D01*
X222992Y1164229D01*
X224254Y1162584D01*
Y1161316D01*
X222992Y1159671D01*
X222199Y1157756D01*
X222095Y1156970D01*
X229870D01*
X237645D01*
X237541Y1157756D01*
X236748Y1159671D01*
X235486Y1161316D01*
Y1162584D01*
X236748Y1164229D01*
X237541Y1166144D01*
X237812Y1168200D01*
X237541Y1170256D01*
X236748Y1172171D01*
X235486Y1173816D01*
Y1174813D01*
X237309Y1176815D01*
X348948D01*
X349359Y1176279D01*
X351143Y1174910D01*
X353221Y1174050D01*
X355450Y1173756D01*
X368450D01*
X370679Y1174050D01*
X372757Y1174910D01*
X374541Y1176279D01*
X375910Y1178063D01*
X376770Y1180141D01*
X377064Y1182370D01*
X376770Y1184599D01*
X375910Y1186677D01*
X374541Y1188461D01*
X372757Y1189830D01*
X370679Y1190690D01*
X368450Y1190984D01*
D02*
G37*
G36*
X546250D02*
X533250D01*
X531021Y1190690D01*
X528943Y1189830D01*
X527159Y1188461D01*
X525790Y1186677D01*
X524930Y1184599D01*
X524636Y1182370D01*
X524930Y1180141D01*
X525790Y1178063D01*
X527159Y1176279D01*
X528943Y1174910D01*
X531021Y1174050D01*
X533250Y1173756D01*
X546250D01*
X548479Y1174050D01*
X550557Y1174910D01*
X552341Y1176279D01*
X553710Y1178063D01*
X554570Y1180141D01*
X554864Y1182370D01*
X554570Y1184599D01*
X553710Y1186677D01*
X552341Y1188461D01*
X550557Y1189830D01*
X548479Y1190690D01*
X546250Y1190984D01*
D02*
G37*
G36*
Y1165584D02*
X541020D01*
Y1158240D01*
X554697D01*
X554570Y1159199D01*
X553710Y1161277D01*
X552341Y1163061D01*
X550557Y1164430D01*
X548479Y1165290D01*
X546250Y1165584D01*
D02*
G37*
G36*
X538480D02*
X533250D01*
X531021Y1165290D01*
X528943Y1164430D01*
X527159Y1163061D01*
X525790Y1161277D01*
X524930Y1159199D01*
X524804Y1158240D01*
X538480D01*
Y1165584D01*
D02*
G37*
G36*
X368450D02*
X363220D01*
Y1158240D01*
X376897D01*
X376770Y1159199D01*
X375910Y1161277D01*
X374541Y1163061D01*
X372757Y1164430D01*
X370679Y1165290D01*
X368450Y1165584D01*
D02*
G37*
G36*
X360680D02*
X355450D01*
X353221Y1165290D01*
X351143Y1164430D01*
X349359Y1163061D01*
X347990Y1161277D01*
X347130Y1159199D01*
X347004Y1158240D01*
X360680D01*
Y1165584D01*
D02*
G37*
G36*
X554697Y1155700D02*
X541020D01*
Y1148356D01*
X546250D01*
X548479Y1148650D01*
X550557Y1149510D01*
X552341Y1150879D01*
X553710Y1152663D01*
X554570Y1154741D01*
X554697Y1155700D01*
D02*
G37*
G36*
X538480D02*
X524804D01*
X524930Y1154741D01*
X525790Y1152663D01*
X527159Y1150879D01*
X528943Y1149510D01*
X531021Y1148650D01*
X533250Y1148356D01*
X538480D01*
Y1155700D01*
D02*
G37*
G36*
X376897D02*
X363220D01*
Y1148356D01*
X368450D01*
X370679Y1148650D01*
X372757Y1149510D01*
X374541Y1150879D01*
X375910Y1152663D01*
X376770Y1154741D01*
X376897Y1155700D01*
D02*
G37*
G36*
X360680D02*
X347004D01*
X347130Y1154741D01*
X347990Y1152663D01*
X349359Y1150879D01*
X351143Y1149510D01*
X353221Y1148650D01*
X355450Y1148356D01*
X360680D01*
Y1155700D01*
D02*
G37*
G36*
X758190Y1149425D02*
X659130D01*
X657643Y1149129D01*
X656383Y1148287D01*
X648074Y1139977D01*
X631455Y1123358D01*
X623145Y1115049D01*
X618151Y1110055D01*
X553885D01*
X553710Y1110477D01*
X552341Y1112261D01*
X550557Y1113630D01*
X548479Y1114490D01*
X546250Y1114784D01*
X533250D01*
X531021Y1114490D01*
X528943Y1113630D01*
X527159Y1112261D01*
X525790Y1110477D01*
X524930Y1108399D01*
X524636Y1106170D01*
X524930Y1103941D01*
X525790Y1101863D01*
X527159Y1100079D01*
X528943Y1098710D01*
X531021Y1097850D01*
X533250Y1097556D01*
X546250D01*
X548479Y1097850D01*
X550557Y1098710D01*
X552341Y1100079D01*
X553710Y1101863D01*
X553885Y1102285D01*
X619760D01*
X621247Y1102581D01*
X622507Y1103423D01*
X628639Y1109555D01*
X636948Y1117865D01*
X653567Y1134484D01*
X660739Y1141655D01*
X756581D01*
X763195Y1135041D01*
Y1131235D01*
X755015D01*
Y1132049D01*
X735711D01*
Y1124735D01*
X667460D01*
X665973Y1124439D01*
X664713Y1123597D01*
X656383Y1115267D01*
X655541Y1114007D01*
X655245Y1112520D01*
Y991310D01*
Y896399D01*
X640301Y881455D01*
X553885D01*
X553710Y881877D01*
X552341Y883661D01*
X550557Y885030D01*
X548479Y885890D01*
X546250Y886184D01*
X533250D01*
X531021Y885890D01*
X528943Y885030D01*
X527159Y883661D01*
X525790Y881877D01*
X524930Y879799D01*
X524636Y877570D01*
X524930Y875341D01*
X525790Y873263D01*
X527159Y871479D01*
X528943Y870110D01*
X531021Y869250D01*
X533250Y868956D01*
X546250D01*
X548479Y869250D01*
X550557Y870110D01*
X552341Y871479D01*
X553710Y873263D01*
X553885Y873685D01*
X641910D01*
X643397Y873981D01*
X644657Y874823D01*
X660739Y890905D01*
X677856D01*
X678249Y890436D01*
X678980Y888365D01*
X678035Y887133D01*
X677139Y884971D01*
X676833Y882650D01*
X677139Y880329D01*
X677387Y879731D01*
X653711Y856055D01*
X553885D01*
X553710Y856477D01*
X552341Y858261D01*
X550557Y859630D01*
X548479Y860490D01*
X546250Y860784D01*
X533250D01*
X531021Y860490D01*
X528943Y859630D01*
X527159Y858261D01*
X525790Y856477D01*
X524930Y854399D01*
X524636Y852170D01*
X524930Y849941D01*
X525790Y847863D01*
X527159Y846079D01*
X528943Y844710D01*
X531021Y843850D01*
X533250Y843556D01*
X546250D01*
X548479Y843850D01*
X550557Y844710D01*
X552341Y846079D01*
X553710Y847863D01*
X553885Y848285D01*
X655320D01*
X656807Y848581D01*
X658067Y849423D01*
X682880Y874237D01*
X683479Y873989D01*
X685800Y873683D01*
X688121Y873989D01*
X690283Y874885D01*
X692140Y876310D01*
X693565Y878167D01*
X694461Y880329D01*
X694767Y882650D01*
X697097Y884405D01*
X735711D01*
Y883060D01*
X755015D01*
Y883591D01*
Y890091D01*
Y897405D01*
X763195D01*
Y849630D01*
X763491Y848143D01*
X764333Y846883D01*
X778022Y833195D01*
X777840Y832035D01*
X777111Y830655D01*
X553885D01*
X553710Y831077D01*
X552341Y832861D01*
X550557Y834230D01*
X548479Y835090D01*
X546250Y835384D01*
X533250D01*
X531021Y835090D01*
X528943Y834230D01*
X527159Y832861D01*
X525790Y831077D01*
X524930Y828999D01*
X524636Y826770D01*
X524930Y824541D01*
X525790Y822463D01*
X527159Y820679D01*
X528943Y819310D01*
X531021Y818450D01*
X533250Y818156D01*
X546250D01*
X548479Y818450D01*
X550557Y819310D01*
X552341Y820679D01*
X553710Y822463D01*
X553885Y822885D01*
X784521D01*
X847083Y760323D01*
X848343Y759481D01*
X849830Y759185D01*
X892312D01*
X892860Y758471D01*
X893047Y757990D01*
Y755413D01*
X891959Y753994D01*
X891275Y752343D01*
X891041Y750570D01*
X891275Y748798D01*
X891959Y747146D01*
X893047Y745727D01*
Y742913D01*
X891959Y741494D01*
X891275Y739843D01*
X891041Y738070D01*
X891275Y736298D01*
X891959Y734646D01*
X893047Y733227D01*
Y731690D01*
X891003Y729455D01*
X833059D01*
X758397Y804117D01*
X757137Y804959D01*
X755650Y805255D01*
X553885D01*
X553710Y805677D01*
X552341Y807461D01*
X550557Y808830D01*
X548479Y809690D01*
X546250Y809984D01*
X533250D01*
X531021Y809690D01*
X528943Y808830D01*
X527159Y807461D01*
X525790Y805677D01*
X524930Y803599D01*
X524636Y801370D01*
X524930Y799141D01*
X525790Y797063D01*
X527159Y795279D01*
X528943Y793910D01*
X531021Y793050D01*
X533250Y792756D01*
X546250D01*
X548479Y793050D01*
X550557Y793910D01*
X552341Y795279D01*
X553710Y797063D01*
X553885Y797485D01*
X754041D01*
X828703Y722823D01*
X829963Y721981D01*
X831450Y721685D01*
X892312D01*
X892860Y720971D01*
X893047Y720490D01*
Y717913D01*
X891959Y716494D01*
X891275Y714843D01*
X891041Y713070D01*
X891275Y711298D01*
X891854Y709900D01*
X891100Y707360D01*
X891100D01*
Y693780D01*
X904680D01*
Y707360D01*
X904680Y707360D01*
X903926Y709900D01*
X904505Y711298D01*
X904739Y713070D01*
X904505Y714843D01*
X903821Y716494D01*
X902733Y717913D01*
Y720727D01*
X903821Y722146D01*
X904505Y723798D01*
X904739Y725570D01*
X904505Y727343D01*
X903821Y728994D01*
X902733Y730413D01*
Y733227D01*
X903821Y734646D01*
X904505Y736298D01*
X904739Y738070D01*
X904505Y739843D01*
X903821Y741494D01*
X902733Y742913D01*
Y745727D01*
X903821Y747146D01*
X904505Y748798D01*
X904739Y750570D01*
X904505Y752343D01*
X903821Y753994D01*
X902733Y755413D01*
Y758227D01*
X903821Y759646D01*
X904505Y761298D01*
X904739Y763070D01*
X904505Y764843D01*
X903821Y766494D01*
X902733Y767913D01*
Y770727D01*
X903821Y772146D01*
X904505Y773798D01*
X904571Y774300D01*
X897890D01*
X891209D01*
X891275Y773798D01*
X891959Y772146D01*
X893047Y770727D01*
Y769190D01*
X891003Y766955D01*
X851439D01*
X791571Y826823D01*
X793249Y828737D01*
X794347Y827895D01*
X796509Y826999D01*
X798830Y826693D01*
X801151Y826999D01*
X803313Y827895D01*
X805170Y829320D01*
X806595Y831177D01*
X807491Y833339D01*
X807797Y835660D01*
X807491Y837981D01*
X806595Y840143D01*
X805170Y842000D01*
X803313Y843425D01*
X801151Y844321D01*
X798830Y844627D01*
X796509Y844321D01*
X794347Y843425D01*
X792490Y842000D01*
X791065Y840143D01*
X790817Y839545D01*
X782659D01*
X774065Y848139D01*
X775037Y850485D01*
X783257D01*
Y848830D01*
X794337D01*
Y859330D01*
Y870410D01*
X792682D01*
Y877091D01*
X798449D01*
Y884405D01*
X822061D01*
X827247Y879220D01*
X826999Y878621D01*
X826693Y876300D01*
X826999Y873979D01*
X827895Y871817D01*
X829320Y869960D01*
X831177Y868535D01*
X833339Y867639D01*
X835660Y867333D01*
X837981Y867639D01*
X840143Y868535D01*
X842000Y869960D01*
X843425Y871817D01*
X843669Y872405D01*
X883422D01*
X883970Y871691D01*
X884157Y871210D01*
Y868633D01*
X883069Y867214D01*
X882385Y865563D01*
X882319Y865060D01*
X889000D01*
X895681D01*
X895615Y865563D01*
X894931Y867214D01*
X893843Y868633D01*
Y871447D01*
X894931Y872866D01*
X895615Y874518D01*
X895849Y876290D01*
X895615Y878063D01*
X894931Y879714D01*
X893843Y881133D01*
Y883947D01*
X894931Y885366D01*
X895615Y887018D01*
X895849Y888790D01*
X895615Y890563D01*
X895036Y891960D01*
X895790Y894500D01*
X895790D01*
Y908080D01*
X882210D01*
Y905175D01*
X798449D01*
Y905989D01*
X779145D01*
Y905175D01*
X770965D01*
Y938137D01*
X771563Y938385D01*
X773420Y939810D01*
X774845Y941667D01*
X775741Y943829D01*
X776047Y946150D01*
X775741Y948471D01*
X774845Y950633D01*
X773420Y952490D01*
X771563Y953915D01*
X770965Y954163D01*
Y960975D01*
X783257D01*
Y959320D01*
X794337D01*
Y969820D01*
Y980900D01*
X792682D01*
Y987581D01*
X798449D01*
Y994895D01*
X822061D01*
X827247Y989709D01*
X826999Y989111D01*
X826693Y986790D01*
X826999Y984469D01*
X827895Y982307D01*
X829320Y980450D01*
X831177Y979025D01*
X833339Y978129D01*
X835660Y977823D01*
X837981Y978129D01*
X840143Y979025D01*
X842000Y980450D01*
X843425Y982307D01*
X843669Y982895D01*
X883422D01*
X883970Y982181D01*
X884157Y981700D01*
Y979123D01*
X883069Y977704D01*
X882385Y976052D01*
X882319Y975550D01*
X889000D01*
X895681D01*
X895615Y976052D01*
X894931Y977704D01*
X893843Y979123D01*
Y981937D01*
X894931Y983356D01*
X895615Y985007D01*
X895849Y986780D01*
X895615Y988552D01*
X894931Y990204D01*
X893843Y991623D01*
Y994437D01*
X894931Y995856D01*
X895615Y997507D01*
X895849Y999280D01*
X895615Y1001052D01*
X895036Y1002450D01*
X895790Y1004990D01*
X895790D01*
Y1018570D01*
X882210D01*
Y1015665D01*
X798449D01*
Y1016479D01*
X779145D01*
Y1015665D01*
X770965D01*
Y1053707D01*
X771563Y1053955D01*
X773420Y1055380D01*
X774845Y1057237D01*
X775741Y1059399D01*
X776047Y1061720D01*
X775741Y1064041D01*
X774845Y1066203D01*
X773420Y1068060D01*
X771563Y1069485D01*
X770965Y1069733D01*
Y1076545D01*
X783257D01*
Y1074890D01*
X794337D01*
Y1085390D01*
Y1096470D01*
X792682D01*
Y1103151D01*
X798449D01*
Y1110465D01*
X822061D01*
X827247Y1105279D01*
X826999Y1104681D01*
X826693Y1102360D01*
X826999Y1100039D01*
X827895Y1097877D01*
X829320Y1096020D01*
X831177Y1094595D01*
X833339Y1093699D01*
X835660Y1093393D01*
X837981Y1093699D01*
X840143Y1094595D01*
X842000Y1096020D01*
X843425Y1097877D01*
X843669Y1098465D01*
X883422D01*
X883970Y1097751D01*
X884157Y1097270D01*
Y1094693D01*
X883069Y1093274D01*
X882385Y1091622D01*
X882319Y1091120D01*
X889000D01*
X895681D01*
X895615Y1091622D01*
X894931Y1093274D01*
X893843Y1094693D01*
Y1097507D01*
X894931Y1098926D01*
X895615Y1100577D01*
X895849Y1102350D01*
X895615Y1104122D01*
X894931Y1105774D01*
X893843Y1107193D01*
Y1110007D01*
X894931Y1111426D01*
X895615Y1113077D01*
X895849Y1114850D01*
X895615Y1116622D01*
X895036Y1118020D01*
X895790Y1120560D01*
X895790D01*
Y1134140D01*
X882210D01*
Y1131235D01*
X798449D01*
Y1132049D01*
X779145D01*
Y1131235D01*
X770965D01*
Y1136650D01*
X770669Y1138137D01*
X769827Y1139397D01*
X760937Y1148287D01*
X759677Y1149129D01*
X758190Y1149425D01*
D02*
G37*
G36*
X546250Y1140184D02*
X533250D01*
X531021Y1139890D01*
X528943Y1139030D01*
X527159Y1137661D01*
X525790Y1135877D01*
X524930Y1133799D01*
X524636Y1131570D01*
X524930Y1129341D01*
X525790Y1127263D01*
X527159Y1125479D01*
X528943Y1124110D01*
X531021Y1123250D01*
X533250Y1122956D01*
X546250D01*
X548479Y1123250D01*
X550557Y1124110D01*
X552341Y1125479D01*
X553710Y1127263D01*
X554570Y1129341D01*
X554864Y1131570D01*
X554570Y1133799D01*
X553710Y1135877D01*
X552341Y1137661D01*
X550557Y1139030D01*
X548479Y1139890D01*
X546250Y1140184D01*
D02*
G37*
G36*
X237645Y1154430D02*
X229870D01*
X222095D01*
X222199Y1153644D01*
X222992Y1151729D01*
X224254Y1150084D01*
Y1148816D01*
X222992Y1147171D01*
X222199Y1145256D01*
X221928Y1143200D01*
X222199Y1141144D01*
X222992Y1139229D01*
X224254Y1137584D01*
Y1136587D01*
X222431Y1134585D01*
X194710D01*
X193223Y1134289D01*
X191963Y1133447D01*
X182673Y1124157D01*
X181831Y1122897D01*
X181535Y1121410D01*
Y1062990D01*
X181831Y1061503D01*
X182673Y1060243D01*
X191563Y1051353D01*
X192824Y1050511D01*
X194310Y1050215D01*
X348641Y1050215D01*
X349359Y1049279D01*
X351143Y1047910D01*
X353221Y1047050D01*
X355450Y1046756D01*
X368450D01*
X370679Y1047050D01*
X372757Y1047910D01*
X374541Y1049279D01*
X375910Y1051063D01*
X376770Y1053141D01*
X377064Y1055370D01*
X376770Y1057599D01*
X375910Y1059677D01*
X374541Y1061461D01*
X372757Y1062830D01*
X370679Y1063690D01*
X368450Y1063984D01*
X355450D01*
X353221Y1063690D01*
X351143Y1062830D01*
X349359Y1061461D01*
X347990Y1059677D01*
X347289Y1057985D01*
X195919Y1057984D01*
X189305Y1064599D01*
Y1119801D01*
X196319Y1126815D01*
X222956D01*
X222992Y1126729D01*
X224254Y1125084D01*
Y1124087D01*
X222431Y1122085D01*
X207610D01*
X206123Y1121789D01*
X204863Y1120947D01*
X197913Y1113997D01*
X197071Y1112737D01*
X196775Y1111250D01*
Y1087120D01*
X197071Y1085633D01*
X197913Y1084373D01*
X205533Y1076753D01*
X206793Y1075911D01*
X208280Y1075615D01*
X348641D01*
X349359Y1074679D01*
X351143Y1073310D01*
X353221Y1072450D01*
X355450Y1072156D01*
X368450D01*
X370679Y1072450D01*
X372757Y1073310D01*
X374541Y1074679D01*
X375910Y1076463D01*
X376770Y1078541D01*
X377064Y1080770D01*
X376770Y1082999D01*
X375910Y1085077D01*
X374541Y1086861D01*
X372757Y1088230D01*
X370679Y1089090D01*
X368450Y1089384D01*
X355450D01*
X353221Y1089090D01*
X351143Y1088230D01*
X349359Y1086861D01*
X347990Y1085077D01*
X347289Y1083385D01*
X209889D01*
X204545Y1088729D01*
Y1109641D01*
X209219Y1114315D01*
X222956D01*
X222992Y1114229D01*
X224254Y1112584D01*
Y1111316D01*
X222992Y1109671D01*
X222199Y1107756D01*
X221928Y1105700D01*
X222199Y1103644D01*
X222992Y1101729D01*
X224254Y1100084D01*
X225899Y1098822D01*
X227815Y1098029D01*
X229870Y1097758D01*
X231926Y1098029D01*
X233841Y1098822D01*
X235486Y1100084D01*
X236748Y1101729D01*
X236784Y1101815D01*
X282740D01*
X284227Y1102111D01*
X285487Y1102953D01*
X310219Y1127685D01*
X347816D01*
X347990Y1127263D01*
X349359Y1125479D01*
X351143Y1124110D01*
X353221Y1123250D01*
X355450Y1122956D01*
X368450D01*
X370679Y1123250D01*
X372757Y1124110D01*
X374541Y1125479D01*
X375910Y1127263D01*
X376770Y1129341D01*
X377064Y1131570D01*
X376770Y1133799D01*
X375910Y1135877D01*
X374541Y1137661D01*
X372757Y1139030D01*
X370679Y1139890D01*
X368450Y1140184D01*
X355450D01*
X353221Y1139890D01*
X351143Y1139030D01*
X349359Y1137661D01*
X347990Y1135877D01*
X347816Y1135455D01*
X308610D01*
X307123Y1135159D01*
X305863Y1134317D01*
X281131Y1109585D01*
X236784D01*
X236748Y1109671D01*
X235486Y1111316D01*
Y1112584D01*
X236748Y1114229D01*
X237541Y1116144D01*
X237812Y1118200D01*
X237541Y1120256D01*
X236748Y1122171D01*
X235486Y1123816D01*
Y1125084D01*
X236748Y1126729D01*
X237541Y1128644D01*
X237812Y1130700D01*
X237541Y1132756D01*
X236748Y1134671D01*
X235486Y1136316D01*
Y1137584D01*
X236748Y1139229D01*
X237541Y1141144D01*
X237812Y1143200D01*
X237541Y1145256D01*
X236748Y1147171D01*
X235486Y1148816D01*
Y1150084D01*
X236748Y1151729D01*
X237541Y1153644D01*
X237645Y1154430D01*
D02*
G37*
G36*
X368450Y1114784D02*
X355450D01*
X353221Y1114490D01*
X351143Y1113630D01*
X349359Y1112261D01*
X347990Y1110477D01*
X347130Y1108399D01*
X346836Y1106170D01*
X347130Y1103941D01*
X347990Y1101863D01*
X349359Y1100079D01*
X351143Y1098710D01*
X353221Y1097850D01*
X355450Y1097556D01*
X368450D01*
X370679Y1097850D01*
X372757Y1098710D01*
X374541Y1100079D01*
X375910Y1101863D01*
X376770Y1103941D01*
X377064Y1106170D01*
X376770Y1108399D01*
X375910Y1110477D01*
X374541Y1112261D01*
X372757Y1113630D01*
X370679Y1114490D01*
X368450Y1114784D01*
D02*
G37*
G36*
X895681Y1088580D02*
X890270D01*
Y1083169D01*
X890772Y1083235D01*
X892424Y1083919D01*
X893843Y1085007D01*
X894931Y1086426D01*
X895615Y1088077D01*
X895681Y1088580D01*
D02*
G37*
G36*
X887730D02*
X882319D01*
X882385Y1088077D01*
X883069Y1086426D01*
X884157Y1085007D01*
X885576Y1083919D01*
X887227Y1083235D01*
X887730Y1083169D01*
Y1088580D01*
D02*
G37*
G36*
X546250Y1089384D02*
X533250D01*
X531021Y1089090D01*
X528943Y1088230D01*
X527159Y1086861D01*
X525790Y1085077D01*
X524930Y1082999D01*
X524636Y1080770D01*
X524930Y1078541D01*
X525790Y1076463D01*
X527159Y1074679D01*
X528943Y1073310D01*
X531021Y1072450D01*
X533250Y1072156D01*
X546250D01*
X548479Y1072450D01*
X550557Y1073310D01*
X552341Y1074679D01*
X553710Y1076463D01*
X554570Y1078541D01*
X554864Y1080770D01*
X554570Y1082999D01*
X553710Y1085077D01*
X552341Y1086861D01*
X550557Y1088230D01*
X548479Y1089090D01*
X546250Y1089384D01*
D02*
G37*
G36*
Y1063984D02*
X533250D01*
X531021Y1063690D01*
X528943Y1062830D01*
X527159Y1061461D01*
X525790Y1059677D01*
X524930Y1057599D01*
X524636Y1055370D01*
X524930Y1053141D01*
X525790Y1051063D01*
X527159Y1049279D01*
X528943Y1047910D01*
X531021Y1047050D01*
X533250Y1046756D01*
X546250D01*
X548479Y1047050D01*
X550557Y1047910D01*
X552341Y1049279D01*
X553710Y1051063D01*
X554570Y1053141D01*
X554864Y1055370D01*
X554570Y1057599D01*
X553710Y1059677D01*
X552341Y1061461D01*
X550557Y1062830D01*
X548479Y1063690D01*
X546250Y1063984D01*
D02*
G37*
G36*
Y1038584D02*
X541020D01*
Y1031240D01*
X554697D01*
X554570Y1032199D01*
X553710Y1034277D01*
X552341Y1036061D01*
X550557Y1037430D01*
X548479Y1038290D01*
X546250Y1038584D01*
D02*
G37*
G36*
X538480D02*
X533250D01*
X531021Y1038290D01*
X528943Y1037430D01*
X527159Y1036061D01*
X525790Y1034277D01*
X524930Y1032199D01*
X524804Y1031240D01*
X538480D01*
Y1038584D01*
D02*
G37*
G36*
X368450D02*
X363220D01*
Y1031240D01*
X376897D01*
X376770Y1032199D01*
X375910Y1034277D01*
X374541Y1036061D01*
X372757Y1037430D01*
X370679Y1038290D01*
X368450Y1038584D01*
D02*
G37*
G36*
X360680D02*
X355450D01*
X353221Y1038290D01*
X351143Y1037430D01*
X349359Y1036061D01*
X347990Y1034277D01*
X347130Y1032199D01*
X347004Y1031240D01*
X360680D01*
Y1038584D01*
D02*
G37*
G36*
X554697Y1028700D02*
X541020D01*
Y1021356D01*
X546250D01*
X548479Y1021650D01*
X550557Y1022510D01*
X552341Y1023879D01*
X553710Y1025663D01*
X554570Y1027741D01*
X554697Y1028700D01*
D02*
G37*
G36*
X538480D02*
X524804D01*
X524930Y1027741D01*
X525790Y1025663D01*
X527159Y1023879D01*
X528943Y1022510D01*
X531021Y1021650D01*
X533250Y1021356D01*
X538480D01*
Y1028700D01*
D02*
G37*
G36*
X376897D02*
X363220D01*
Y1021356D01*
X368450D01*
X370679Y1021650D01*
X372757Y1022510D01*
X374541Y1023879D01*
X375910Y1025663D01*
X376770Y1027741D01*
X376897Y1028700D01*
D02*
G37*
G36*
X360680D02*
X347004D01*
X347130Y1027741D01*
X347990Y1025663D01*
X349359Y1023879D01*
X351143Y1022510D01*
X353221Y1021650D01*
X355450Y1021356D01*
X360680D01*
Y1028700D01*
D02*
G37*
G36*
X546250Y1013184D02*
X533250D01*
X531021Y1012890D01*
X528943Y1012030D01*
X527159Y1010661D01*
X525790Y1008877D01*
X524930Y1006799D01*
X524636Y1004570D01*
X524930Y1002341D01*
X525790Y1000263D01*
X527159Y998479D01*
X528943Y997110D01*
X531021Y996250D01*
X533250Y995956D01*
X546250D01*
X548479Y996250D01*
X550557Y997110D01*
X552341Y998479D01*
X553710Y1000263D01*
X554570Y1002341D01*
X554864Y1004570D01*
X554570Y1006799D01*
X553710Y1008877D01*
X552341Y1010661D01*
X550557Y1012030D01*
X548479Y1012890D01*
X546250Y1013184D01*
D02*
G37*
G36*
X368450D02*
X355450D01*
X353221Y1012890D01*
X351143Y1012030D01*
X349359Y1010661D01*
X347990Y1008877D01*
X347130Y1006799D01*
X346836Y1004570D01*
X347130Y1002341D01*
X347990Y1000263D01*
X349359Y998479D01*
X351143Y997110D01*
X353221Y996250D01*
X355450Y995956D01*
X368450D01*
X370679Y996250D01*
X372757Y997110D01*
X374541Y998479D01*
X375910Y1000263D01*
X376770Y1002341D01*
X377064Y1004570D01*
X376770Y1006799D01*
X375910Y1008877D01*
X374541Y1010661D01*
X372757Y1012030D01*
X370679Y1012890D01*
X368450Y1013184D01*
D02*
G37*
G36*
X546250Y987784D02*
X533250D01*
X531021Y987490D01*
X528943Y986630D01*
X527159Y985261D01*
X525790Y983477D01*
X524930Y981399D01*
X524636Y979170D01*
X524930Y976941D01*
X525790Y974863D01*
X527159Y973079D01*
X528943Y971710D01*
X531021Y970850D01*
X533250Y970556D01*
X546250D01*
X548479Y970850D01*
X550557Y971710D01*
X552341Y973079D01*
X553710Y974863D01*
X554570Y976941D01*
X554864Y979170D01*
X554570Y981399D01*
X553710Y983477D01*
X552341Y985261D01*
X550557Y986630D01*
X548479Y987490D01*
X546250Y987784D01*
D02*
G37*
G36*
X368450D02*
X355450D01*
X353221Y987490D01*
X351143Y986630D01*
X349359Y985261D01*
X347990Y983477D01*
X347130Y981399D01*
X346836Y979170D01*
X347130Y976941D01*
X347990Y974863D01*
X349359Y973079D01*
X351143Y971710D01*
X353221Y970850D01*
X355450Y970556D01*
X368450D01*
X370679Y970850D01*
X372757Y971710D01*
X374541Y973079D01*
X375910Y974863D01*
X376770Y976941D01*
X377064Y979170D01*
X376770Y981399D01*
X375910Y983477D01*
X374541Y985261D01*
X372757Y986630D01*
X370679Y987490D01*
X368450Y987784D01*
D02*
G37*
G36*
X895681Y973010D02*
X890270D01*
Y967599D01*
X890772Y967665D01*
X892424Y968349D01*
X893843Y969437D01*
X894931Y970856D01*
X895615Y972507D01*
X895681Y973010D01*
D02*
G37*
G36*
X887730D02*
X882319D01*
X882385Y972507D01*
X883069Y970856D01*
X884157Y969437D01*
X885576Y968349D01*
X887227Y967665D01*
X887730Y967599D01*
Y973010D01*
D02*
G37*
G36*
X546250Y962384D02*
X533250D01*
X531021Y962090D01*
X528943Y961230D01*
X527159Y959861D01*
X525790Y958077D01*
X524930Y955999D01*
X524636Y953770D01*
X524930Y951541D01*
X525790Y949463D01*
X527159Y947679D01*
X528943Y946310D01*
X531021Y945450D01*
X533250Y945156D01*
X546250D01*
X548479Y945450D01*
X550557Y946310D01*
X552341Y947679D01*
X553710Y949463D01*
X554570Y951541D01*
X554864Y953770D01*
X554570Y955999D01*
X553710Y958077D01*
X552341Y959861D01*
X550557Y961230D01*
X548479Y962090D01*
X546250Y962384D01*
D02*
G37*
G36*
X368450D02*
X355450D01*
X353221Y962090D01*
X351143Y961230D01*
X349359Y959861D01*
X347990Y958077D01*
X347130Y955999D01*
X346836Y953770D01*
X347130Y951541D01*
X347990Y949463D01*
X349359Y947679D01*
X351143Y946310D01*
X353221Y945450D01*
X355450Y945156D01*
X368450D01*
X370679Y945450D01*
X372757Y946310D01*
X374541Y947679D01*
X375910Y949463D01*
X376770Y951541D01*
X377064Y953770D01*
X376770Y955999D01*
X375910Y958077D01*
X374541Y959861D01*
X372757Y961230D01*
X370679Y962090D01*
X368450Y962384D01*
D02*
G37*
G36*
X546250Y936984D02*
X533250D01*
X531021Y936690D01*
X528943Y935830D01*
X527159Y934461D01*
X525790Y932677D01*
X524930Y930599D01*
X524636Y928370D01*
X524930Y926141D01*
X525790Y924063D01*
X527159Y922279D01*
X528943Y920910D01*
X531021Y920050D01*
X533250Y919756D01*
X546250D01*
X548479Y920050D01*
X550557Y920910D01*
X552341Y922279D01*
X553710Y924063D01*
X554570Y926141D01*
X554864Y928370D01*
X554570Y930599D01*
X553710Y932677D01*
X552341Y934461D01*
X550557Y935830D01*
X548479Y936690D01*
X546250Y936984D01*
D02*
G37*
G36*
X368450D02*
X355450D01*
X353221Y936690D01*
X351143Y935830D01*
X349359Y934461D01*
X347990Y932677D01*
X347130Y930599D01*
X346836Y928370D01*
X347130Y926141D01*
X347990Y924063D01*
X349359Y922279D01*
X351143Y920910D01*
X353221Y920050D01*
X355450Y919756D01*
X368450D01*
X370679Y920050D01*
X372757Y920910D01*
X374541Y922279D01*
X375910Y924063D01*
X376770Y926141D01*
X377064Y928370D01*
X376770Y930599D01*
X375910Y932677D01*
X374541Y934461D01*
X372757Y935830D01*
X370679Y936690D01*
X368450Y936984D01*
D02*
G37*
G36*
X546250Y911584D02*
X541020D01*
Y904240D01*
X554697D01*
X554570Y905199D01*
X553710Y907277D01*
X552341Y909061D01*
X550557Y910430D01*
X548479Y911290D01*
X546250Y911584D01*
D02*
G37*
G36*
X538480D02*
X533250D01*
X531021Y911290D01*
X528943Y910430D01*
X527159Y909061D01*
X525790Y907277D01*
X524930Y905199D01*
X524804Y904240D01*
X538480D01*
Y911584D01*
D02*
G37*
G36*
X368450D02*
X363220D01*
Y904240D01*
X376897D01*
X376770Y905199D01*
X375910Y907277D01*
X374541Y909061D01*
X372757Y910430D01*
X370679Y911290D01*
X368450Y911584D01*
D02*
G37*
G36*
X360680D02*
X355450D01*
X353221Y911290D01*
X351143Y910430D01*
X349359Y909061D01*
X347990Y907277D01*
X347130Y905199D01*
X347004Y904240D01*
X360680D01*
Y911584D01*
D02*
G37*
G36*
X554697Y901700D02*
X541020D01*
Y894356D01*
X546250D01*
X548479Y894650D01*
X550557Y895510D01*
X552341Y896879D01*
X553710Y898663D01*
X554570Y900741D01*
X554697Y901700D01*
D02*
G37*
G36*
X538480D02*
X524804D01*
X524930Y900741D01*
X525790Y898663D01*
X527159Y896879D01*
X528943Y895510D01*
X531021Y894650D01*
X533250Y894356D01*
X538480D01*
Y901700D01*
D02*
G37*
G36*
X376897D02*
X363220D01*
Y894356D01*
X368450D01*
X370679Y894650D01*
X372757Y895510D01*
X374541Y896879D01*
X375910Y898663D01*
X376770Y900741D01*
X376897Y901700D01*
D02*
G37*
G36*
X360680D02*
X347004D01*
X347130Y900741D01*
X347990Y898663D01*
X349359Y896879D01*
X351143Y895510D01*
X353221Y894650D01*
X355450Y894356D01*
X360680D01*
Y901700D01*
D02*
G37*
G36*
X755015Y880520D02*
X746633D01*
Y877091D01*
X755015D01*
Y880520D01*
D02*
G37*
G36*
X744093D02*
X735711D01*
Y877091D01*
X744093D01*
Y880520D01*
D02*
G37*
G36*
X368450Y886184D02*
X355450D01*
X353221Y885890D01*
X351143Y885030D01*
X349359Y883661D01*
X347990Y881877D01*
X347130Y879799D01*
X346836Y877570D01*
X347130Y875341D01*
X347990Y873263D01*
X349359Y871479D01*
X351143Y870110D01*
X353221Y869250D01*
X355450Y868956D01*
X368450D01*
X370679Y869250D01*
X372757Y870110D01*
X374541Y871479D01*
X375910Y873263D01*
X376770Y875341D01*
X377064Y877570D01*
X376770Y879799D01*
X375910Y881877D01*
X374541Y883661D01*
X372757Y885030D01*
X370679Y885890D01*
X368450Y886184D01*
D02*
G37*
G36*
X895681Y862520D02*
X890270D01*
Y857109D01*
X890772Y857175D01*
X892424Y857859D01*
X893843Y858947D01*
X894931Y860366D01*
X895615Y862018D01*
X895681Y862520D01*
D02*
G37*
G36*
X887730D02*
X882319D01*
X882385Y862018D01*
X883069Y860366D01*
X884157Y858947D01*
X885576Y857859D01*
X887227Y857175D01*
X887730Y857109D01*
Y862520D01*
D02*
G37*
G36*
X368450Y860784D02*
X355450D01*
X353221Y860490D01*
X351143Y859630D01*
X349359Y858261D01*
X347990Y856477D01*
X347130Y854399D01*
X346836Y852170D01*
X347130Y849941D01*
X347990Y847863D01*
X349359Y846079D01*
X351143Y844710D01*
X353221Y843850D01*
X355450Y843556D01*
X368450D01*
X370679Y843850D01*
X372757Y844710D01*
X374541Y846079D01*
X375910Y847863D01*
X376770Y849941D01*
X377064Y852170D01*
X376770Y854399D01*
X375910Y856477D01*
X374541Y858261D01*
X372757Y859630D01*
X370679Y860490D01*
X368450Y860784D01*
D02*
G37*
G36*
Y835384D02*
X355450D01*
X353221Y835090D01*
X351143Y834230D01*
X349359Y832861D01*
X347990Y831077D01*
X347130Y828999D01*
X346836Y826770D01*
X347130Y824541D01*
X347990Y822463D01*
X349359Y820679D01*
X351143Y819310D01*
X353221Y818450D01*
X355450Y818156D01*
X368450D01*
X370679Y818450D01*
X372757Y819310D01*
X374541Y820679D01*
X375910Y822463D01*
X376770Y824541D01*
X377064Y826770D01*
X376770Y828999D01*
X375910Y831077D01*
X374541Y832861D01*
X372757Y834230D01*
X370679Y835090D01*
X368450Y835384D01*
D02*
G37*
G36*
Y809984D02*
X355450D01*
X353221Y809690D01*
X351143Y808830D01*
X349359Y807461D01*
X347990Y805677D01*
X347130Y803599D01*
X346836Y801370D01*
X347130Y799141D01*
X347990Y797063D01*
X349359Y795279D01*
X351143Y793910D01*
X353221Y793050D01*
X355450Y792756D01*
X368450D01*
X370679Y793050D01*
X372757Y793910D01*
X374541Y795279D01*
X375910Y797063D01*
X376770Y799141D01*
X377064Y801370D01*
X376770Y803599D01*
X375910Y805677D01*
X374541Y807461D01*
X372757Y808830D01*
X370679Y809690D01*
X368450Y809984D01*
D02*
G37*
G36*
X546250Y784584D02*
X541020D01*
Y777240D01*
X554697D01*
X554570Y778199D01*
X553710Y780277D01*
X552341Y782061D01*
X550557Y783430D01*
X548479Y784290D01*
X546250Y784584D01*
D02*
G37*
G36*
X538480D02*
X533250D01*
X531021Y784290D01*
X528943Y783430D01*
X527159Y782061D01*
X525790Y780277D01*
X524930Y778199D01*
X524804Y777240D01*
X538480D01*
Y784584D01*
D02*
G37*
G36*
X368450D02*
X363220D01*
Y777240D01*
X376897D01*
X376770Y778199D01*
X375910Y780277D01*
X374541Y782061D01*
X372757Y783430D01*
X370679Y784290D01*
X368450Y784584D01*
D02*
G37*
G36*
X360680D02*
X355450D01*
X353221Y784290D01*
X351143Y783430D01*
X349359Y782061D01*
X347990Y780277D01*
X347130Y778199D01*
X347004Y777240D01*
X360680D01*
Y784584D01*
D02*
G37*
G36*
X897890Y794919D02*
X896117Y794685D01*
X894466Y794001D01*
X893047Y792913D01*
X891959Y791494D01*
X891275Y789843D01*
X891041Y788070D01*
X891275Y786298D01*
X891959Y784646D01*
X893047Y783227D01*
Y780413D01*
X891959Y778994D01*
X891275Y777343D01*
X891209Y776840D01*
X897890D01*
X904571D01*
X904505Y777343D01*
X903821Y778994D01*
X902733Y780413D01*
Y783227D01*
X903821Y784646D01*
X904505Y786298D01*
X904739Y788070D01*
X904505Y789843D01*
X903821Y791494D01*
X902733Y792913D01*
X901314Y794001D01*
X899662Y794685D01*
X897890Y794919D01*
D02*
G37*
G36*
X554697Y774700D02*
X541020D01*
Y767356D01*
X546250D01*
X548479Y767650D01*
X550557Y768510D01*
X552341Y769879D01*
X553710Y771663D01*
X554570Y773741D01*
X554697Y774700D01*
D02*
G37*
G36*
X538480D02*
X524804D01*
X524930Y773741D01*
X525790Y771663D01*
X527159Y769879D01*
X528943Y768510D01*
X531021Y767650D01*
X533250Y767356D01*
X538480D01*
Y774700D01*
D02*
G37*
G36*
X376897D02*
X363220D01*
Y767356D01*
X368450D01*
X370679Y767650D01*
X372757Y768510D01*
X374541Y769879D01*
X375910Y771663D01*
X376770Y773741D01*
X376897Y774700D01*
D02*
G37*
G36*
X360680D02*
X347004D01*
X347130Y773741D01*
X347990Y771663D01*
X349359Y769879D01*
X351143Y768510D01*
X353221Y767650D01*
X355450Y767356D01*
X360680D01*
Y774700D01*
D02*
G37*
G36*
X546250Y759184D02*
X533250D01*
X531021Y758890D01*
X528943Y758030D01*
X527159Y756661D01*
X525790Y754877D01*
X524930Y752799D01*
X524636Y750570D01*
X524930Y748341D01*
X525790Y746263D01*
X527159Y744479D01*
X528943Y743110D01*
X531021Y742250D01*
X533250Y741956D01*
X546250D01*
X548479Y742250D01*
X550557Y743110D01*
X552341Y744479D01*
X553710Y746263D01*
X554570Y748341D01*
X554864Y750570D01*
X554570Y752799D01*
X553710Y754877D01*
X552341Y756661D01*
X550557Y758030D01*
X548479Y758890D01*
X546250Y759184D01*
D02*
G37*
G36*
X368450D02*
X355450D01*
X353221Y758890D01*
X351143Y758030D01*
X349359Y756661D01*
X347990Y754877D01*
X347130Y752799D01*
X346836Y750570D01*
X347130Y748341D01*
X347990Y746263D01*
X349359Y744479D01*
X351143Y743110D01*
X353221Y742250D01*
X355450Y741956D01*
X368450D01*
X370679Y742250D01*
X372757Y743110D01*
X374541Y744479D01*
X375910Y746263D01*
X376770Y748341D01*
X377064Y750570D01*
X376770Y752799D01*
X375910Y754877D01*
X374541Y756661D01*
X372757Y758030D01*
X370679Y758890D01*
X368450Y759184D01*
D02*
G37*
G36*
X546250Y733784D02*
X533250D01*
X531021Y733490D01*
X528943Y732630D01*
X527159Y731261D01*
X525790Y729477D01*
X524930Y727399D01*
X524636Y725170D01*
X524930Y722941D01*
X525790Y720863D01*
X527159Y719079D01*
X528943Y717710D01*
X531021Y716850D01*
X533250Y716556D01*
X546250D01*
X548479Y716850D01*
X550557Y717710D01*
X552341Y719079D01*
X553710Y720863D01*
X554570Y722941D01*
X554864Y725170D01*
X554570Y727399D01*
X553710Y729477D01*
X552341Y731261D01*
X550557Y732630D01*
X548479Y733490D01*
X546250Y733784D01*
D02*
G37*
G36*
X368450D02*
X355450D01*
X353221Y733490D01*
X351143Y732630D01*
X349359Y731261D01*
X347990Y729477D01*
X347130Y727399D01*
X346836Y725170D01*
X347130Y722941D01*
X347990Y720863D01*
X349359Y719079D01*
X351143Y717710D01*
X353221Y716850D01*
X355450Y716556D01*
X368450D01*
X370679Y716850D01*
X372757Y717710D01*
X374541Y719079D01*
X375910Y720863D01*
X376770Y722941D01*
X377064Y725170D01*
X376770Y727399D01*
X375910Y729477D01*
X374541Y731261D01*
X372757Y732630D01*
X370679Y733490D01*
X368450Y733784D01*
D02*
G37*
G36*
X972820Y688289D02*
Y674370D01*
X986739D01*
X986570Y676088D01*
X985698Y678960D01*
X984283Y681608D01*
X982378Y683929D01*
X980058Y685833D01*
X977410Y687248D01*
X974538Y688120D01*
X972820Y688289D01*
D02*
G37*
G36*
X970280D02*
X968562Y688120D01*
X965690Y687248D01*
X963042Y685833D01*
X960722Y683929D01*
X958817Y681608D01*
X957402Y678960D01*
X956531Y676088D01*
X956361Y674370D01*
X970280D01*
Y688289D01*
D02*
G37*
G36*
X160020D02*
Y674370D01*
X173939D01*
X173769Y676088D01*
X172898Y678960D01*
X171483Y681608D01*
X169578Y683929D01*
X167258Y685833D01*
X164610Y687248D01*
X161738Y688120D01*
X160020Y688289D01*
D02*
G37*
G36*
X157480D02*
X155762Y688120D01*
X152890Y687248D01*
X150242Y685833D01*
X147921Y683929D01*
X146017Y681608D01*
X144602Y678960D01*
X143730Y676088D01*
X143561Y674370D01*
X157480D01*
Y688289D01*
D02*
G37*
G36*
X986739Y671830D02*
X972820D01*
Y657911D01*
X974538Y658081D01*
X977410Y658952D01*
X980058Y660367D01*
X982378Y662271D01*
X984283Y664592D01*
X985698Y667240D01*
X986570Y670112D01*
X986739Y671830D01*
D02*
G37*
G36*
X970280D02*
X956361D01*
X956531Y670112D01*
X957402Y667240D01*
X958817Y664592D01*
X960722Y662271D01*
X963042Y660367D01*
X965690Y658952D01*
X968562Y658081D01*
X970280Y657911D01*
Y671830D01*
D02*
G37*
G36*
X173939D02*
X160020D01*
Y657911D01*
X161738Y658081D01*
X164610Y658952D01*
X167258Y660367D01*
X169578Y662271D01*
X171483Y664592D01*
X172898Y667240D01*
X173769Y670112D01*
X173939Y671830D01*
D02*
G37*
G36*
X157480D02*
X143561D01*
X143730Y670112D01*
X144602Y667240D01*
X146017Y664592D01*
X147921Y662271D01*
X150242Y660367D01*
X152890Y658952D01*
X155762Y658081D01*
X157480Y657911D01*
Y671830D01*
D02*
G37*
%LPD*%
G36*
X763195Y1084580D02*
Y1081918D01*
Y1069733D01*
X762597Y1069485D01*
X760740Y1068060D01*
X759315Y1066203D01*
X758419Y1064041D01*
X758113Y1061720D01*
X758419Y1059399D01*
X759315Y1057237D01*
X760740Y1055380D01*
X762597Y1053955D01*
X763195Y1053707D01*
Y1015665D01*
X755015D01*
Y1016479D01*
X735711D01*
Y1009165D01*
X663015D01*
Y1110911D01*
X669069Y1116965D01*
X676753D01*
X678035Y1114463D01*
X677139Y1112301D01*
X676833Y1109980D01*
X677139Y1107659D01*
X678035Y1105497D01*
X679460Y1103640D01*
X681317Y1102215D01*
X683479Y1101319D01*
X685800Y1101013D01*
X688121Y1101319D01*
X690283Y1102215D01*
X692140Y1103640D01*
X693565Y1105497D01*
X694461Y1107659D01*
X694767Y1109980D01*
X695192Y1110465D01*
X735711D01*
Y1109120D01*
X755015D01*
Y1109651D01*
Y1116151D01*
Y1123465D01*
X763195D01*
Y1084580D01*
D02*
G37*
G36*
X779145Y1122651D02*
Y1116151D01*
Y1109651D01*
Y1103151D01*
X784912D01*
Y1096470D01*
X783257D01*
Y1085390D01*
Y1084315D01*
X770965D01*
Y1084580D01*
Y1123465D01*
X779145D01*
Y1122651D01*
D02*
G37*
G36*
X763195Y998780D02*
Y964860D01*
Y954163D01*
X762597Y953915D01*
X760740Y952490D01*
X759315Y950633D01*
X758419Y948471D01*
X758113Y946150D01*
X758419Y943829D01*
X759315Y941667D01*
X760740Y939810D01*
X762597Y938385D01*
X763195Y938137D01*
Y905175D01*
X755015D01*
Y905989D01*
X735711D01*
Y898675D01*
X663015D01*
Y991310D01*
Y1001395D01*
X676753D01*
X678035Y998893D01*
X677139Y996731D01*
X676833Y994410D01*
X677139Y992089D01*
X678035Y989927D01*
X679460Y988070D01*
X681317Y986645D01*
X683479Y985749D01*
X685800Y985443D01*
X688121Y985749D01*
X690283Y986645D01*
X692140Y988070D01*
X693565Y989927D01*
X694461Y992089D01*
X694767Y994410D01*
X695192Y994895D01*
X735711D01*
Y993550D01*
X755015D01*
Y994081D01*
Y1000581D01*
Y1007895D01*
X763195D01*
Y998780D01*
D02*
G37*
G36*
X779145Y1007081D02*
Y1000581D01*
Y994081D01*
Y987581D01*
X784912D01*
Y980900D01*
X783257D01*
Y969820D01*
Y968745D01*
X770965D01*
Y998780D01*
Y1007895D01*
X779145D01*
Y1007081D01*
D02*
G37*
G36*
Y896591D02*
Y890091D01*
Y883591D01*
Y877091D01*
X784912D01*
Y870410D01*
X783257D01*
Y859330D01*
Y858255D01*
X770965D01*
Y897405D01*
X779145D01*
Y896591D01*
D02*
G37*
%LPC*%
G36*
X755015Y1106580D02*
X746633D01*
Y1103151D01*
X755015D01*
Y1106580D01*
D02*
G37*
G36*
X744093D02*
X735711D01*
Y1103151D01*
X744093D01*
Y1106580D01*
D02*
G37*
G36*
X755015Y991010D02*
X746633D01*
Y987581D01*
X755015D01*
Y991010D01*
D02*
G37*
G36*
X744093D02*
X735711D01*
Y987581D01*
X744093D01*
Y991010D01*
D02*
G37*
%LPD*%
D15*
X137160Y1282700D02*
X158750D01*
X199390D01*
X158750D02*
Y1301750D01*
X199390Y1282700D02*
X200660Y1283970D01*
X158750Y1282700D02*
X158750Y1282700D01*
X135890Y1283970D02*
X137160Y1282700D01*
X157480Y1256030D02*
X158750Y1257300D01*
Y1282700D01*
X650820Y1137231D02*
X659130Y1145540D01*
X625892Y1112302D02*
X634202Y1120612D01*
X759050Y1107850D02*
X759460Y1107440D01*
X745363Y1107850D02*
X759050D01*
X757780Y992280D02*
X758190Y991870D01*
X745363Y992280D02*
X757780D01*
X745363Y983107D02*
Y992280D01*
X725170Y881380D02*
X728980D01*
X729390Y881790D01*
X745363D01*
X728980Y991870D02*
X729390Y992280D01*
X745363D01*
Y983107D02*
X745490Y982980D01*
X732790Y1107440D02*
X744953D01*
X745363Y1107850D01*
X745490Y1098550D02*
Y1101090D01*
X745363Y1101217D02*
X745490Y1101090D01*
X745363Y1101217D02*
Y1107850D01*
X185420Y1062990D02*
X194310Y1054100D01*
X361950Y1054100D01*
X185420Y1062990D02*
Y1121410D01*
Y1062990D02*
Y1062990D01*
Y1121410D02*
X194710Y1130700D01*
X229870D01*
X619760Y1106170D02*
X625892Y1112302D01*
X539750Y1106170D02*
X619760D01*
X308610Y1131570D02*
X361950D01*
X229870Y1105700D02*
X282740D01*
X308610Y1131570D01*
X200660Y1087120D02*
X208280Y1079500D01*
X200660Y1111250D02*
X207610Y1118200D01*
X200660Y1087120D02*
Y1111250D01*
X208280Y1079500D02*
X361950D01*
X207610Y1118200D02*
X229870D01*
Y1180700D02*
X361950D01*
X755650Y801370D02*
X831450Y725570D01*
X897890D01*
X539750Y801370D02*
X755650D01*
X786130Y826770D02*
X849830Y763070D01*
X897890D01*
X781050Y835660D02*
X798830D01*
X767080Y849630D02*
X781050Y835660D01*
X767080Y849630D02*
Y901290D01*
X788797D01*
X768690Y854370D02*
X788797D01*
X747903Y901290D02*
X767080D01*
X788797Y888290D02*
X823670D01*
X835660Y876300D01*
Y876290D02*
X889000D01*
X788797Y894790D02*
X841052D01*
X843065D01*
X854570Y888483D02*
X888483D01*
X843065Y894790D02*
X846508D01*
X853122Y888176D01*
X854264D02*
X854570Y888483D01*
X853122Y888176D02*
X854264D01*
X854710Y1113790D02*
X855240Y1114320D01*
X888470D01*
X844901Y1120850D02*
X851961Y1113790D01*
X854710D01*
X888470Y1114320D02*
X889000Y1114850D01*
X853122Y998667D02*
X854264D01*
X854570Y998973D01*
X888483D02*
X888895Y999385D01*
X846508Y1005280D02*
X853122Y998667D01*
X843065Y1005280D02*
X846508D01*
X854570Y998973D02*
X888483D01*
X841052Y1005280D02*
X843065D01*
X788797D02*
X841052D01*
X767080Y1061720D02*
Y1073829D01*
Y1011780D02*
Y1061720D01*
Y1073829D02*
Y1081918D01*
Y901290D02*
Y946150D01*
Y964860D01*
X835660Y986780D02*
X889000D01*
X823670Y998780D02*
X835660Y986790D01*
X788797Y998780D02*
X823670D01*
X767080Y1081918D02*
Y1084580D01*
Y997810D02*
Y1011780D01*
Y1084580D02*
Y1127350D01*
X788797Y1114350D02*
X823670D01*
X835660Y1102360D01*
Y1102350D02*
X889000D01*
X841052Y1120850D02*
X844901D01*
X788797D02*
X841052D01*
X634202Y1120612D02*
X650820Y1137231D01*
X767080Y1081918D02*
X768568Y1080430D01*
X788797D01*
X667460Y1120850D02*
X745363D01*
X659130Y1112520D02*
X667460Y1120850D01*
X767080Y1127350D02*
X788797D01*
Y1090930D02*
Y1107850D01*
X659130Y1145540D02*
X721360D01*
X758190D02*
X767080Y1136650D01*
Y1127350D02*
Y1136650D01*
X721360Y1145540D02*
X758190D01*
X745363Y1127350D02*
X767080D01*
X687998Y1109980D02*
X692368Y1114350D01*
X745363Y1107850D02*
X745490Y1107723D01*
X692368Y1114350D02*
X745363D01*
X685800Y1109980D02*
X687998D01*
X788797Y1127350D02*
X889000D01*
X688936Y996354D02*
X689942D01*
X692368Y998780D01*
X745363D01*
X788797Y901290D02*
X889000D01*
X767080Y964860D02*
X788797D01*
X659130Y991310D02*
Y1112520D01*
Y1005280D02*
X746633D01*
X745363Y901290D02*
X747903D01*
X788797Y975360D02*
Y992280D01*
X745363Y1011780D02*
X767080D01*
Y964860D02*
Y998780D01*
Y1011780D02*
X788797D01*
X740820D02*
X746633D01*
X745363Y992280D02*
X745490Y992153D01*
X788797Y1011780D02*
X889000D01*
X655320Y852170D02*
X685800Y882650D01*
X539750Y852170D02*
X655320D01*
X659130Y894790D02*
X745363D01*
X692928Y888290D02*
X745363D01*
X687288Y882650D02*
X692928Y888290D01*
X685800Y882650D02*
X687288D01*
X788797Y864870D02*
Y881790D01*
X641910Y877570D02*
X659130Y894790D01*
X539750Y877570D02*
X641910D01*
X659130Y894790D02*
Y991310D01*
X539750Y826770D02*
X786130D01*
D19*
X788797Y1080430D02*
D03*
Y1090930D02*
D03*
Y964860D02*
D03*
Y975360D02*
D03*
Y854370D02*
D03*
Y864870D02*
D03*
D24*
X229870Y1105700D02*
D03*
Y1180700D02*
D03*
Y1168200D02*
D03*
Y1155700D02*
D03*
Y1143200D02*
D03*
Y1130700D02*
D03*
Y1118200D02*
D03*
D28*
X745363Y901290D02*
D03*
Y894790D02*
D03*
Y888290D02*
D03*
Y881790D02*
D03*
X788797D02*
D03*
Y888290D02*
D03*
Y894790D02*
D03*
Y901290D02*
D03*
X745363Y1011780D02*
D03*
Y1005280D02*
D03*
Y998780D02*
D03*
Y992280D02*
D03*
X788797D02*
D03*
Y998780D02*
D03*
Y1005280D02*
D03*
Y1011780D02*
D03*
X745363Y1127350D02*
D03*
Y1120850D02*
D03*
Y1114350D02*
D03*
Y1107850D02*
D03*
X788797D02*
D03*
Y1114350D02*
D03*
Y1120850D02*
D03*
Y1127350D02*
D03*
D29*
X158750Y1282700D02*
D03*
X971550D02*
D03*
Y673100D02*
D03*
X158750D02*
D03*
D30*
X897890Y788070D02*
D03*
Y775570D02*
D03*
Y763070D02*
D03*
Y750570D02*
D03*
Y738070D02*
D03*
Y725570D02*
D03*
Y713070D02*
D03*
X889000Y888790D02*
D03*
Y876290D02*
D03*
Y863790D02*
D03*
Y999280D02*
D03*
Y986780D02*
D03*
Y974280D02*
D03*
Y1114850D02*
D03*
Y1102350D02*
D03*
Y1089850D02*
D03*
D31*
X897890Y700570D02*
D03*
X889000Y901290D02*
D03*
Y1011780D02*
D03*
Y1127350D02*
D03*
D32*
X539750Y1080770D02*
D03*
Y725170D02*
D03*
Y750570D02*
D03*
Y775970D02*
D03*
Y801370D02*
D03*
Y826770D02*
D03*
Y852170D02*
D03*
Y877570D02*
D03*
Y902970D02*
D03*
Y928370D02*
D03*
Y953770D02*
D03*
Y979170D02*
D03*
Y1004570D02*
D03*
Y1029970D02*
D03*
Y1055370D02*
D03*
Y1106170D02*
D03*
Y1131570D02*
D03*
Y1156970D02*
D03*
Y1182370D02*
D03*
Y1207770D02*
D03*
X361950Y725170D02*
D03*
Y750570D02*
D03*
Y775970D02*
D03*
Y801370D02*
D03*
Y826770D02*
D03*
Y852170D02*
D03*
Y877570D02*
D03*
Y902970D02*
D03*
Y928370D02*
D03*
Y953770D02*
D03*
Y979170D02*
D03*
Y1004570D02*
D03*
Y1029970D02*
D03*
Y1055370D02*
D03*
Y1080770D02*
D03*
Y1106170D02*
D03*
Y1131570D02*
D03*
Y1156970D02*
D03*
Y1182370D02*
D03*
D33*
Y1207770D02*
D03*
D34*
X798830Y835660D02*
D03*
X835660Y876300D02*
D03*
X854264Y888176D02*
D03*
X854710Y1113790D02*
D03*
X854264Y998667D02*
D03*
X767080Y1061720D02*
D03*
Y946150D02*
D03*
X835660Y986790D02*
D03*
Y1102360D02*
D03*
X685800Y1109980D02*
D03*
Y994410D02*
D03*
Y882650D02*
D03*
M02*
