G04*
G04 #@! TF.GenerationSoftware,Altium Limited,Altium Designer,25.3.3 (18)*
G04*
G04 Layer_Color=2752767*
%FSLAX44Y44*%
%MOMM*%
G71*
G04*
G04 #@! TF.SameCoordinates,10FA7EA3-3D76-47B6-B262-5EA2F94E63AD*
G04*
G04*
G04 #@! TF.FilePolarity,Positive*
G04*
G01*
G75*
%ADD12C,0.1270*%
%ADD35C,0.1693*%
D12*
X153670Y1277620D02*
X156210Y1282700D01*
X153670Y1287780D01*
X158750Y1285240D01*
X163830Y1287780D01*
X161290Y1282700D01*
X163830Y1277620D01*
X158750Y1280160D01*
X153670Y1277620D01*
X966470D02*
X969010Y1282700D01*
X966470Y1287780D01*
X971550Y1285240D01*
X976630Y1287780D01*
X974090Y1282700D01*
X976630Y1277620D01*
X971550Y1280160D01*
X966470Y1277620D01*
X892810Y782990D02*
Y793150D01*
X902970D01*
Y782990D01*
X892810D01*
Y770490D02*
Y780650D01*
X902970D01*
Y770490D01*
X892810D01*
Y757990D02*
Y768150D01*
X902970D01*
Y757990D01*
X892810D01*
Y745490D02*
Y755650D01*
X902970D01*
Y745490D01*
X892810D01*
Y732990D02*
Y743150D01*
X902970D01*
Y732990D01*
X892810D01*
Y720490D02*
Y730650D01*
X902970D01*
Y720490D01*
X892810D01*
Y707990D02*
Y718150D01*
X902970D01*
Y707990D01*
X892810D01*
Y695490D02*
Y705650D01*
X902970D01*
Y695490D01*
X892810D01*
X229870Y1100620D02*
X232410Y1103160D01*
X234950D01*
X232410Y1105700D01*
X234950Y1108240D01*
X232410D01*
X229870Y1110780D01*
X227330Y1108240D01*
X224790D01*
X227330Y1105700D01*
X224790Y1103160D01*
X227330D01*
X229870Y1100620D01*
Y1175620D02*
X232410Y1178160D01*
X234950D01*
X232410Y1180700D01*
X234950Y1183240D01*
X232410D01*
X229870Y1185780D01*
X227330Y1183240D01*
X224790D01*
X227330Y1180700D01*
X224790Y1178160D01*
X227330D01*
X229870Y1175620D01*
Y1163120D02*
X232410Y1165660D01*
X234950D01*
X232410Y1168200D01*
X234950Y1170740D01*
X232410D01*
X229870Y1173280D01*
X227330Y1170740D01*
X224790D01*
X227330Y1168200D01*
X224790Y1165660D01*
X227330D01*
X229870Y1163120D01*
Y1150620D02*
X232410Y1153160D01*
X234950D01*
X232410Y1155700D01*
X234950Y1158240D01*
X232410D01*
X229870Y1160780D01*
X227330Y1158240D01*
X224790D01*
X227330Y1155700D01*
X224790Y1153160D01*
X227330D01*
X229870Y1150620D01*
Y1138120D02*
X232410Y1140660D01*
X234950D01*
X232410Y1143200D01*
X234950Y1145740D01*
X232410D01*
X229870Y1148280D01*
X227330Y1145740D01*
X224790D01*
X227330Y1143200D01*
X224790Y1140660D01*
X227330D01*
X229870Y1138120D01*
Y1125620D02*
X232410Y1128160D01*
X234950D01*
X232410Y1130700D01*
X234950Y1133240D01*
X232410D01*
X229870Y1135780D01*
X227330Y1133240D01*
X224790D01*
X227330Y1130700D01*
X224790Y1128160D01*
X227330D01*
X229870Y1125620D01*
Y1113120D02*
X232410Y1115660D01*
X234950D01*
X232410Y1118200D01*
X234950Y1120740D01*
X232410D01*
X229870Y1123280D01*
X227330Y1120740D01*
X224790D01*
X227330Y1118200D01*
X224790Y1115660D01*
X227330D01*
X229870Y1113120D01*
X883920Y896210D02*
Y906370D01*
X894080D01*
Y896210D01*
X883920D01*
Y883710D02*
Y893870D01*
X894080D01*
Y883710D01*
X883920D01*
Y871210D02*
Y881370D01*
X894080D01*
Y871210D01*
X883920D01*
Y858710D02*
Y868870D01*
X894080D01*
Y858710D01*
X883920D01*
Y1006700D02*
Y1016860D01*
X894080D01*
Y1006700D01*
X883920D01*
Y994200D02*
Y1004360D01*
X894080D01*
Y994200D01*
X883920D01*
Y981700D02*
Y991860D01*
X894080D01*
Y981700D01*
X883920D01*
Y969200D02*
Y979360D01*
X894080D01*
Y969200D01*
X883920D01*
Y1122270D02*
Y1132430D01*
X894080D01*
Y1122270D01*
X883920D01*
Y1109770D02*
Y1119930D01*
X894080D01*
Y1109770D01*
X883920D01*
Y1097270D02*
Y1107430D01*
X894080D01*
Y1097270D01*
X883920D01*
Y1084770D02*
Y1094930D01*
X894080D01*
Y1084770D01*
X883920D01*
X966470Y668020D02*
X969010Y673100D01*
X966470Y678180D01*
X971550Y675640D01*
X976630Y678180D01*
X974090Y673100D01*
X976630Y668020D01*
X971550Y670560D01*
X966470Y668020D01*
X153670D02*
X156210Y673100D01*
X153670Y678180D01*
X158750Y675640D01*
X163830Y678180D01*
X161290Y673100D01*
X163830Y668020D01*
X158750Y670560D01*
X153670Y668020D01*
X798830Y830580D02*
X793750Y840740D01*
X803910D01*
X798830Y830580D01*
X835660Y871220D02*
X830580Y881380D01*
X840740D01*
X835660Y871220D01*
X854264Y883096D02*
X849184Y893257D01*
X859343D01*
X854264Y883096D01*
X854710Y1108710D02*
X849630Y1118870D01*
X859790D01*
X854710Y1108710D01*
X854264Y993587D02*
X849184Y1003746D01*
X859343D01*
X854264Y993587D01*
X767080Y1056640D02*
X762000Y1066800D01*
X772160D01*
X767080Y1056640D01*
Y941070D02*
X762000Y951230D01*
X772160D01*
X767080Y941070D01*
X835660Y981710D02*
X830580Y991870D01*
X840740D01*
X835660Y981710D01*
Y1097280D02*
X830580Y1107440D01*
X840740D01*
X835660Y1097280D01*
X685800Y1104900D02*
X680720Y1115060D01*
X690880D01*
X685800Y1104900D01*
Y989330D02*
X680720Y999490D01*
X690880D01*
X685800Y989330D01*
Y877570D02*
X680720Y887730D01*
X690880D01*
X685800Y877570D01*
D35*
X544830Y1080770D02*
G03*
X544830Y1080770I-5080J0D01*
G01*
X367030Y1207770D02*
G03*
X367030Y1207770I-5080J0D01*
G01*
X544830Y725170D02*
G03*
X544830Y725170I-5080J0D01*
G01*
Y750570D02*
G03*
X544830Y750570I-5080J0D01*
G01*
Y775970D02*
G03*
X544830Y775970I-5080J0D01*
G01*
Y801370D02*
G03*
X544830Y801370I-5080J0D01*
G01*
Y826770D02*
G03*
X544830Y826770I-5080J0D01*
G01*
Y852170D02*
G03*
X544830Y852170I-5080J0D01*
G01*
Y877570D02*
G03*
X544830Y877570I-5080J0D01*
G01*
Y902970D02*
G03*
X544830Y902970I-5080J0D01*
G01*
Y928370D02*
G03*
X544830Y928370I-5080J0D01*
G01*
Y953770D02*
G03*
X544830Y953770I-5080J0D01*
G01*
Y979170D02*
G03*
X544830Y979170I-5080J0D01*
G01*
Y1004570D02*
G03*
X544830Y1004570I-5080J0D01*
G01*
Y1029970D02*
G03*
X544830Y1029970I-5080J0D01*
G01*
Y1055370D02*
G03*
X544830Y1055370I-5080J0D01*
G01*
Y1106170D02*
G03*
X544830Y1106170I-5080J0D01*
G01*
Y1131570D02*
G03*
X544830Y1131570I-5080J0D01*
G01*
Y1156970D02*
G03*
X544830Y1156970I-5080J0D01*
G01*
Y1182370D02*
G03*
X544830Y1182370I-5080J0D01*
G01*
Y1207770D02*
G03*
X544830Y1207770I-5080J0D01*
G01*
X367030Y725170D02*
G03*
X367030Y725170I-5080J0D01*
G01*
Y750570D02*
G03*
X367030Y750570I-5080J0D01*
G01*
Y775970D02*
G03*
X367030Y775970I-5080J0D01*
G01*
Y801370D02*
G03*
X367030Y801370I-5080J0D01*
G01*
Y826770D02*
G03*
X367030Y826770I-5080J0D01*
G01*
Y852170D02*
G03*
X367030Y852170I-5080J0D01*
G01*
Y877570D02*
G03*
X367030Y877570I-5080J0D01*
G01*
Y902970D02*
G03*
X367030Y902970I-5080J0D01*
G01*
Y928370D02*
G03*
X367030Y928370I-5080J0D01*
G01*
Y953770D02*
G03*
X367030Y953770I-5080J0D01*
G01*
Y979170D02*
G03*
X367030Y979170I-5080J0D01*
G01*
Y1004570D02*
G03*
X367030Y1004570I-5080J0D01*
G01*
Y1029970D02*
G03*
X367030Y1029970I-5080J0D01*
G01*
Y1055370D02*
G03*
X367030Y1055370I-5080J0D01*
G01*
Y1080770D02*
G03*
X367030Y1080770I-5080J0D01*
G01*
Y1106170D02*
G03*
X367030Y1106170I-5080J0D01*
G01*
Y1131570D02*
G03*
X367030Y1131570I-5080J0D01*
G01*
Y1156970D02*
G03*
X367030Y1156970I-5080J0D01*
G01*
Y1182370D02*
G03*
X367030Y1182370I-5080J0D01*
G01*
M02*
