G04*
G04 #@! TF.GenerationSoftware,Altium Limited,Altium Designer,25.3.3 (18)*
G04*
G04 Layer_Physical_Order=2*
G04 Layer_Color=16711680*
%FSLAX44Y44*%
%MOMM*%
G71*
G04*
G04 #@! TF.SameCoordinates,10FA7EA3-3D76-47B6-B262-5EA2F94E63AD*
G04*
G04*
G04 #@! TF.FilePolarity,Positive*
G04*
G01*
G75*
%ADD15C,0.2540*%
%ADD19R,0.6000X0.6000*%
%ADD24C,1.0668*%
%ADD29C,2.5400*%
%ADD30C,0.8500*%
%ADD31R,0.8500X0.8500*%
%ADD32O,2.5000X1.2000*%
%ADD33R,2.5000X1.2000*%
%ADD34C,1.2700*%
D15*
X600710Y1208024D02*
Y1233170D01*
X914580Y1207590D02*
X962660Y1159510D01*
X539750Y1207770D02*
X600710D01*
X914400D01*
X218440Y1270000D02*
X563880D01*
X600710Y1233170D01*
X194310Y1149350D02*
Y1245870D01*
Y1149350D02*
X200460Y1143200D01*
X194310Y1245870D02*
X218440Y1270000D01*
X200460Y1143200D02*
X229870D01*
X539750Y725170D02*
X817880D01*
X830780Y738070D02*
X897890D01*
X817880Y725170D02*
X830780Y738070D01*
X962660Y839470D02*
Y1159510D01*
X897890Y788070D02*
X911260D01*
X962660Y839470D01*
X798830Y835660D02*
X835660D01*
X845437D02*
X855087Y845310D01*
X841415Y835660D02*
X845437D01*
X835660D02*
Y845480D01*
Y835660D02*
X841415D01*
X854710Y856357D02*
Y887730D01*
X854264Y888176D02*
X854710Y887730D01*
X835660Y856150D02*
Y876300D01*
X854710Y1082417D02*
Y1113790D01*
Y1082417D02*
X855087Y1082040D01*
X854264Y967293D02*
Y998667D01*
Y967293D02*
X854710Y966847D01*
X845267Y1061720D02*
X855087Y1071540D01*
X835660Y1061720D02*
X845267D01*
X835660D02*
Y1071710D01*
X801475Y1061720D02*
X835660D01*
X767080D02*
X801475D01*
X845437Y946150D02*
X855087Y955800D01*
X841415Y946150D02*
X845437D01*
X835660D02*
Y955970D01*
Y946150D02*
X841415D01*
X767080D02*
X835660D01*
Y966640D02*
Y986790D01*
X889000Y863790D02*
X889000D01*
X835660Y1082210D02*
Y1102360D01*
X685800Y994410D02*
Y1054100D01*
Y882650D02*
Y980561D01*
Y980440D02*
Y994410D01*
Y1054100D02*
Y1109980D01*
X539750Y750570D02*
X897890D01*
D19*
X835660Y1071710D02*
D03*
Y1082210D02*
D03*
X855087Y1071540D02*
D03*
Y1082040D02*
D03*
Y955800D02*
D03*
Y966300D02*
D03*
X835660Y955970D02*
D03*
Y966470D02*
D03*
X855087Y845310D02*
D03*
Y855810D02*
D03*
X835660Y845480D02*
D03*
Y855980D02*
D03*
D24*
X229870Y1105700D02*
D03*
Y1180700D02*
D03*
Y1168200D02*
D03*
Y1155700D02*
D03*
Y1143200D02*
D03*
Y1130700D02*
D03*
Y1118200D02*
D03*
D29*
X158750Y1282700D02*
D03*
X971550D02*
D03*
Y673100D02*
D03*
X158750D02*
D03*
D30*
X897890Y788070D02*
D03*
Y775570D02*
D03*
Y763070D02*
D03*
Y750570D02*
D03*
Y738070D02*
D03*
Y725570D02*
D03*
Y713070D02*
D03*
X889000Y888790D02*
D03*
Y876290D02*
D03*
Y863790D02*
D03*
Y999280D02*
D03*
Y986780D02*
D03*
Y974280D02*
D03*
Y1114850D02*
D03*
Y1102350D02*
D03*
Y1089850D02*
D03*
D31*
X897890Y700570D02*
D03*
X889000Y901290D02*
D03*
Y1011780D02*
D03*
Y1127350D02*
D03*
D32*
X539750Y1080770D02*
D03*
Y725170D02*
D03*
Y750570D02*
D03*
Y775970D02*
D03*
Y801370D02*
D03*
Y826770D02*
D03*
Y852170D02*
D03*
Y877570D02*
D03*
Y902970D02*
D03*
Y928370D02*
D03*
Y953770D02*
D03*
Y979170D02*
D03*
Y1004570D02*
D03*
Y1029970D02*
D03*
Y1055370D02*
D03*
Y1106170D02*
D03*
Y1131570D02*
D03*
Y1156970D02*
D03*
Y1182370D02*
D03*
Y1207770D02*
D03*
X361950Y725170D02*
D03*
Y750570D02*
D03*
Y775970D02*
D03*
Y801370D02*
D03*
Y826770D02*
D03*
Y852170D02*
D03*
Y877570D02*
D03*
Y902970D02*
D03*
Y928370D02*
D03*
Y953770D02*
D03*
Y979170D02*
D03*
Y1004570D02*
D03*
Y1029970D02*
D03*
Y1055370D02*
D03*
Y1080770D02*
D03*
Y1106170D02*
D03*
Y1131570D02*
D03*
Y1156970D02*
D03*
Y1182370D02*
D03*
D33*
Y1207770D02*
D03*
D34*
X798830Y835660D02*
D03*
X835660Y876300D02*
D03*
X854264Y888176D02*
D03*
X854710Y1113790D02*
D03*
X854264Y998667D02*
D03*
X767080Y1061720D02*
D03*
Y946150D02*
D03*
X835660Y986790D02*
D03*
Y1102360D02*
D03*
X685800Y1109980D02*
D03*
Y994410D02*
D03*
Y882650D02*
D03*
M02*
